<?xml version="1.0" encoding="UTF-8"?>
<svg id="Layer_2" data-name="Layer 2" xmlns="http://www.w3.org/2000/svg" viewBox="0 0 954 950">
  <defs>
    <style>
      .cls-1 {
        fill: #5197fc;
      }

      .cls-1, .cls-2, .cls-3, .cls-4 {
        stroke-width: 0px;
      }

      .cls-5 {
        opacity: .2;
      }

      .cls-3 {
        fill: #fff;
      }

      .cls-4 {
        fill: #ffff;
      }
    </style>
  </defs>
  <g id="_1" data-name="1">
    <rect class="cls-4" width="954" height="950"/>
    <g id="_16" data-name="16">
      <g>
        <g class="cls-5">
          <path class="cls-2" d="M731.85,758.89h-145.9v-191.95h-152.75v191.95h-145.9v-501.48h145.9v180.91h152.75v-180.91h145.9v501.48ZM597.21,747.64h123.39v-478.98h-123.39v180.91h-175.25v-180.91h-123.39v478.98h123.39v-191.95h175.25v191.95Z"/>
          <path class="cls-2" d="M731.4,758.44h-145.9v-191.95h-152.75v191.95h-145.9v-501.48h145.9v180.9h152.75v-180.9h145.9v501.48ZM596.76,747.19h123.39v-478.97h-123.39v180.9h-175.25v-180.9h-123.39v478.97h123.39v-191.95h175.25v191.95Z"/>
          <path class="cls-2" d="M730.96,758h-145.89v-191.95h-152.75v191.95h-145.9v-501.48h145.9v180.9h152.75v-180.9h145.89v501.48ZM596.32,746.74h123.38v-478.97h-123.38v180.9h-175.26v-180.9h-123.39v478.97h123.39v-191.95h175.26v191.95Z"/>
          <path class="cls-2" d="M730.52,757.55h-145.9v-191.95h-152.75v191.95h-145.9v-501.48h145.9v180.9h152.75v-180.9h145.9v501.48ZM595.88,746.3h123.39v-478.98h-123.39v180.9h-175.26v-180.9h-123.39v478.98h123.39v-191.95h175.26v191.95Z"/>
          <path class="cls-2" d="M730.07,757.1h-145.9v-191.95h-152.75v191.95h-145.9V255.62h145.9v180.91h152.75v-180.91h145.9v501.48ZM595.43,745.84h123.39v-478.97h-123.39v180.91h-175.26v-180.91h-123.39v478.98h123.39v-191.95h175.26v191.94Z"/>
          <path class="cls-2" d="M729.62,756.65h-145.9v-191.95h-152.76v191.95h-145.9V255.17h145.9v180.9h152.76v-180.9h145.9v501.48ZM594.99,745.4h123.39v-478.97h-123.39v180.9h-175.27v-180.9h-123.39v478.97h123.39v-191.95h175.27v191.95Z"/>
          <path class="cls-2" d="M729.18,756.2h-145.9v-191.95h-152.76v191.95h-145.9V254.72h145.9v180.9h152.76v-180.9h145.9v501.48ZM594.54,744.95h123.39v-478.97h-123.39v180.9h-175.27v-180.9h-123.39v478.97h123.39v-191.95h175.27v191.95Z"/>
          <path class="cls-2" d="M728.73,755.76h-145.9v-191.95h-152.75v191.95h-145.9V254.27h145.9v180.9h152.75v-180.9h145.9v501.48h0ZM594.09,744.5h123.39v-478.98h-123.39v180.9h-175.26v-180.9h-123.39v478.98h123.39v-191.95h175.26v191.95Z"/>
          <path class="cls-2" d="M728.29,755.31h-145.9v-191.95h-152.77v191.95h-145.9V253.82h145.9v180.91h152.77v-180.91h145.9v501.49ZM593.65,744.06h123.39v-478.98h-123.39v180.91h-175.28v-180.91h-123.39v478.98h123.39v-191.95h175.28v191.95Z"/>
          <path class="cls-2" d="M727.84,754.86h-145.9v-191.95h-152.76v191.95h-145.9V253.38h145.9v180.9h152.77v-180.9h145.9v501.48h0ZM593.2,743.61h123.39v-478.97h-123.39v180.9h-175.27v-180.9h-123.39v478.97h123.39v-191.95h175.28v191.95h0Z"/>
          <path class="cls-2" d="M727.4,754.42h-145.9v-191.95h-152.77v191.95h-145.89V252.94h145.89v180.9h152.77v-180.9h145.9v501.48h0ZM592.76,743.16h123.39v-478.97h-123.39v180.9h-175.28v-180.9h-123.38v478.97h123.38v-191.95h175.28v191.95Z"/>
          <path class="cls-2" d="M726.95,753.97h-145.9v-191.95h-152.77v191.95h-145.9V252.48h145.9v180.9h152.77v-180.9h145.9v501.49ZM592.31,742.71h123.39v-478.98h-123.39v180.9h-175.28v-180.9h-123.39v478.98h123.39v-191.95h175.28v191.95Z"/>
          <path class="cls-2" d="M726.5,753.52h-145.9v-191.95h-152.77v191.95h-145.9V252.04h145.9v180.9h152.77v-180.9h145.9v501.48h0ZM591.86,742.26h123.39v-478.97h-123.39v180.9h-175.28v-180.9h-123.39v478.98h123.39v-191.95h175.28v191.95h0Z"/>
          <path class="cls-2" d="M726.06,753.07h-145.89v-191.95h-152.78v191.95h-145.89V251.59h145.9v180.9h152.78v-180.9h145.89v501.48h0ZM591.43,741.81h123.38v-478.97h-123.38v180.9h-175.29v-180.9h-123.39v478.97h123.39v-191.95h175.29v191.95h0Z"/>
          <path class="cls-2" d="M725.62,752.62h-145.9v-191.95h-152.78v191.95h-145.9V251.14h145.9v180.9h152.78v-180.9h145.9v501.48ZM590.97,741.37h123.39v-478.97h-123.39v180.9h-175.28v-180.9h-123.39v478.97h123.39v-191.95h175.28v191.95Z"/>
          <path class="cls-2" d="M725.17,752.18h-145.9v-191.95h-152.78v191.95h-145.9V250.69h145.9v180.9h152.78v-180.9h145.9v501.49ZM590.53,740.93h123.39v-478.98h-123.39v180.9h-175.28v-180.9h-123.39v478.98h123.39v-191.95h175.28v191.95Z"/>
          <path class="cls-2" d="M724.72,751.73h-145.9v-191.95h-152.78v191.95h-145.9V250.25h145.9v180.9h152.78v-180.9h145.9v501.48h0ZM590.08,740.48h123.39v-478.98h-123.39v180.9h-175.29v-180.9h-123.39v478.98h123.39v-191.95h175.29v191.95h0Z"/>
          <path class="cls-2" d="M724.28,751.28h-145.9v-191.95h-152.78v191.95h-145.9V249.8h145.9v180.9h152.78v-180.9h145.9v501.48ZM589.64,740.02h123.39v-478.97h-123.39v180.9h-175.29v-180.9h-123.39v478.97h123.39v-191.95h175.29v191.95Z"/>
          <path class="cls-2" d="M723.83,750.83h-145.89v-191.95h-152.79v191.95h-145.9V249.35h145.9v180.9h152.79v-180.9h145.89v501.48ZM589.2,739.58h123.38v-478.97h-123.38v180.9h-175.3v-180.9h-123.39v478.97h123.39v-191.95h175.3v191.95Z"/>
          <path class="cls-2" d="M723.39,750.39h-145.9v-191.95h-152.79v191.95h-145.9V248.9h145.9v180.9h152.79v-180.9h145.9v501.49ZM588.75,739.13h123.39v-478.98h-123.39v180.9h-175.3v-180.9h-123.39v478.98h123.39v-191.95h175.3v191.95Z"/>
          <path class="cls-2" d="M722.94,749.94h-145.9v-191.95h-152.79v191.95h-145.9V248.46h145.9v180.9h152.79v-180.9h145.9v501.48ZM588.3,738.68h123.39v-478.97h-123.39v180.9h-175.3v-180.9h-123.39v478.98h123.39v-191.95h175.3v191.94Z"/>
          <path class="cls-2" d="M722.5,749.49h-145.9v-191.95h-152.79v191.95h-145.9V248.01h145.9v180.9h152.79v-180.9h145.9v501.48ZM587.85,738.23h123.39v-478.97h-123.39v180.9h-175.3v-180.9h-123.39v478.97h123.39v-191.95h175.3v191.95Z"/>
          <path class="cls-2" d="M722.05,749.04h-145.9v-191.95h-152.79v191.95h-145.9V247.56h145.9v180.9h152.79v-180.9h145.9v501.48ZM587.41,737.79h123.39v-478.97h-123.39v180.9h-175.3v-180.9h-123.39v478.97h123.39v-191.95h175.3v191.95Z"/>
          <path class="cls-2" d="M721.6,748.6h-145.9v-191.95h-152.79v191.95h-145.9V247.11h145.9v180.9h152.79v-180.9h145.9v501.48h0ZM586.96,737.34h123.39v-478.98h-123.39v180.9h-175.3v-180.9h-123.4v478.98h123.4v-191.95h175.3v191.95h0Z"/>
          <path class="cls-2" d="M721.16,748.15h-145.9v-191.95h-152.8v191.95h-145.9V246.66h145.9v180.91h152.8v-180.91h145.9v501.48ZM586.52,736.89h123.39v-478.98h-123.39v180.91h-175.31v-180.91h-123.39v478.98h123.39v-191.95h175.31v191.95Z"/>
          <path class="cls-2" d="M720.71,747.7h-145.9v-191.95h-152.8v191.95h-145.9V246.22h145.9v180.9h152.8v-180.9h145.9v501.48ZM586.08,736.44h123.39v-478.97h-123.39v180.9h-175.31v-180.9h-123.39v478.97h123.39v-191.95h175.31v191.95Z"/>
          <path class="cls-2" d="M720.27,747.25h-145.9v-191.95h-152.8v191.95h-145.89V245.77h145.9v180.9h152.8v-180.9h145.9v501.48h0ZM585.63,736h123.39v-478.97h-123.39v180.9h-175.31v-180.9h-123.38v478.97h123.39v-191.95h175.31v191.95Z"/>
          <path class="cls-2" d="M719.82,746.8h-145.9v-191.95h-152.8v191.95h-145.9V245.32h145.9v180.9h152.8v-180.9h145.9v501.48ZM585.18,735.55h123.39v-478.97h-123.39v180.9h-175.31v-180.9h-123.39v478.98h123.39v-191.95h175.31v191.95h0Z"/>
          <path class="cls-2" d="M719.37,746.35h-145.9v-191.95h-152.8v191.95h-145.9V244.87h145.9v180.91h152.8v-180.91h145.9v501.48ZM584.73,735.1h123.39v-478.98h-123.39v180.91h-175.31v-180.91h-123.39v478.98h123.39v-191.95h175.31v191.95Z"/>
          <path class="cls-2" d="M718.93,745.9h-145.89v-191.95h-152.81v191.95h-145.9V244.42h145.9v180.9h152.81v-180.9h145.89v501.48ZM584.29,734.65h123.38V255.68h-123.38v180.9h-175.32v-180.9h-123.39v478.97h123.39v-191.95h175.32v191.95Z"/>
          <path class="cls-2" d="M718.49,745.46h-145.9v-191.95h-152.81v191.95h-145.9V243.98h145.9v180.9h152.81v-180.9h145.9v501.48ZM583.85,734.21h123.39V255.24h-123.39v180.9h-175.32v-180.9h-123.39v478.97h123.39v-191.95h175.32v191.95Z"/>
          <path class="cls-2" d="M718.04,745.01h-145.9v-191.95h-152.81v191.95h-145.9V243.53h145.9v180.9h152.81v-180.9h145.9v501.48ZM583.4,733.76h123.39V254.78h-123.39v180.9h-175.32v-180.9h-123.39v478.98h123.39v-191.95h175.32v191.95Z"/>
          <path class="cls-2" d="M717.59,744.56h-145.89v-191.95h-152.81v191.95h-145.9V243.08h145.9v180.91h152.81v-180.91h145.89v501.48ZM582.95,733.31h123.38V254.33h-123.38v180.91h-175.32v-180.91h-123.39v478.98h123.39v-191.95h175.32v191.95Z"/>
          <path class="cls-2" d="M717.15,744.11h-145.9v-191.95h-152.82v191.95h-145.9V242.63h145.9v180.9h152.82v-180.9h145.9v501.48ZM582.51,732.86h123.39V253.89h-123.39v180.9h-175.33v-180.9h-123.39v478.97h123.39v-191.95h175.33v191.94Z"/>
          <path class="cls-2" d="M716.7,743.67h-145.9v-191.95h-152.82v191.95h-145.9V242.19h145.9v180.9h152.82v-180.9h145.9v501.48ZM582.06,732.41h123.39V253.45h-123.39v180.9h-175.33v-180.9h-123.39v478.97h123.39v-191.95h175.33v191.94Z"/>
          <path class="cls-2" d="M716.26,743.22h-145.9v-191.95h-152.82v191.95h-145.9V241.74h145.9v180.9h152.82v-180.9h145.9v501.48ZM581.62,731.97h123.39V252.99h-123.39v180.9h-175.33v-180.9h-123.39v478.98h123.39v-191.95h175.33v191.95Z"/>
          <path class="cls-2" d="M715.81,742.77h-145.9v-191.95h-152.82v191.95h-145.9V241.29h145.9v180.91h152.82v-180.91h145.9v501.48ZM581.17,731.52h123.39V252.54h-123.39v180.91h-175.33v-180.91h-123.39v478.98h123.39v-191.95h175.33v191.95Z"/>
          <path class="cls-2" d="M715.37,742.32h-145.9v-191.95h-152.82v191.95h-145.9V240.84h145.9v180.9h152.82v-180.9h145.9v501.48ZM580.73,731.07h123.39V252.1h-123.39v180.9h-175.33v-180.9h-123.39v478.97h123.39v-191.95h175.33v191.95Z"/>
          <path class="cls-2" d="M714.92,741.88h-145.9v-191.95h-152.82v191.95h-145.9V240.4h145.9v180.9h152.82v-180.9h145.9v501.48ZM580.28,730.62h123.39V251.65h-123.39v180.9h-175.33v-180.9h-123.39v478.97h123.39v-191.95h175.33v191.95Z"/>
          <path class="cls-2" d="M714.47,741.43h-145.9v-191.95h-152.82v191.95h-145.9V239.95h145.9v180.9h152.82v-180.9h145.9v501.48ZM579.83,730.18h123.39V251.2h-123.39v180.9h-175.33v-180.9h-123.39v478.98h123.39v-191.95h175.33v191.95Z"/>
          <path class="cls-2" d="M714.02,740.98h-145.89v-191.95h-152.83v191.95h-145.9V239.5h145.9v180.91h152.83v-180.91h145.89v501.48ZM579.39,729.73h123.38V250.75h-123.38v180.91h-175.34v-180.91h-123.39v478.98h123.39v-191.95h175.34v191.95Z"/>
          <path class="cls-2" d="M713.59,740.53h-145.9v-191.95h-152.84v191.95h-145.9V239.06h145.9v180.9h152.84v-180.9h145.9v501.48ZM578.94,729.28h123.39V250.31h-123.39v180.9h-175.35v-180.9h-123.39v478.97h123.39v-191.95h175.35v191.95Z"/>
          <path class="cls-2" d="M713.14,740.09h-145.9v-191.95h-152.84v191.95h-145.9V238.61h145.9v180.9h152.84v-180.9h145.9v501.48h0ZM578.5,728.83h123.39V249.86h-123.39v180.9h-175.35v-180.9h-123.39v478.97h123.39v-191.95h175.35v191.94Z"/>
          <path class="cls-2" d="M712.69,739.64h-145.9v-191.95h-152.83v191.95h-145.9V238.15h145.9v180.9h152.83v-180.9h145.9v501.48ZM578.05,728.38h123.39V249.41h-123.39v180.9h-175.34v-180.9h-123.39v478.98h123.39v-191.95h175.34v191.95Z"/>
          <path class="cls-2" d="M712.25,739.19h-145.9v-191.95h-152.84v191.95h-145.9V237.7h145.9v180.91h152.84v-180.91h145.9v501.49ZM577.6,727.94h123.39V248.96h-123.39v180.91h-175.35v-180.91h-123.39v478.98h123.39v-191.95h175.35v191.95Z"/>
          <path class="cls-2" d="M711.8,738.74h-145.89v-191.95h-152.85v191.95h-145.9V237.26h145.9v180.9h152.85v-180.9h145.89v501.48h0ZM577.17,727.49h123.38V248.52h-123.38v180.9h-175.36v-180.9h-123.39v478.97h123.39v-191.95h175.36v191.95Z"/>
          <path class="cls-2" d="M711.36,738.3h-145.9v-191.95h-152.85v191.95h-145.9V236.82h145.9v180.9h152.85v-180.9h145.9v501.48h0ZM576.72,727.04h123.39V248.07h-123.39v180.9h-175.36v-180.9h-123.39v478.97h123.39v-191.95h175.36v191.95h0Z"/>
          <path class="cls-2" d="M710.91,737.85h-145.9v-191.95h-152.85v191.95h-145.9V236.37h145.9v180.9h152.85v-180.9h145.9v501.49h0ZM576.27,726.6h123.39V247.62h-123.39v180.9h-175.36v-180.9h-123.39v478.98h123.39v-191.95h175.36v191.95h0Z"/>
          <path class="cls-2" d="M710.46,737.4h-145.9v-191.95h-152.85v191.95h-145.9V235.92h145.9v180.9h152.85v-180.9h145.9v501.48ZM575.82,726.14h123.39V247.17h-123.39v180.9h-175.36v-180.9h-123.39v478.97h123.39v-191.95h175.36v191.95Z"/>
          <path class="cls-2" d="M710.02,736.95h-145.9v-191.95h-152.85v191.95h-145.9V235.47h145.9v180.9h152.85v-180.9h145.9v501.48h0ZM575.38,725.69h123.39V246.73h-123.39v180.9h-175.36v-180.9h-123.39v478.97h123.39v-191.95h175.36v191.95Z"/>
          <path class="cls-2" d="M709.57,736.5h-145.9v-191.95h-152.85v191.95h-145.9V235.02h145.9v180.9h152.85v-180.9h145.9v501.48ZM574.93,725.25h123.39V246.28h-123.39v180.9h-175.36v-180.9h-123.39v478.97h123.39v-191.95h175.36v191.95Z"/>
          <path class="cls-2" d="M709.13,736.06h-145.9v-191.95h-152.85v191.95h-145.9V234.57h145.9v180.9h152.85v-180.9h145.9v501.48ZM574.49,724.8h123.39V245.83h-123.39v180.9h-175.36v-180.9h-123.39v478.98h123.39v-191.95h175.36v191.95Z"/>
          <path class="cls-2" d="M708.68,735.61h-145.9v-191.95h-152.86v191.95h-145.9V234.12h145.9v180.91h152.86v-180.91h145.9v501.49h0ZM574.04,724.36h123.39V245.38h-123.39v180.91h-175.37v-180.91h-123.39v478.98h123.39v-191.95h175.37v191.95Z"/>
          <path class="cls-2" d="M708.24,735.16h-145.9v-191.95h-152.86v191.95h-145.9V233.68h145.9v180.9h152.86v-180.9h145.9v501.48ZM573.6,723.91h123.39V244.93h-123.39v180.9h-175.37v-180.9h-123.39v478.97h123.39v-191.95h175.37v191.95Z"/>
          <path class="cls-2" d="M707.79,734.71h-145.9v-191.95h-152.86v191.95h-145.9V233.23h145.9v180.9h152.86v-180.9h145.9v501.48ZM573.15,723.46h123.39V244.49h-123.39v180.9h-175.37v-180.9h-123.39v478.97h123.39v-191.95h175.37v191.95Z"/>
          <path class="cls-2" d="M707.34,734.27h-145.9v-191.95h-152.86v191.95h-145.9V232.78h145.9v180.9h152.86v-180.9h145.9v501.49h0ZM572.7,723.01h123.39V244.03h-123.39v180.9h-175.37v-180.9h-123.39v478.98h123.39v-191.95h175.37v191.95h0Z"/>
          <path class="cls-2" d="M706.9,733.82h-145.89v-191.95h-152.87v191.95h-145.9V232.34h145.9v180.9h152.87v-180.9h145.89v501.48ZM572.26,722.56h123.38V243.59h-123.38v180.9h-175.38v-180.9h-123.39v478.98h123.39v-191.95h175.38v191.94Z"/>
          <path class="cls-2" d="M706.46,733.37h-145.9v-191.95h-152.88v191.95h-145.9V231.89h145.9v180.9h152.88v-180.9h145.9v501.48ZM571.82,722.11h123.39V243.14h-123.39v180.9h-175.39v-180.9h-123.39v478.97h123.39v-191.95h175.39v191.94h0Z"/>
          <path class="cls-2" d="M706.01,732.92h-145.9v-191.95h-152.87v191.95h-145.9V231.44h145.9v180.9h152.87v-180.9h145.9v501.48ZM571.37,721.67h123.39V242.69h-123.39v180.9h-175.38v-180.9h-123.39v478.97h123.39v-191.95h175.38v191.95Z"/>
          <path class="cls-2" d="M705.56,732.48h-145.9v-191.95h-152.87v191.95h-145.9V230.99h145.9v180.9h152.87v-180.9h145.9v501.48h0ZM570.92,721.22h123.39V242.25h-123.39v180.9h-175.38v-180.9h-123.39v478.98h123.39v-191.95h175.38v191.95Z"/>
          <path class="cls-2" d="M705.12,732.03h-145.9v-191.95h-152.88v191.95h-145.9V230.54h145.9v180.91h152.88v-180.91h145.9v501.48h0ZM570.48,720.77h123.39V241.8h-123.39v180.91h-175.39v-180.91h-123.39v478.98h123.39v-191.95h175.39v191.95h0Z"/>
          <path class="cls-2" d="M704.67,731.58h-145.89v-191.95h-152.88v191.95h-145.9V230.1h145.9v180.9h152.88v-180.9h145.89v501.48ZM570.03,720.32h123.38V241.35h-123.38v180.9h-175.39v-180.9h-123.39v478.97h123.39v-191.95h175.39v191.95Z"/>
          <path class="cls-2" d="M704.23,731.13h-145.9v-191.95h-152.88v191.95h-145.9V229.65h145.9v180.9h152.88v-180.9h145.9v501.48ZM569.59,719.88h123.39V240.91h-123.39v180.9h-175.39v-180.9h-123.39v478.97h123.39v-191.95h175.39v191.95Z"/>
          <path class="cls-2" d="M703.78,730.68h-145.9v-191.95h-152.88v191.95h-145.9V229.2h145.9v180.9h152.88v-180.9h145.9v501.48ZM569.14,719.43h123.39V240.46h-123.39v180.9h-175.39v-180.9h-123.39v478.97h123.39v-191.95h175.39v191.95Z"/>
          <path class="cls-2" d="M703.34,730.23h-145.9v-191.95h-152.88v191.95h-145.9V228.75h145.9v180.91h152.88v-180.91h145.9v501.48ZM568.7,718.98h123.39V240.01h-123.39v180.91h-175.39v-180.91h-123.39v478.97h123.39v-191.95h175.39v191.95Z"/>
          <path class="cls-2" d="M702.89,729.78h-145.89v-191.95h-152.88v191.95h-145.9V228.3h145.9v180.9h152.88v-180.9h145.9v501.48h0ZM568.25,718.53h123.39V239.56h-123.39v180.9h-175.39v-180.9h-123.39v478.97h123.39v-191.95h175.39v191.95Z"/>
          <path class="cls-2" d="M702.44,729.34h-145.9v-191.95h-152.88v191.95h-145.9V227.86h145.9v180.9h152.88v-180.9h145.9v501.48ZM567.8,718.09h123.39V239.12h-123.39v180.9h-175.39v-180.9h-123.39v478.97h123.39v-191.95h175.39v191.95Z"/>
          <path class="cls-2" d="M702,728.89h-145.9v-191.95h-152.89v191.95h-145.9V227.41h145.9v180.9h152.89v-180.9h145.9v501.48ZM567.36,717.64h123.39V238.66h-123.39v180.9h-175.4v-180.9h-123.39v478.98h123.39v-191.95h175.4v191.95Z"/>
          <path class="cls-2" d="M701.56,728.44h-145.9v-191.95h-152.89v191.95h-145.9V226.96h145.9v180.91h152.89v-180.91h145.9v501.48ZM566.91,717.19h123.39V238.21h-123.39v180.91h-175.4v-180.91h-123.39v478.98h123.39v-191.95h175.4v191.95Z"/>
          <path class="cls-2" d="M701.11,727.99h-145.9v-191.95h-152.9v191.95h-145.9V226.51h145.9v180.9h152.9v-180.9h145.9v501.48ZM566.47,716.74h123.39V237.77h-123.39v180.9h-175.41v-180.9h-123.39v478.97h123.39v-191.95h175.41v191.95Z"/>
          <path class="cls-2" d="M700.66,727.55h-145.9v-191.95h-152.9v191.95h-145.9V226.07h145.9v180.9h152.9v-180.9h145.9v501.48ZM566.02,716.29h123.39V237.33h-123.39v180.9h-175.41v-180.9h-123.39v478.97h123.39v-191.95h175.41v191.95Z"/>
          <path class="cls-2" d="M700.22,727.1h-145.9v-191.95h-152.89v191.95h-145.9V225.62h145.9v180.9h152.89v-180.9h145.9v501.48ZM565.57,715.85h123.39V236.88h-123.39v180.9h-175.4v-180.9h-123.39v478.98h123.39v-191.95h175.4v191.94Z"/>
          <path class="cls-2" d="M699.77,726.65h-145.88v-191.95h-152.91v191.95h-145.9V225.17h145.9v180.91h152.91v-180.91h145.89v501.48h0ZM565.14,715.4h123.38V236.42h-123.38v180.91h-175.42v-180.91h-123.39v478.98h123.39v-191.95h175.42v191.95Z"/>
          <path class="cls-2" d="M699.33,726.2h-145.9v-191.95h-152.91v191.95h-145.9V224.72h145.9v180.9h152.91v-180.9h145.9v501.48ZM564.69,714.95h123.39V235.98h-123.39v180.9h-175.42v-180.9h-123.39v478.97h123.39v-191.95h175.42v191.95Z"/>
          <path class="cls-2" d="M698.88,725.76h-145.9v-191.95h-152.91v191.95h-145.9V224.28h145.9v180.9h152.91v-180.9h145.9v501.48ZM564.24,714.5h123.39V235.53h-123.39v180.9h-175.42v-180.9h-123.39v478.97h123.39v-191.95h175.42v191.95Z"/>
          <path class="cls-2" d="M698.43,725.31h-145.9v-191.95h-152.91v191.95h-145.9V223.83h145.9v180.9h152.91v-180.9h145.9v501.48ZM563.79,714.06h123.39V235.08h-123.39v180.9h-175.42v-180.9h-123.39v478.98h123.39v-191.95h175.42v191.95Z"/>
          <path class="cls-2" d="M697.99,724.86h-145.9v-191.95h-152.91v191.95h-145.9V223.38h145.9v180.91h152.91v-180.91h145.9v501.48ZM563.35,713.61h123.39V234.63h-123.39v180.91h-175.42v-180.91h-123.39v478.98h123.39v-191.95h175.42v191.95Z"/>
          <path class="cls-2" d="M697.54,724.42h-145.89v-191.95h-152.92v191.95h-145.9V222.94h145.9v180.9h152.92v-180.9h145.89v501.48ZM562.91,713.16h123.38V234.19h-123.38v180.9h-175.43v-180.9h-123.39v478.97h123.39v-191.95h175.43v191.95Z"/>
          <path class="cls-2" d="M697.1,723.97h-145.9v-191.95h-152.92v191.95h-145.9V222.49h145.9v180.9h152.92v-180.9h145.9v501.48ZM562.46,712.71h123.39V233.74h-123.39v180.9h-175.43v-180.9h-123.39v478.97h123.39v-191.95h175.43v191.94Z"/>
          <path class="cls-2" d="M696.65,723.52h-145.9v-191.95h-152.91v191.95h-145.9V222.04h145.9v180.9h152.91v-180.9h145.9v501.48ZM562.01,712.26h123.39V233.29h-123.39v180.9h-175.42v-180.9h-123.39v478.97h123.39v-191.95h175.42v191.95Z"/>
          <path class="cls-2" d="M696.21,723.07h-145.9v-191.95h-152.92v191.95h-145.9V221.58h145.9v180.91h152.92v-180.91h145.9v501.49ZM561.57,711.82h123.39V232.84h-123.39v180.91h-175.43v-180.91h-123.39v478.98h123.39v-191.95h175.43v191.95Z"/>
          <path class="cls-2" d="M695.76,722.62h-145.9v-191.95h-152.92v191.95h-145.9V221.14h145.9v180.9h152.92v-180.9h145.9v501.48ZM561.12,711.37h123.39V232.4h-123.39v180.9h-175.43v-180.9h-123.39v478.97h123.39v-191.95h175.43v191.95Z"/>
          <path class="cls-2" d="M695.31,722.18h-145.9v-191.95h-152.92v191.95h-145.9V220.7h145.9v180.9h152.92v-180.9h145.9v501.48ZM560.67,710.92h123.39V231.95h-123.39v180.9h-175.43v-180.9h-123.39v478.97h123.39v-191.95h175.43v191.95Z"/>
          <path class="cls-2" d="M694.87,721.73h-145.89v-191.95h-152.93v191.95h-145.9V220.25h145.9v180.9h152.93v-180.9h145.89v501.48ZM560.23,710.48h123.38V231.5h-123.38v180.9h-175.44v-180.9h-123.39v478.98h123.39v-191.95h175.44v191.95Z"/>
          <path class="cls-2" d="M694.43,721.28h-145.9v-191.95h-152.93v191.95h-145.9V219.8h145.9v180.91h152.93v-180.91h145.9v501.49ZM559.79,710.03h123.39V231.05h-123.39v180.91h-175.44v-180.91h-123.39v478.98h123.39v-191.95h175.44v191.95Z"/>
          <path class="cls-2" d="M693.98,720.83h-145.9v-191.95h-152.94v191.95h-145.9V219.35h145.9v180.9h152.94v-180.9h145.9v501.48ZM559.34,709.57h123.39V230.61h-123.39v180.9h-175.45v-180.9h-123.39v478.97h123.39v-191.95h175.45v191.94Z"/>
          <path class="cls-2" d="M693.53,720.38h-145.9v-191.95h-152.93v191.95h-145.9V218.91h145.9v180.9h152.93v-180.9h145.9v501.48h0ZM558.89,709.13h123.39V230.16h-123.39v180.9h-175.44v-180.9h-123.39v478.97h123.39v-191.95h175.44v191.94Z"/>
          <path class="cls-2" d="M693.08,719.94h-145.9v-191.95h-152.93v191.95h-145.9V218.45h145.9v180.9h152.93v-180.9h145.9v501.48ZM558.45,708.68h123.39V229.71h-123.39v180.9h-175.44v-180.9h-123.39v478.98h123.39v-191.95h175.44v191.95Z"/>
          <path class="cls-2" d="M692.64,719.49h-145.89v-191.95h-152.94v191.95h-145.9V218h145.9v180.91h152.94v-180.91h145.89v501.49h0ZM558,708.24h123.38V229.26h-123.38v180.91h-175.45v-180.91h-123.39v478.98h123.39v-191.95h175.45v191.95h0Z"/>
          <path class="cls-2" d="M692.2,719.04h-145.9v-191.95h-152.94v191.95h-145.9V217.56h145.9v180.9h152.94v-180.9h145.9v501.48h0ZM557.56,707.79h123.39V228.81h-123.39v180.9h-175.45v-180.9h-123.39v478.97h123.39v-191.95h175.45v191.95Z"/>
          <path class="cls-2" d="M691.75,718.59h-145.9v-191.95h-152.95v191.95h-145.9V217.11h145.9v180.9h152.94v-180.9h145.9v501.48h0ZM557.11,707.34h123.39V228.37h-123.39v180.9h-175.45v-180.9h-123.39v478.97h123.39v-191.95h175.45v191.95h0Z"/>
          <path class="cls-2" d="M691.31,718.15h-145.9v-191.95h-152.94v191.95h-145.9V216.66h145.9v180.9h152.94v-180.9h145.9v501.49h0ZM556.66,706.9h123.39V227.92h-123.39v180.9h-175.45v-180.9h-123.39v478.98h123.39v-191.95h175.45v191.95h0Z"/>
          <path class="cls-2" d="M690.86,717.7h-145.9v-191.95h-152.94v191.95h-145.9V216.22h145.9v180.9h152.94v-180.9h145.9v501.48ZM556.22,706.44h123.39V227.47h-123.39v180.9h-175.45v-180.9h-123.39v478.98h123.39v-191.95h175.45v191.94Z"/>
          <path class="cls-2" d="M690.41,717.25h-145.9v-191.95h-152.95v191.95h-145.9V215.77h145.9v180.9h152.95v-180.9h145.9v501.48ZM555.77,705.99h123.39V227.02h-123.39v180.9h-175.46v-180.9h-123.39v478.97h123.39v-191.95h175.46v191.94Z"/>
          <path class="cls-2" d="M689.97,716.8h-145.9v-191.95h-152.95v191.95h-145.9V215.32h145.9v180.9h152.95v-180.9h145.9v501.48ZM555.33,705.55h123.39V226.57h-123.39v180.9h-175.46v-180.9h-123.39v478.97h123.39v-191.95h175.46v191.95Z"/>
          <path class="cls-2" d="M689.52,716.36h-145.9v-191.95h-152.95v191.95h-145.9V214.87h145.9v180.9h152.95v-180.9h145.9v501.48ZM554.88,705.1h123.39V226.13h-123.39v180.9h-175.46v-180.9h-123.39v478.98h123.39v-191.95h175.46v191.95Z"/>
          <path class="cls-2" d="M689.08,715.91h-145.9v-191.95h-152.96v191.95h-145.9V214.42h145.9v180.91h152.96v-180.91h145.9v501.48ZM554.44,704.65h123.39V225.68h-123.39v180.91h-175.46v-180.91h-123.39v478.98h123.39v-191.95h175.46v191.95Z"/>
          <path class="cls-2" d="M688.63,715.46h-145.9v-191.95h-152.96v191.95h-145.9V213.98h145.9v180.9h152.96v-180.9h145.9v501.48ZM553.99,704.2h123.39V225.23h-123.39v180.9h-175.46v-180.9h-123.39v478.97h123.39v-191.95h175.46v191.95Z"/>
          <path class="cls-2" d="M688.18,715.01h-145.9v-191.95h-152.96v191.95h-145.9V213.53h145.9v180.9h152.96v-180.9h145.9v501.48ZM553.54,703.76h123.39V224.79h-123.39v180.9h-175.46v-180.9h-123.39v478.97h123.39v-191.95h175.46v191.95Z"/>
          <path class="cls-2" d="M687.73,714.57h-145.89v-191.95h-152.96v191.95h-145.9V213.08h145.9v180.9h152.96v-180.9h145.89v501.48ZM553.1,703.31h123.38V224.34h-123.38v180.9h-175.47v-180.9h-123.39v478.98h123.39v-191.95h175.47v191.95Z"/>
          <path class="cls-2" d="M687.3,714.11h-145.9v-191.95h-152.96v191.95h-145.9V212.63h145.9v180.9h152.96v-180.9h145.9v501.48ZM552.66,702.86h123.39V223.89h-123.39v180.9h-175.47v-180.9h-123.39v478.98h123.39v-191.95h175.47v191.94Z"/>
          <path class="cls-2" d="M686.85,713.66h-145.9v-191.95h-152.96v191.95h-145.9V212.19h145.9v180.9h152.96v-180.9h145.9v501.48ZM552.21,702.41h123.39V223.44h-123.39v180.9h-175.47v-180.9h-123.39v478.97h123.39v-191.95h175.47v191.94Z"/>
          <path class="cls-2" d="M686.4,713.22h-145.9v-191.95h-152.96v191.95h-145.9V211.74h145.9v180.9h152.96v-180.9h145.9v501.48ZM551.76,701.96h123.39V223h-123.39v180.9h-175.47v-180.9h-123.39v478.97h123.39v-191.95h175.47v191.95Z"/>
          <path class="cls-2" d="M685.96,712.77h-145.9v-191.95h-152.96v191.95h-145.9V211.29h145.9v180.9h152.96v-180.9h145.9v501.48ZM551.31,701.52h123.39V222.54h-123.39v180.9h-175.47v-180.9h-123.39v478.98h123.39v-191.95h175.47v191.95Z"/>
          <path class="cls-2" d="M685.51,712.32h-145.89v-191.95h-152.97v191.95h-145.9V210.84h145.9v180.91h152.97v-180.91h145.89v501.48ZM550.88,701.07h123.38V222.09h-123.38v180.91h-175.48v-180.91h-123.39v478.98h123.39v-191.95h175.48v191.95Z"/>
          <path class="cls-2" d="M685.07,711.87h-145.89v-191.95h-152.98v191.95h-145.9V210.39h145.9v180.9h152.98v-180.9h145.9v501.48h0ZM550.43,700.62h123.39V221.65h-123.39v180.9h-175.49v-180.9h-123.39v478.97h123.39v-191.95h175.49v191.95Z"/>
          <path class="cls-2" d="M684.62,711.43h-145.9v-191.95h-152.98v191.95h-145.9V209.95h145.9v180.9h152.98v-180.9h145.9v501.48ZM549.98,700.18h123.39V221.21h-123.39v180.9h-175.49v-180.9h-123.39v478.97h123.39v-191.95h175.49v191.95Z"/>
          <path class="cls-2" d="M684.17,710.98h-145.9v-191.95h-152.98v191.95h-145.9V209.5h145.9v180.9h152.98v-180.9h145.9v501.48ZM549.54,699.73h123.39V220.76h-123.39v180.9h-175.49v-180.9h-123.39v478.98h123.39v-191.95h175.49v191.94Z"/>
          <path class="cls-2" d="M683.73,710.53h-145.9v-191.95h-152.98v191.95h-145.9V209.05h145.9v180.91h152.98v-180.91h145.9v501.48ZM549.09,699.28h123.39V220.31h-123.39v180.91h-175.49v-180.91h-123.39v478.98h123.39v-191.95h175.49v191.94Z"/>
          <path class="cls-2" d="M683.28,710.08h-145.9v-191.95h-152.98v191.95h-145.9V208.6h145.9v180.9h152.98v-180.9h145.9v501.48ZM548.64,698.83h123.39V219.86h-123.39v180.9h-175.49v-180.9h-123.39v478.97h123.39v-191.95h175.49v191.95Z"/>
          <path class="cls-2" d="M682.84,709.64h-145.9v-191.95h-152.99v191.95h-145.9V208.16h145.9v180.9h152.99v-180.9h145.9v501.48ZM548.2,698.38h123.39V219.41h-123.39v180.9h-175.49v-180.9h-123.39v478.97h123.39v-191.95h175.49v191.95Z"/>
          <path class="cls-2" d="M682.4,709.19h-145.9v-191.95h-152.99v191.95h-145.9V207.71h145.9v180.9h152.99v-180.9h145.9v501.48ZM547.76,697.94h123.39V218.96h-123.39v180.9h-175.49v-180.9h-123.39v478.98h123.39v-191.95h175.49v191.95Z"/>
          <path class="cls-2" d="M681.95,708.74h-145.9v-191.95h-152.99v191.95h-145.9V207.26h145.9v180.91h152.99v-180.91h145.9v501.48ZM547.31,697.49h123.39V218.51h-123.39v180.91h-175.49v-180.91h-123.39v478.98h123.39v-191.95h175.49v191.95Z"/>
          <path class="cls-2" d="M681.5,708.3h-145.9v-191.95h-152.99v191.95h-145.9V206.82h145.9v180.9h152.99v-180.9h145.9v501.48h0ZM546.86,697.04h123.39V218.07h-123.39v180.9h-175.5v-180.9h-123.39v478.97h123.39v-191.95h175.5v191.95h0Z"/>
          <path class="cls-2" d="M681.05,707.85h-145.89v-191.95h-152.99v191.95h-145.9V206.37h145.9v180.9h152.99v-180.9h145.9v501.48h0ZM546.42,696.6h123.39V217.62h-123.39v180.9h-175.5v-180.9h-123.39v478.97h123.39v-191.95h175.5v191.95h0Z"/>
          <path class="cls-2" d="M680.61,707.4h-145.89v-191.95h-152.99v191.95h-145.9V205.92h145.9v180.9h152.99v-180.9h145.89v501.48ZM545.97,696.15h123.38V217.17h-123.38v180.9h-175.5v-180.9h-123.39v478.98h123.39v-191.95h175.5v191.94Z"/>
          <path class="cls-2" d="M680.17,706.95h-145.9v-191.95h-153v191.95h-145.9V205.47h145.9v180.91h153v-180.91h145.9v501.48ZM545.53,695.69h123.39V216.72h-123.39v180.91h-175.51v-180.91h-123.39v478.98h123.39v-191.95h175.51v191.94Z"/>
          <path class="cls-2" d="M679.72,706.5h-145.9v-191.95h-153v191.95h-145.9V205.02h145.9v180.9h153v-180.9h145.9v501.48ZM545.08,695.25h123.39V216.28h-123.39v180.9h-175.51v-180.9h-123.39v478.97h123.39v-191.95h175.51v191.95Z"/>
          <path class="cls-2" d="M679.28,706.06h-145.9v-191.95h-153v191.95h-145.9V204.58h145.9v180.9h153v-180.9h145.9v501.48h0ZM544.63,694.8h123.39V215.83h-123.39v180.9h-175.51v-180.9h-123.39v478.97h123.39v-191.95h175.51v191.95h0Z"/>
          <path class="cls-2" d="M678.83,705.61h-145.9v-191.95h-153v191.95h-145.89V204.13h145.9v180.9h153v-180.9h145.9v501.48h0ZM544.19,694.36h123.39V215.38h-123.39v180.9h-175.51v-180.9h-123.39v478.98h123.39v-191.95h175.51v191.95Z"/>
          <path class="cls-2" d="M678.38,705.16h-145.89v-191.95h-153.01v191.95h-145.9V203.68h145.9v180.91h153.01v-180.91h145.89v501.48ZM543.75,693.91h123.38V214.93h-123.38v180.91h-175.52v-180.91h-123.39v478.98h123.39v-191.95h175.52v191.95Z"/>
          <path class="cls-2" d="M677.94,704.71h-145.9v-191.95h-153.02v191.95h-145.89V203.23h145.9v180.9h153.02v-180.9h145.9v501.48h0ZM543.3,693.46h123.39V214.49h-123.39v180.9h-175.52v-180.9h-123.38v478.97h123.39v-191.95h175.52v191.95h0Z"/>
          <path class="cls-2" d="M677.49,704.26h-145.9v-191.95h-153.01v191.95h-145.9V202.79h145.9v180.89h153.01v-180.89h145.9v501.48ZM542.85,693.01h123.39V214.04h-123.39v180.89h-175.52v-180.89h-123.39v478.97h123.39v-191.95h175.52v191.95Z"/>
          <path class="cls-2" d="M677.05,703.82h-145.9v-191.95h-153.01v191.95h-145.9V202.34h145.9v180.9h153.01v-180.9h145.9v501.48ZM542.41,692.56h123.39V213.59h-123.39v180.9h-175.52v-180.9h-123.39v478.98h123.39v-191.95h175.52v191.94Z"/>
          <path class="cls-2" d="M676.6,703.37h-145.9v-191.95h-153.02v191.95h-145.9V201.88h145.9v180.91h153.02v-180.91h145.9v501.49ZM541.96,692.12h123.39V213.14h-123.39v180.91h-175.52v-180.91h-123.39v478.98h123.39v-191.95h175.52v191.95Z"/>
          <path class="cls-2" d="M676.15,702.92h-145.9v-191.95h-153.02v191.95h-145.9V201.44h145.9v180.9h153.02v-180.9h145.9v501.48ZM541.51,691.67h123.39V212.69h-123.39v180.9h-175.52v-180.9h-123.39v478.97h123.39v-191.95h175.52v191.95Z"/>
          <path class="cls-2" d="M675.71,702.47h-145.9v-191.95h-153.02v191.95h-145.9V200.99h145.9v180.9h153.02v-180.9h145.9v501.48h0ZM541.07,691.22h123.39V212.25h-123.39v180.9h-175.53v-180.9h-123.39v478.97h123.39v-191.95h175.53v191.95Z"/>
          <path class="cls-2" d="M675.27,702.03h-145.9v-191.95h-153.02v191.95h-145.9V200.54h145.9v180.9h153.02v-180.9h145.9v501.49ZM540.63,690.78h123.39V211.8h-123.39v180.9h-175.53v-180.9h-123.39v478.98h123.39v-191.95h175.53v191.95Z"/>
          <path class="cls-2" d="M674.82,701.58h-145.9v-191.95h-153.02v191.95h-145.9V200.1h145.9v180.9h153.02v-180.9h145.9v501.48ZM540.18,690.33h123.39V211.35h-123.39v180.9h-175.53v-180.9h-123.39v478.98h123.39v-191.95h175.53v191.95Z"/>
          <path class="cls-2" d="M674.37,701.13h-145.9v-191.95h-153.03v191.95h-145.9V199.65h145.9v180.9h153.03v-180.9h145.9v501.48ZM539.73,689.87h123.39V210.9h-123.39v180.9h-175.54v-180.9h-123.39v478.97h123.39v-191.95h175.54v191.94Z"/>
          <path class="cls-2" d="M673.93,700.68h-145.9v-191.95h-153.02v191.95h-145.9V199.2h145.9v180.9h153.02v-180.9h145.9v501.48ZM539.28,689.43h123.39V210.46h-123.39v180.9h-175.53v-180.9h-123.39v478.97h123.39v-191.95h175.53v191.94Z"/>
          <path class="cls-2" d="M673.48,700.24h-145.89v-191.95h-153.03v191.95h-145.9V198.75h145.9v180.9h153.03v-180.9h145.89v501.48ZM538.85,688.98h123.38V210.01h-123.38v180.9h-175.54v-180.9h-123.39v478.98h123.39v-191.95h175.54v191.95Z"/>
          <path class="cls-2" d="M673.04,699.79h-145.9v-191.95h-153.04v191.95h-145.9V198.3h145.9v180.9h153.04v-180.9h145.9v501.48ZM538.4,688.53h123.39V209.56h-123.39v180.9h-175.55v-180.9h-123.39v478.98h123.39v-191.95h175.55v191.95Z"/>
          <path class="cls-2" d="M672.59,699.34h-145.9v-191.95h-153.04v191.95h-145.9V197.86h145.9v180.9h153.04v-180.9h145.9v501.48ZM537.95,688.08h123.39V209.11h-123.39v180.9h-175.55v-180.9h-123.39v478.97h123.39v-191.95h175.55v191.95h0Z"/>
          <path class="cls-2" d="M672.14,698.89h-145.9v-191.95h-153.03v191.95h-145.9V197.41h145.9v180.9h153.04v-180.9h145.9v501.48h0ZM537.51,687.64h123.39V208.66h-123.39v180.9h-175.55v-180.9h-123.39v478.97h123.39v-191.95h175.55v191.95h0Z"/>
          <path class="cls-2" d="M671.7,698.45h-145.9v-191.95h-153.04v191.95h-145.89V196.96h145.9v180.9h153.04v-180.9h145.9v501.48h0ZM537.06,687.19h123.39V208.22h-123.39v180.9h-175.55v-180.9h-123.38v478.98h123.39v-191.95h175.55v191.95h0Z"/>
          <path class="cls-2" d="M671.25,698h-145.9v-191.95h-153.04v191.95h-145.9V196.51h145.9v180.9h153.04v-180.9h145.9v501.48ZM536.61,686.74h123.39V207.77h-123.39v180.9h-175.55v-180.9h-123.39v478.98h123.39v-191.95h175.55v191.95Z"/>
          <path class="cls-2" d="M670.81,697.54h-145.9v-191.95h-153.05v191.95h-145.9V196.07h145.9v180.9h153.05v-180.9h145.9v501.48h0ZM536.17,686.29h123.39V207.32h-123.39v180.9h-175.55v-180.9h-123.39v478.97h123.39v-191.95h175.55v191.94h0Z"/>
          <path class="cls-2" d="M670.37,697.1h-145.9v-191.95h-153.05v191.95h-145.9V195.62h145.9v180.9h153.05v-180.9h145.9v501.48ZM535.72,685.84h123.39V206.88h-123.39v180.9h-175.55v-180.9h-123.39v478.97h123.39v-191.95h175.55v191.95Z"/>
          <path class="cls-2" d="M669.92,696.65h-145.9v-191.95h-153.05v191.95h-145.9V195.17h145.9v180.9h153.05v-180.9h145.9v501.48ZM535.28,685.4h123.39V206.43h-123.39v180.9h-175.55v-180.9h-123.39v478.98h123.39v-191.95h175.55v191.95Z"/>
          <path class="cls-2" d="M669.47,696.2h-145.9v-191.95h-153.05v191.95h-145.9V194.72h145.9v180.91h153.05v-180.91h145.9v501.48ZM534.83,684.95h123.39V205.98h-123.39v180.91h-175.56v-180.91h-123.39v478.98h123.39v-191.95h175.56v191.95Z"/>
          <path class="cls-2" d="M669.02,695.75h-145.9v-191.95h-153.05v191.95h-145.9V194.27h145.9v180.9h153.05v-180.9h145.9v501.48ZM534.38,684.5h123.39V205.53h-123.39v180.9h-175.56v-180.9h-123.39v478.97h123.39v-191.95h175.56v191.95Z"/>
          <path class="cls-2" d="M668.58,695.31h-145.89v-191.95h-153.06v191.95h-145.9V193.83h145.9v180.9h153.06v-180.9h145.89v501.48ZM533.94,684.06h123.38V205.09h-123.38v180.9h-175.57v-180.9h-123.39v478.97h123.39v-191.95h175.57v191.95Z"/>
          <path class="cls-2" d="M668.14,694.87h-145.9v-191.95h-153.06v191.95h-145.9V193.38h145.9v180.9h153.06v-180.9h145.9v501.48ZM533.5,683.61h123.39V204.64h-123.39v180.9h-175.57v-180.9h-123.39v478.98h123.39v-191.95h175.57v191.95Z"/>
          <path class="cls-2" d="M667.69,694.41h-145.9v-191.95h-153.06v191.95h-145.9V192.93h145.9v180.91h153.06v-180.91h145.9v501.48ZM533.05,683.16h123.39V204.19h-123.39v180.91h-175.57v-180.91h-123.39v478.98h123.39v-191.95h175.57v191.94Z"/>
          <path class="cls-2" d="M667.24,693.96h-145.9v-191.95h-153.06v191.95h-145.9V192.49h145.9v180.9h153.06v-180.9h145.9v501.48ZM532.6,682.71h123.39V203.74h-123.39v180.9h-175.57v-180.9h-123.39v478.97h123.39v-191.95h175.57v191.94Z"/>
          <path class="cls-2" d="M666.79,693.52h-145.9v-191.95h-153.06v191.95h-145.9V192.04h145.9v180.9h153.06v-180.9h145.9v501.48ZM532.16,682.26h123.39V203.29h-123.39v180.9h-175.57v-180.9h-123.39v478.97h123.39v-191.95h175.57v191.95Z"/>
          <path class="cls-2" d="M666.35,693.07h-145.89v-191.95h-153.07v191.95h-145.9V191.59h145.9v180.9h153.07v-180.9h145.89v501.48ZM531.72,681.82h123.38V202.84h-123.38v180.9h-175.58v-180.9h-123.39v478.98h123.39v-191.95h175.58v191.95Z"/>
          <path class="cls-2" d="M665.91,692.62h-145.9v-191.95h-153.06v191.95h-145.9V191.14h145.9v180.91h153.07v-180.91h145.9v501.48h0ZM531.27,681.37h123.39V202.39h-123.39v180.91h-175.57v-180.91h-123.39v478.98h123.39v-191.95h175.58v191.95h0Z"/>
          <path class="cls-2" d="M665.46,692.18h-145.9v-191.95h-153.08v191.95h-145.9V190.7h145.9v180.9h153.08v-180.9h145.9v501.48ZM530.82,680.92h123.39V201.95h-123.39v180.9h-175.58v-180.9h-123.39v478.97h123.39v-191.95h175.58v191.95Z"/>
          <path class="cls-2" d="M665.02,691.73h-145.9v-191.95h-153.08v191.95h-145.9V190.25h145.9v180.9h153.08v-180.9h145.9v501.48ZM530.37,680.48h123.39V201.5h-123.39v180.9h-175.58v-180.9h-123.39v478.97h123.39v-191.95h175.58v191.95Z"/>
        </g>
        <g>
          <path class="cls-2" d="M716.26,743.22h-145.9v-191.95h-152.9v191.95h-145.9V241.74h145.9v180.9h152.9v-180.9h145.9v501.48ZM581.62,731.97h123.39V253h-123.39v180.9h-175.41v-180.9h-123.39v478.97h123.39v-191.95h175.41v191.95Z"/>
          <path class="cls-2" d="M715.81,742.77h-145.9v-191.95h-152.89v191.95h-145.9V241.29h145.9v180.9h152.89v-180.9h145.9v501.48ZM581.17,731.52h123.39V252.55h-123.39v180.9h-175.4v-180.9h-123.39v478.98h123.39v-191.95h175.4v191.94Z"/>
          <path class="cls-2" d="M715.36,742.32h-145.88v-191.95h-152.91v191.95h-145.9V240.84h145.9v180.91h152.91v-180.91h145.89v501.48h0ZM580.73,731.07h123.38V252.09h-123.38v180.91h-175.42v-180.91h-123.39v478.98h123.39v-191.95h175.42v191.95Z"/>
          <path class="cls-2" d="M714.92,741.87h-145.9v-191.95h-152.91v191.95h-145.9V240.39h145.9v180.9h152.91v-180.9h145.9v501.48ZM580.28,730.62h123.39V251.65h-123.39v180.9h-175.42v-180.9h-123.39v478.97h123.39v-191.95h175.42v191.95Z"/>
          <path class="cls-2" d="M714.47,741.43h-145.9v-191.95h-152.91v191.95h-145.9V239.95h145.9v180.9h152.91v-180.9h145.9v501.48ZM579.83,730.18h123.39V251.2h-123.39v180.9h-175.42v-180.9h-123.39v478.97h123.39v-191.95h175.42v191.95Z"/>
          <path class="cls-2" d="M714.03,740.98h-145.9v-191.95h-152.91v191.95h-145.9V239.5h145.9v180.9h152.91v-180.9h145.9v501.48ZM579.39,729.73h123.39V250.75h-123.39v180.9h-175.42v-180.9h-123.39v478.98h123.39v-191.95h175.42v191.95Z"/>
          <path class="cls-2" d="M713.58,740.53h-145.9v-191.95h-152.91v191.95h-145.9V239.05h145.9v180.91h152.91v-180.91h145.9v501.48ZM578.94,729.28h123.39V250.3h-123.39v180.91h-175.42v-180.91h-123.39v478.98h123.39v-191.95h175.42v191.95Z"/>
          <path class="cls-2" d="M713.14,740.09h-145.89v-191.95h-152.92v191.95h-145.9V238.61h145.9v180.9h152.92v-180.9h145.89v501.48ZM578.5,728.83h123.38V249.86h-123.38v180.9h-175.43v-180.9h-123.39v478.97h123.39v-191.95h175.43v191.95Z"/>
          <path class="cls-2" d="M712.7,739.64h-145.9v-191.95h-152.92v191.95h-145.9V238.16h145.9v180.9h152.92v-180.9h145.9v501.48ZM578.05,728.38h123.39V249.41h-123.39v180.9h-175.43v-180.9h-123.39v478.97h123.39v-191.95h175.43v191.94Z"/>
          <path class="cls-2" d="M712.25,739.19h-145.9v-191.95h-152.91v191.95h-145.9V237.71h145.9v180.9h152.91v-180.9h145.9v501.48ZM577.61,727.94h123.39V248.96h-123.39v180.9h-175.42v-180.9h-123.39v478.97h123.39v-191.95h175.42v191.95Z"/>
          <path class="cls-2" d="M711.8,738.74h-145.9v-191.95h-152.92v191.95h-145.9V237.26h145.9v180.91h152.92v-180.91h145.9v501.49ZM577.16,727.49h123.39V248.51h-123.39v180.91h-175.43v-180.91h-123.39v478.98h123.39v-191.95h175.43v191.95Z"/>
          <path class="cls-2" d="M711.35,738.29h-145.9v-191.95h-152.92v191.95h-145.9V236.81h145.9v180.9h152.92v-180.9h145.9v501.48ZM576.71,727.04h123.39V248.07h-123.39v180.9h-175.43v-180.9h-123.39v478.97h123.39v-191.95h175.43v191.95Z"/>
          <path class="cls-2" d="M710.91,737.85h-145.9v-191.95h-152.92v191.95h-145.9V236.37h145.9v180.9h152.92v-180.9h145.9v501.48ZM576.27,726.59h123.39V247.62h-123.39v180.9h-175.43v-180.9h-123.39v478.97h123.39v-191.95h175.43v191.95Z"/>
          <path class="cls-2" d="M710.46,737.4h-145.89v-191.95h-152.93v191.95h-145.9V235.92h145.9v180.9h152.93v-180.9h145.89v501.48ZM575.83,726.15h123.38V247.17h-123.38v180.9h-175.44v-180.9h-123.39v478.98h123.39v-191.95h175.44v191.95Z"/>
          <path class="cls-2" d="M710.02,736.95h-145.9v-191.95h-152.93v191.95h-145.9V235.47h145.9v180.91h152.93v-180.91h145.9v501.49ZM575.38,725.7h123.39V246.72h-123.39v180.91h-175.44v-180.91h-123.39v478.98h123.39v-191.95h175.44v191.95Z"/>
          <path class="cls-2" d="M709.57,736.5h-145.9v-191.95h-152.94v191.95h-145.9V235.02h145.9v180.9h152.94v-180.9h145.9v501.48ZM574.93,725.25h123.39V246.28h-123.39v180.9h-175.45v-180.9h-123.39v478.97h123.39v-191.95h175.45v191.94Z"/>
          <path class="cls-2" d="M709.13,736.05h-145.9v-191.95h-152.93v191.95h-145.9V234.58h145.9v180.9h152.93v-180.9h145.9v501.48h0ZM574.49,724.8h123.39V245.83h-123.39v180.9h-175.44v-180.9h-123.39v478.97h123.39v-191.95h175.44v191.94Z"/>
          <path class="cls-2" d="M708.68,735.61h-145.9v-191.95h-152.93v191.95h-145.9V234.12h145.9v180.9h152.93v-180.9h145.9v501.48ZM574.04,724.35h123.39V245.38h-123.39v180.9h-175.44v-180.9h-123.39v478.98h123.39v-191.95h175.44v191.95Z"/>
          <path class="cls-2" d="M708.23,735.16h-145.89v-191.95h-152.94v191.95h-145.9V233.67h145.9v180.91h152.94v-180.91h145.89v501.49h0ZM573.6,723.91h123.38V244.93h-123.38v180.91h-175.45v-180.91h-123.39v478.98h123.39v-191.95h175.45v191.95h0Z"/>
          <path class="cls-2" d="M707.79,734.71h-145.9v-191.95h-152.94v191.95h-145.9V233.23h145.9v180.9h152.94v-180.9h145.9v501.48h0ZM573.15,723.46h123.39V244.49h-123.39v180.9h-175.45v-180.9h-123.39v478.97h123.39v-191.95h175.45v191.95Z"/>
          <path class="cls-2" d="M707.35,734.26h-145.9v-191.95h-152.95v191.95h-145.9V232.78h145.9v180.9h152.94v-180.9h145.9v501.48h0ZM572.71,723.01h123.39V244.04h-123.39v180.9h-175.45v-180.9h-123.39v478.97h123.39v-191.95h175.45v191.95h0Z"/>
          <path class="cls-2" d="M706.9,733.82h-145.9v-191.95h-152.94v191.95h-145.9V232.33h145.9v180.9h152.94v-180.9h145.9v501.49h0ZM572.26,722.57h123.39V243.59h-123.39v180.9h-175.45v-180.9h-123.39v478.98h123.39v-191.95h175.45v191.95h0Z"/>
          <path class="cls-2" d="M706.45,733.37h-145.9v-191.95h-152.94v191.95h-145.9V231.89h145.9v180.9h152.94v-180.9h145.9v501.48ZM571.81,722.11h123.39V243.14h-123.39v180.9h-175.45v-180.9h-123.39v478.98h123.39v-191.95h175.45v191.94Z"/>
          <path class="cls-2" d="M706,732.92h-145.9v-191.95h-152.95v191.95h-145.9V231.44h145.9v180.9h152.95v-180.9h145.9v501.48ZM571.37,721.66h123.39V242.7h-123.39v180.9h-175.46v-180.9h-123.39v478.97h123.39v-191.95h175.46v191.94Z"/>
          <path class="cls-2" d="M705.57,732.47h-145.9v-191.95h-152.95v191.95h-145.9V230.99h145.9v180.9h152.95v-180.9h145.9v501.48ZM570.92,721.22h123.39V242.25h-123.39v180.9h-175.46v-180.9h-123.39v478.97h123.39v-191.95h175.46v191.95Z"/>
          <path class="cls-2" d="M705.12,732.03h-145.9v-191.95h-152.95v191.95h-145.9V230.55h145.9v180.9h152.95v-180.9h145.9v501.48ZM570.48,720.77h123.39V241.8h-123.39v180.9h-175.46v-180.9h-123.39v478.98h123.39v-191.95h175.46v191.95Z"/>
          <path class="cls-2" d="M704.67,731.58h-145.9v-191.95h-152.96v191.95h-145.9V230.09h145.9v180.91h152.96v-180.91h145.9v501.48ZM570.03,720.32h123.39V241.35h-123.39v180.91h-175.46v-180.91h-123.39v478.98h123.39v-191.95h175.46v191.95Z"/>
          <path class="cls-2" d="M704.23,731.13h-145.9v-191.95h-152.96v191.95h-145.9V229.65h145.9v180.9h152.96v-180.9h145.9v501.48ZM569.58,719.87h123.39V240.9h-123.39v180.9h-175.46v-180.9h-123.39v478.97h123.39v-191.95h175.46v191.95Z"/>
          <path class="cls-2" d="M703.78,730.69h-145.9v-191.95h-152.96v191.95h-145.9V229.21h145.9v180.9h152.96v-180.9h145.9v501.48ZM569.14,719.43h123.39V240.46h-123.39v180.9h-175.46v-180.9h-123.39v478.97h123.39v-191.95h175.46v191.95Z"/>
          <path class="cls-2" d="M703.33,730.24h-145.89v-191.95h-152.96v191.95h-145.9V228.76h145.9v180.9h152.96v-180.9h145.89v501.48ZM568.7,718.99h123.38V240.01h-123.38v180.9h-175.47v-180.9h-123.39v478.98h123.39v-191.95h175.47v191.95Z"/>
          <path class="cls-2" d="M702.89,729.79h-145.9v-191.95h-152.96v191.95h-145.9V228.31h145.9v180.9h152.96v-180.9h145.9v501.48ZM568.25,718.53h123.39V239.56h-123.39v180.9h-175.47v-180.9h-123.39v478.98h123.39v-191.95h175.47v191.94Z"/>
          <path class="cls-2" d="M702.44,729.34h-145.9v-191.95h-152.96v191.95h-145.9V227.86h145.9v180.9h152.96v-180.9h145.9v501.48ZM567.8,718.08h123.39V239.11h-123.39v180.9h-175.47v-180.9h-123.39v478.97h123.39v-191.95h175.47v191.94Z"/>
          <path class="cls-2" d="M702,728.89h-145.9v-191.95h-152.96v191.95h-145.9V227.41h145.9v180.9h152.96v-180.9h145.9v501.48ZM567.36,717.63h123.39V238.67h-123.39v180.9h-175.47v-180.9h-123.39v478.97h123.39v-191.95h175.47v191.95Z"/>
          <path class="cls-2" d="M701.55,728.45h-145.9v-191.95h-152.96v191.95h-145.9V226.96h145.9v180.9h152.96v-180.9h145.9v501.48ZM566.91,717.19h123.39V238.22h-123.39v180.9h-175.47v-180.9h-123.39v478.98h123.39v-191.95h175.47v191.95Z"/>
          <path class="cls-2" d="M701.1,728h-145.89v-191.95h-152.97v191.95h-145.9V226.51h145.9v180.91h152.97v-180.91h145.89v501.48ZM566.47,716.74h123.38V237.77h-123.38v180.91h-175.48v-180.91h-123.39v478.98h123.39v-191.95h175.48v191.95Z"/>
          <path class="cls-2" d="M700.66,727.55h-145.89v-191.95h-152.98v191.95h-145.9V226.07h145.9v180.9h152.98v-180.9h145.9v501.48h0ZM566.02,716.29h123.39V237.32h-123.39v180.9h-175.49v-180.9h-123.39v478.97h123.39v-191.95h175.49v191.95Z"/>
          <path class="cls-2" d="M700.22,727.1h-145.9v-191.95h-152.98v191.95h-145.9V225.62h145.9v180.9h152.98v-180.9h145.9v501.48ZM565.58,715.85h123.39V236.88h-123.39v180.9h-175.49v-180.9h-123.39v478.97h123.39v-191.95h175.49v191.95Z"/>
          <path class="cls-2" d="M699.77,726.65h-145.9v-191.95h-152.98v191.95h-145.9V225.17h145.9v180.9h152.98v-180.9h145.9v501.48ZM565.13,715.4h123.39V236.43h-123.39v180.9h-175.49v-180.9h-123.39v478.98h123.39v-191.95h175.49v191.94Z"/>
          <path class="cls-2" d="M699.32,726.2h-145.9v-191.95h-152.98v191.95h-145.9V224.72h145.9v180.91h152.98v-180.91h145.9v501.48ZM564.68,714.95h123.39V235.98h-123.39v180.91h-175.49v-180.91h-123.39v478.98h123.39v-191.95h175.49v191.94Z"/>
          <path class="cls-2" d="M698.88,725.75h-145.9v-191.95h-152.98v191.95h-145.9V224.27h145.9v180.9h152.98v-180.9h145.9v501.48ZM564.23,714.5h123.39V235.53h-123.39v180.9h-175.49v-180.9h-123.39v478.97h123.39v-191.95h175.49v191.95Z"/>
          <path class="cls-2" d="M698.44,725.31h-145.9v-191.95h-152.99v191.95h-145.9V223.83h145.9v180.9h152.99v-180.9h145.9v501.48ZM563.8,714.06h123.39V235.08h-123.39v180.9h-175.49v-180.9h-123.39v478.97h123.39v-191.95h175.49v191.95Z"/>
          <path class="cls-2" d="M697.99,724.86h-145.9v-191.95h-152.99v191.95h-145.9V223.38h145.9v180.9h152.99v-180.9h145.9v501.48ZM563.35,713.61h123.39V234.63h-123.39v180.9h-175.49v-180.9h-123.39v478.98h123.39v-191.95h175.49v191.95Z"/>
          <path class="cls-2" d="M697.54,724.41h-145.9v-191.95h-152.99v191.95h-145.9V222.93h145.9v180.91h152.99v-180.91h145.9v501.48ZM562.9,713.16h123.39V234.18h-123.39v180.91h-175.49v-180.91h-123.39v478.98h123.39v-191.95h175.49v191.95Z"/>
          <path class="cls-2" d="M697.09,723.97h-145.9v-191.95h-152.99v191.95h-145.9V222.49h145.9v180.9h152.99v-180.9h145.9v501.48h0ZM562.46,712.71h123.39V233.74h-123.39v180.9h-175.5v-180.9h-123.39v478.97h123.39v-191.95h175.5v191.95h0Z"/>
          <path class="cls-2" d="M696.65,723.52h-145.89v-191.95h-152.99v191.95h-145.9V222.04h145.9v180.9h152.99v-180.9h145.9v501.48h0ZM562.01,712.27h123.39V233.3h-123.39v180.9h-175.5v-180.9h-123.39v478.97h123.39v-191.95h175.5v191.95h0Z"/>
          <path class="cls-2" d="M696.2,723.07h-145.89v-191.95h-152.99v191.95h-145.9V221.59h145.9v180.9h152.99v-180.9h145.89v501.48ZM561.57,711.82h123.38V232.84h-123.38v180.9h-175.5v-180.9h-123.39v478.98h123.39v-191.95h175.5v191.94Z"/>
          <path class="cls-2" d="M695.76,722.62h-145.9v-191.95h-153v191.95h-145.9V221.14h145.9v180.91h153v-180.91h145.9v501.48ZM561.12,711.37h123.39V232.39h-123.39v180.91h-175.51v-180.91h-123.39v478.98h123.39v-191.95h175.51v191.94Z"/>
          <path class="cls-2" d="M695.32,722.17h-145.9v-191.95h-153v191.95h-145.9V220.69h145.9v180.9h153v-180.9h145.9v501.48ZM560.67,710.92h123.39V231.95h-123.39v180.9h-175.51v-180.9h-123.39v478.97h123.39v-191.95h175.51v191.95Z"/>
          <path class="cls-2" d="M694.87,721.73h-145.9v-191.95h-153v191.95h-145.9V220.25h145.9v180.9h153v-180.9h145.9v501.48h0ZM560.23,710.47h123.39V231.5h-123.39v180.9h-175.51v-180.9h-123.39v478.97h123.39v-191.95h175.51v191.95h0Z"/>
          <path class="cls-2" d="M694.42,721.28h-145.9v-191.95h-153v191.95h-145.89V219.8h145.9v180.9h153v-180.9h145.9v501.48h0ZM559.78,710.03h123.39V231.05h-123.39v180.9h-175.51v-180.9h-123.39v478.98h123.39v-191.95h175.51v191.95Z"/>
          <path class="cls-2" d="M693.97,720.83h-145.89v-191.95h-153.01v191.95h-145.9V219.35h145.9v180.91h153.01v-180.91h145.89v501.48ZM559.34,709.58h123.38V230.6h-123.38v180.91h-175.52v-180.91h-123.39v478.98h123.39v-191.95h175.52v191.95Z"/>
          <path class="cls-2" d="M693.53,720.38h-145.9v-191.95h-153.02v191.95h-145.89V218.9h145.9v180.9h153.02v-180.9h145.9v501.48h0ZM558.89,709.13h123.39V230.16h-123.39v180.9h-175.52v-180.9h-123.38v478.97h123.39v-191.95h175.52v191.95h0Z"/>
          <path class="cls-2" d="M693.09,719.93h-145.9v-191.95h-153.01v191.95h-145.9V218.46h145.9v180.89h153.01v-180.89h145.9v501.48ZM558.45,708.68h123.39V229.71h-123.39v180.89h-175.52v-180.89h-123.39v478.97h123.39v-191.95h175.52v191.95Z"/>
          <path class="cls-2" d="M692.64,719.49h-145.9v-191.95h-153.01v191.95h-145.9V218.01h145.9v180.9h153.01v-180.9h145.9v501.48ZM558,708.23h123.39V229.26h-123.39v180.9h-175.52v-180.9h-123.39v478.98h123.39v-191.95h175.52v191.94Z"/>
          <path class="cls-2" d="M692.2,719.04h-145.9v-191.95h-153.02v191.95h-145.9V217.55h145.9v180.91h153.02v-180.91h145.9v501.49ZM557.55,707.79h123.39V228.81h-123.39v180.91h-175.52v-180.91h-123.39v478.98h123.39v-191.95h175.52v191.95Z"/>
          <path class="cls-2" d="M691.75,718.59h-145.9v-191.95h-153.02v191.95h-145.9V217.11h145.9v180.9h153.02v-180.9h145.9v501.48ZM557.11,707.34h123.39V228.37h-123.39v180.9h-175.52v-180.9h-123.39v478.97h123.39v-191.95h175.52v191.95Z"/>
          <path class="cls-2" d="M691.31,718.14h-145.9v-191.95h-153.02v191.95h-145.9V216.67h145.9v180.9h153.02v-180.9h145.9v501.48h0ZM556.67,706.89h123.39V227.92h-123.39v180.9h-175.53v-180.9h-123.39v478.97h123.39v-191.95h175.53v191.95Z"/>
          <path class="cls-2" d="M690.86,717.7h-145.9v-191.95h-153.02v191.95h-145.9V216.21h145.9v180.9h153.02v-180.9h145.9v501.49ZM556.22,706.45h123.39V227.47h-123.39v180.9h-175.53v-180.9h-123.39v478.98h123.39v-191.95h175.53v191.95Z"/>
          <path class="cls-2" d="M690.41,717.25h-145.9v-191.95h-153.02v191.95h-145.9V215.77h145.9v180.9h153.02v-180.9h145.9v501.48ZM555.77,706h123.39V227.02h-123.39v180.9h-175.53v-180.9h-123.39v478.98h123.39v-191.95h175.53v191.95Z"/>
          <path class="cls-2" d="M689.97,716.8h-145.9v-191.95h-153.03v191.95h-145.9V215.32h145.9v180.9h153.03v-180.9h145.9v501.48ZM555.33,705.54h123.39V226.58h-123.39v180.9h-175.54v-180.9h-123.39v478.97h123.39v-191.95h175.54v191.94Z"/>
          <path class="cls-2" d="M689.52,716.35h-145.9v-191.95h-153.02v191.95h-145.9V214.88h145.9v180.9h153.02v-180.9h145.9v501.48ZM554.88,705.1h123.39V226.13h-123.39v180.9h-175.53v-180.9h-123.39v478.97h123.39v-191.95h175.53v191.94Z"/>
          <path class="cls-2" d="M689.07,715.91h-145.89v-191.95h-153.03v191.95h-145.9V214.43h145.9v180.9h153.03v-180.9h145.89v501.48ZM554.44,704.65h123.38V225.68h-123.38v180.9h-175.54v-180.9h-123.39v478.98h123.39v-191.95h175.54v191.95Z"/>
          <path class="cls-2" d="M688.63,715.46h-145.9v-191.95h-153.04v191.95h-145.9V213.98h145.9v180.9h153.04v-180.9h145.9v501.48ZM553.99,704.2h123.39V225.23h-123.39v180.9h-175.55v-180.9h-123.39v478.98h123.39v-191.95h175.55v191.95Z"/>
          <path class="cls-2" d="M688.18,715.01h-145.9v-191.95h-153.04v191.95h-145.9V213.53h145.9v180.9h153.04v-180.9h145.9v501.48ZM553.55,703.75h123.39V224.78h-123.39v180.9h-175.55v-180.9h-123.39v478.97h123.39v-191.95h175.55v191.95h0Z"/>
          <path class="cls-2" d="M687.74,714.56h-145.9v-191.95h-153.03v191.95h-145.9V213.08h145.9v180.9h153.04v-180.9h145.9v501.48h0ZM553.1,703.31h123.39V224.34h-123.39v180.9h-175.55v-180.9h-123.39v478.97h123.39v-191.95h175.55v191.95h0Z"/>
          <path class="cls-2" d="M687.29,714.12h-145.9v-191.95h-153.04v191.95h-145.89V212.64h145.9v180.9h153.04v-180.9h145.9v501.48h0ZM552.65,702.87h123.39V223.89h-123.39v180.9h-175.55v-180.9h-123.38v478.98h123.39v-191.95h175.55v191.95h0Z"/>
          <path class="cls-2" d="M686.85,713.67h-145.9v-191.95h-153.04v191.95h-145.9V212.19h145.9v180.9h153.04v-180.9h145.9v501.48ZM552.2,702.42h123.39V223.44h-123.39v180.9h-175.55v-180.9h-123.39v478.98h123.39v-191.95h175.55v191.95Z"/>
          <path class="cls-2" d="M686.41,713.22h-145.9v-191.95h-153.05v191.95h-145.9V211.74h145.9v180.9h153.05v-180.9h145.9v501.48h0ZM551.77,701.96h123.39V222.99h-123.39v180.9h-175.55v-180.9h-123.39v478.97h123.39v-191.95h175.55v191.94h0Z"/>
          <path class="cls-2" d="M685.96,712.77h-145.9v-191.95h-153.05v191.95h-145.9V211.29h145.9v180.9h153.05v-180.9h145.9v501.48ZM551.32,701.51h123.39V222.55h-123.39v180.9h-175.55v-180.9h-123.39v478.97h123.39v-191.95h175.55v191.95Z"/>
          <path class="cls-2" d="M685.51,712.33h-145.9v-191.95h-153.05v191.95h-145.9V210.84h145.9v180.9h153.05v-180.9h145.9v501.48ZM550.87,701.07h123.39V222.1h-123.39v180.9h-175.55v-180.9h-123.39v478.98h123.39v-191.95h175.55v191.95Z"/>
          <path class="cls-2" d="M685.06,711.88h-145.9v-191.95h-153.05v191.95h-145.9V210.39h145.9v180.91h153.05v-180.91h145.9v501.48ZM550.43,700.62h123.39V221.65h-123.39v180.91h-175.56v-180.91h-123.39v478.98h123.39v-191.95h175.56v191.95Z"/>
          <path class="cls-2" d="M684.62,711.43h-145.9v-191.95h-153.05v191.95h-145.9V209.95h145.9v180.9h153.05v-180.9h145.9v501.48ZM549.98,700.17h123.39V221.2h-123.39v180.9h-175.56v-180.9h-123.39v478.97h123.39v-191.95h175.56v191.95Z"/>
          <path class="cls-2" d="M684.17,710.98h-145.89v-191.95h-153.06v191.95h-145.9V209.5h145.9v180.9h153.06v-180.9h145.89v501.48ZM549.54,699.73h123.38V220.76h-123.38v180.9h-175.57v-180.9h-123.39v478.97h123.39v-191.95h175.57v191.95Z"/>
          <path class="cls-2" d="M683.73,710.54h-145.9v-191.95h-153.06v191.95h-145.9V209.05h145.9v180.9h153.06v-180.9h145.9v501.48ZM549.09,699.28h123.39V220.31h-123.39v180.9h-175.57v-180.9h-123.39v478.98h123.39v-191.95h175.57v191.95Z"/>
          <path class="cls-2" d="M683.29,710.08h-145.9v-191.95h-153.06v191.95h-145.9V208.6h145.9v180.91h153.06v-180.91h145.9v501.48ZM548.64,698.83h123.39V219.86h-123.39v180.91h-175.57v-180.91h-123.39v478.98h123.39v-191.95h175.57v191.94Z"/>
          <path class="cls-2" d="M682.84,709.63h-145.9v-191.95h-153.06v191.95h-145.9V208.16h145.9v180.9h153.06v-180.9h145.9v501.48ZM548.2,698.38h123.39V219.41h-123.39v180.9h-175.57v-180.9h-123.39v478.97h123.39v-191.95h175.57v191.94Z"/>
          <path class="cls-2" d="M682.39,709.19h-145.9v-191.95h-153.06v191.95h-145.9V207.71h145.9v180.9h153.06v-180.9h145.9v501.48ZM547.75,697.94h123.39V218.96h-123.39v180.9h-175.57v-180.9h-123.39v478.97h123.39v-191.95h175.57v191.95Z"/>
          <path class="cls-2" d="M681.94,708.74h-145.89v-191.95h-153.07v191.95h-145.9V207.26h145.9v180.9h153.07v-180.9h145.89v501.48ZM547.31,697.49h123.38V218.51h-123.38v180.9h-175.58v-180.9h-123.39v478.98h123.39v-191.95h175.58v191.95Z"/>
          <path class="cls-2" d="M681.5,708.29h-145.9v-191.95h-153.06v191.95h-145.9V206.81h145.9v180.91h153.07v-180.91h145.9v501.48h0ZM546.86,697.04h123.39V218.06h-123.39v180.91h-175.57v-180.91h-123.39v478.98h123.39v-191.95h175.58v191.95h0Z"/>
          <path class="cls-2" d="M681.06,707.85h-145.9v-191.95h-153.08v191.95h-145.9V206.37h145.9v180.9h153.08v-180.9h145.9v501.48ZM546.42,696.59h123.39V217.62h-123.39v180.9h-175.58v-180.9h-123.39v478.97h123.39v-191.95h175.58v191.95Z"/>
          <path class="cls-2" d="M680.61,707.4h-145.9v-191.95h-153.08v191.95h-145.9V205.92h145.9v180.9h153.08v-180.9h145.9v501.48ZM545.97,696.15h123.39V217.18h-123.39v180.9h-175.58v-180.9h-123.39v478.97h123.39v-191.95h175.58v191.95Z"/>
        </g>
        <path class="cls-1" d="M692.81,229.46v490.23h-134.64v-191.95h-164.33v191.95h-134.64V229.46h134.64v180.9h164.33v-180.9h134.64Z"/>
        <path class="cls-3" d="M694.69,721.56h-138.39v-191.95h-160.58v191.95h-138.4V227.58h138.4v180.9h160.58v-180.9h138.39v493.98ZM560.04,717.81h130.89V231.33h-130.89v180.9h-168.08v-180.9h-130.9v486.47h130.9v-191.95h168.08v191.95Z"/>
        <g class="cls-5">
          <path class="cls-2" d="M716.26,743.22h-145.9v-191.95h-152.9v191.95h-145.9V241.74h145.9v180.9h152.9v-180.9h145.9v501.48ZM581.62,731.97h123.39V253h-123.39v180.9h-175.41v-180.9h-123.39v478.97h123.39v-191.95h175.41v191.95Z"/>
          <path class="cls-2" d="M715.81,742.77h-145.9v-191.95h-152.89v191.95h-145.9V241.29h145.9v180.9h152.89v-180.9h145.9v501.48ZM581.17,731.52h123.39V252.55h-123.39v180.9h-175.4v-180.9h-123.39v478.98h123.39v-191.95h175.4v191.94Z"/>
          <path class="cls-2" d="M715.36,742.32h-145.88v-191.95h-152.91v191.95h-145.9V240.84h145.9v180.91h152.91v-180.91h145.89v501.48h0ZM580.73,731.07h123.38V252.09h-123.38v180.91h-175.42v-180.91h-123.39v478.98h123.39v-191.95h175.42v191.95Z"/>
          <path class="cls-2" d="M714.92,741.87h-145.9v-191.95h-152.91v191.95h-145.9V240.39h145.9v180.9h152.91v-180.9h145.9v501.48ZM580.28,730.62h123.39V251.65h-123.39v180.9h-175.42v-180.9h-123.39v478.97h123.39v-191.95h175.42v191.95Z"/>
          <path class="cls-2" d="M714.47,741.43h-145.9v-191.95h-152.91v191.95h-145.9V239.95h145.9v180.9h152.91v-180.9h145.9v501.48ZM579.83,730.18h123.39V251.2h-123.39v180.9h-175.42v-180.9h-123.39v478.97h123.39v-191.95h175.42v191.95Z"/>
          <path class="cls-2" d="M714.03,740.98h-145.9v-191.95h-152.91v191.95h-145.9V239.5h145.9v180.9h152.91v-180.9h145.9v501.48ZM579.39,729.73h123.39V250.75h-123.39v180.9h-175.42v-180.9h-123.39v478.98h123.39v-191.95h175.42v191.95Z"/>
          <path class="cls-2" d="M713.58,740.53h-145.9v-191.95h-152.91v191.95h-145.9V239.05h145.9v180.91h152.91v-180.91h145.9v501.48ZM578.94,729.28h123.39V250.3h-123.39v180.91h-175.42v-180.91h-123.39v478.98h123.39v-191.95h175.42v191.95Z"/>
          <path class="cls-2" d="M713.14,740.09h-145.89v-191.95h-152.92v191.95h-145.9V238.61h145.9v180.9h152.92v-180.9h145.89v501.48ZM578.5,728.83h123.38V249.86h-123.38v180.9h-175.43v-180.9h-123.39v478.97h123.39v-191.95h175.43v191.95Z"/>
          <path class="cls-2" d="M712.7,739.64h-145.9v-191.95h-152.92v191.95h-145.9V238.16h145.9v180.9h152.92v-180.9h145.9v501.48ZM578.05,728.38h123.39V249.41h-123.39v180.9h-175.43v-180.9h-123.39v478.97h123.39v-191.95h175.43v191.94Z"/>
          <path class="cls-2" d="M712.25,739.19h-145.9v-191.95h-152.91v191.95h-145.9V237.71h145.9v180.9h152.91v-180.9h145.9v501.48ZM577.61,727.94h123.39V248.96h-123.39v180.9h-175.42v-180.9h-123.39v478.97h123.39v-191.95h175.42v191.95Z"/>
          <path class="cls-2" d="M711.8,738.74h-145.9v-191.95h-152.92v191.95h-145.9V237.26h145.9v180.91h152.92v-180.91h145.9v501.49ZM577.16,727.49h123.39V248.51h-123.39v180.91h-175.43v-180.91h-123.39v478.98h123.39v-191.95h175.43v191.95Z"/>
          <path class="cls-2" d="M711.35,738.29h-145.9v-191.95h-152.92v191.95h-145.9V236.81h145.9v180.9h152.92v-180.9h145.9v501.48ZM576.71,727.04h123.39V248.07h-123.39v180.9h-175.43v-180.9h-123.39v478.97h123.39v-191.95h175.43v191.95Z"/>
          <path class="cls-2" d="M710.91,737.85h-145.9v-191.95h-152.92v191.95h-145.9V236.37h145.9v180.9h152.92v-180.9h145.9v501.48ZM576.27,726.59h123.39V247.62h-123.39v180.9h-175.43v-180.9h-123.39v478.97h123.39v-191.95h175.43v191.95Z"/>
          <path class="cls-2" d="M710.46,737.4h-145.89v-191.95h-152.93v191.95h-145.9V235.92h145.9v180.9h152.93v-180.9h145.89v501.48ZM575.83,726.15h123.38V247.17h-123.38v180.9h-175.44v-180.9h-123.39v478.98h123.39v-191.95h175.44v191.95Z"/>
          <path class="cls-2" d="M710.02,736.95h-145.9v-191.95h-152.93v191.95h-145.9V235.47h145.9v180.91h152.93v-180.91h145.9v501.49ZM575.38,725.7h123.39V246.72h-123.39v180.91h-175.44v-180.91h-123.39v478.98h123.39v-191.95h175.44v191.95Z"/>
          <path class="cls-2" d="M709.57,736.5h-145.9v-191.95h-152.94v191.95h-145.9V235.02h145.9v180.9h152.94v-180.9h145.9v501.48ZM574.93,725.25h123.39V246.28h-123.39v180.9h-175.45v-180.9h-123.39v478.97h123.39v-191.95h175.45v191.94Z"/>
          <path class="cls-2" d="M709.13,736.05h-145.9v-191.95h-152.93v191.95h-145.9V234.58h145.9v180.9h152.93v-180.9h145.9v501.48h0ZM574.49,724.8h123.39V245.83h-123.39v180.9h-175.44v-180.9h-123.39v478.97h123.39v-191.95h175.44v191.94Z"/>
          <path class="cls-2" d="M708.68,735.61h-145.9v-191.95h-152.93v191.95h-145.9V234.12h145.9v180.9h152.93v-180.9h145.9v501.48ZM574.04,724.35h123.39V245.38h-123.39v180.9h-175.44v-180.9h-123.39v478.98h123.39v-191.95h175.44v191.95Z"/>
          <path class="cls-2" d="M708.23,735.16h-145.89v-191.95h-152.94v191.95h-145.9V233.67h145.9v180.91h152.94v-180.91h145.89v501.49h0ZM573.6,723.91h123.38V244.93h-123.38v180.91h-175.45v-180.91h-123.39v478.98h123.39v-191.95h175.45v191.95h0Z"/>
          <path class="cls-2" d="M707.79,734.71h-145.9v-191.95h-152.94v191.95h-145.9V233.23h145.9v180.9h152.94v-180.9h145.9v501.48h0ZM573.15,723.46h123.39V244.49h-123.39v180.9h-175.45v-180.9h-123.39v478.97h123.39v-191.95h175.45v191.95Z"/>
          <path class="cls-2" d="M707.35,734.26h-145.9v-191.95h-152.95v191.95h-145.9V232.78h145.9v180.9h152.94v-180.9h145.9v501.48h0ZM572.71,723.01h123.39V244.04h-123.39v180.9h-175.45v-180.9h-123.39v478.97h123.39v-191.95h175.45v191.95h0Z"/>
          <path class="cls-2" d="M706.9,733.82h-145.9v-191.95h-152.94v191.95h-145.9V232.33h145.9v180.9h152.94v-180.9h145.9v501.49h0ZM572.26,722.57h123.39V243.59h-123.39v180.9h-175.45v-180.9h-123.39v478.98h123.39v-191.95h175.45v191.95h0Z"/>
          <path class="cls-2" d="M706.45,733.37h-145.9v-191.95h-152.94v191.95h-145.9V231.89h145.9v180.9h152.94v-180.9h145.9v501.48ZM571.81,722.11h123.39V243.14h-123.39v180.9h-175.45v-180.9h-123.39v478.98h123.39v-191.95h175.45v191.94Z"/>
          <path class="cls-2" d="M706,732.92h-145.9v-191.95h-152.95v191.95h-145.9V231.44h145.9v180.9h152.95v-180.9h145.9v501.48ZM571.37,721.66h123.39V242.7h-123.39v180.9h-175.46v-180.9h-123.39v478.97h123.39v-191.95h175.46v191.94Z"/>
          <path class="cls-2" d="M705.57,732.47h-145.9v-191.95h-152.95v191.95h-145.9V230.99h145.9v180.9h152.95v-180.9h145.9v501.48ZM570.92,721.22h123.39V242.25h-123.39v180.9h-175.46v-180.9h-123.39v478.97h123.39v-191.95h175.46v191.95Z"/>
          <path class="cls-2" d="M705.12,732.03h-145.9v-191.95h-152.95v191.95h-145.9V230.55h145.9v180.9h152.95v-180.9h145.9v501.48ZM570.48,720.77h123.39V241.8h-123.39v180.9h-175.46v-180.9h-123.39v478.98h123.39v-191.95h175.46v191.95Z"/>
          <path class="cls-2" d="M704.67,731.58h-145.9v-191.95h-152.96v191.95h-145.9V230.09h145.9v180.91h152.96v-180.91h145.9v501.48ZM570.03,720.32h123.39V241.35h-123.39v180.91h-175.46v-180.91h-123.39v478.98h123.39v-191.95h175.46v191.95Z"/>
          <path class="cls-2" d="M704.23,731.13h-145.9v-191.95h-152.96v191.95h-145.9V229.65h145.9v180.9h152.96v-180.9h145.9v501.48ZM569.58,719.87h123.39V240.9h-123.39v180.9h-175.46v-180.9h-123.39v478.97h123.39v-191.95h175.46v191.95Z"/>
          <path class="cls-2" d="M703.78,730.69h-145.9v-191.95h-152.96v191.95h-145.9V229.21h145.9v180.9h152.96v-180.9h145.9v501.48ZM569.14,719.43h123.39V240.46h-123.39v180.9h-175.46v-180.9h-123.39v478.97h123.39v-191.95h175.46v191.95Z"/>
          <path class="cls-2" d="M703.33,730.24h-145.89v-191.95h-152.96v191.95h-145.9V228.76h145.9v180.9h152.96v-180.9h145.89v501.48ZM568.7,718.99h123.38V240.01h-123.38v180.9h-175.47v-180.9h-123.39v478.98h123.39v-191.95h175.47v191.95Z"/>
          <path class="cls-2" d="M702.89,729.79h-145.9v-191.95h-152.96v191.95h-145.9V228.31h145.9v180.9h152.96v-180.9h145.9v501.48ZM568.25,718.53h123.39V239.56h-123.39v180.9h-175.47v-180.9h-123.39v478.98h123.39v-191.95h175.47v191.94Z"/>
          <path class="cls-2" d="M702.44,729.34h-145.9v-191.95h-152.96v191.95h-145.9V227.86h145.9v180.9h152.96v-180.9h145.9v501.48ZM567.8,718.08h123.39V239.11h-123.39v180.9h-175.47v-180.9h-123.39v478.97h123.39v-191.95h175.47v191.94Z"/>
          <path class="cls-2" d="M702,728.89h-145.9v-191.95h-152.96v191.95h-145.9V227.41h145.9v180.9h152.96v-180.9h145.9v501.48ZM567.36,717.63h123.39V238.67h-123.39v180.9h-175.47v-180.9h-123.39v478.97h123.39v-191.95h175.47v191.95Z"/>
          <path class="cls-2" d="M701.55,728.45h-145.9v-191.95h-152.96v191.95h-145.9V226.96h145.9v180.9h152.96v-180.9h145.9v501.48ZM566.91,717.19h123.39V238.22h-123.39v180.9h-175.47v-180.9h-123.39v478.98h123.39v-191.95h175.47v191.95Z"/>
          <path class="cls-2" d="M701.1,728h-145.89v-191.95h-152.97v191.95h-145.9V226.51h145.9v180.91h152.97v-180.91h145.89v501.48ZM566.47,716.74h123.38V237.77h-123.38v180.91h-175.48v-180.91h-123.39v478.98h123.39v-191.95h175.48v191.95Z"/>
          <path class="cls-2" d="M700.66,727.55h-145.89v-191.95h-152.98v191.95h-145.9V226.07h145.9v180.9h152.98v-180.9h145.9v501.48h0ZM566.02,716.29h123.39V237.32h-123.39v180.9h-175.49v-180.9h-123.39v478.97h123.39v-191.95h175.49v191.95Z"/>
          <path class="cls-2" d="M700.22,727.1h-145.9v-191.95h-152.98v191.95h-145.9V225.62h145.9v180.9h152.98v-180.9h145.9v501.48ZM565.58,715.85h123.39V236.88h-123.39v180.9h-175.49v-180.9h-123.39v478.97h123.39v-191.95h175.49v191.95Z"/>
          <path class="cls-2" d="M699.77,726.65h-145.9v-191.95h-152.98v191.95h-145.9V225.17h145.9v180.9h152.98v-180.9h145.9v501.48ZM565.13,715.4h123.39V236.43h-123.39v180.9h-175.49v-180.9h-123.39v478.98h123.39v-191.95h175.49v191.94Z"/>
          <path class="cls-2" d="M699.32,726.2h-145.9v-191.95h-152.98v191.95h-145.9V224.72h145.9v180.91h152.98v-180.91h145.9v501.48ZM564.68,714.95h123.39V235.98h-123.39v180.91h-175.49v-180.91h-123.39v478.98h123.39v-191.95h175.49v191.94Z"/>
          <path class="cls-2" d="M698.88,725.75h-145.9v-191.95h-152.98v191.95h-145.9V224.27h145.9v180.9h152.98v-180.9h145.9v501.48ZM564.23,714.5h123.39V235.53h-123.39v180.9h-175.49v-180.9h-123.39v478.97h123.39v-191.95h175.49v191.95Z"/>
          <path class="cls-2" d="M698.44,725.31h-145.9v-191.95h-152.99v191.95h-145.9V223.83h145.9v180.9h152.99v-180.9h145.9v501.48ZM563.8,714.06h123.39V235.08h-123.39v180.9h-175.49v-180.9h-123.39v478.97h123.39v-191.95h175.49v191.95Z"/>
          <path class="cls-2" d="M697.99,724.86h-145.9v-191.95h-152.99v191.95h-145.9V223.38h145.9v180.9h152.99v-180.9h145.9v501.48ZM563.35,713.61h123.39V234.63h-123.39v180.9h-175.49v-180.9h-123.39v478.98h123.39v-191.95h175.49v191.95Z"/>
          <path class="cls-2" d="M697.54,724.41h-145.9v-191.95h-152.99v191.95h-145.9V222.93h145.9v180.91h152.99v-180.91h145.9v501.48ZM562.9,713.16h123.39V234.18h-123.39v180.91h-175.49v-180.91h-123.39v478.98h123.39v-191.95h175.49v191.95Z"/>
          <path class="cls-2" d="M697.09,723.97h-145.9v-191.95h-152.99v191.95h-145.9V222.49h145.9v180.9h152.99v-180.9h145.9v501.48h0ZM562.46,712.71h123.39V233.74h-123.39v180.9h-175.5v-180.9h-123.39v478.97h123.39v-191.95h175.5v191.95h0Z"/>
          <path class="cls-2" d="M696.65,723.52h-145.89v-191.95h-152.99v191.95h-145.9V222.04h145.9v180.9h152.99v-180.9h145.9v501.48h0ZM562.01,712.27h123.39V233.3h-123.39v180.9h-175.5v-180.9h-123.39v478.97h123.39v-191.95h175.5v191.95h0Z"/>
          <path class="cls-2" d="M696.2,723.07h-145.89v-191.95h-152.99v191.95h-145.9V221.59h145.9v180.9h152.99v-180.9h145.89v501.48ZM561.57,711.82h123.38V232.84h-123.38v180.9h-175.5v-180.9h-123.39v478.98h123.39v-191.95h175.5v191.94Z"/>
          <path class="cls-2" d="M695.76,722.62h-145.9v-191.95h-153v191.95h-145.9V221.14h145.9v180.91h153v-180.91h145.9v501.48ZM561.12,711.37h123.39V232.39h-123.39v180.91h-175.51v-180.91h-123.39v478.98h123.39v-191.95h175.51v191.94Z"/>
          <path class="cls-2" d="M695.32,722.17h-145.9v-191.95h-153v191.95h-145.9V220.69h145.9v180.9h153v-180.9h145.9v501.48ZM560.67,710.92h123.39V231.95h-123.39v180.9h-175.51v-180.9h-123.39v478.97h123.39v-191.95h175.51v191.95Z"/>
          <path class="cls-2" d="M694.87,721.73h-145.9v-191.95h-153v191.95h-145.9V220.25h145.9v180.9h153v-180.9h145.9v501.48h0ZM560.23,710.47h123.39V231.5h-123.39v180.9h-175.51v-180.9h-123.39v478.97h123.39v-191.95h175.51v191.95h0Z"/>
          <path class="cls-2" d="M694.42,721.28h-145.9v-191.95h-153v191.95h-145.89V219.8h145.9v180.9h153v-180.9h145.9v501.48h0ZM559.78,710.03h123.39V231.05h-123.39v180.9h-175.51v-180.9h-123.39v478.98h123.39v-191.95h175.51v191.95Z"/>
          <path class="cls-2" d="M693.97,720.83h-145.89v-191.95h-153.01v191.95h-145.9V219.35h145.9v180.91h153.01v-180.91h145.89v501.48ZM559.34,709.58h123.38V230.6h-123.38v180.91h-175.52v-180.91h-123.39v478.98h123.39v-191.95h175.52v191.95Z"/>
          <path class="cls-2" d="M693.53,720.38h-145.9v-191.95h-153.02v191.95h-145.89V218.9h145.9v180.9h153.02v-180.9h145.9v501.48h0ZM558.89,709.13h123.39V230.16h-123.39v180.9h-175.52v-180.9h-123.38v478.97h123.39v-191.95h175.52v191.95h0Z"/>
          <path class="cls-2" d="M693.09,719.93h-145.9v-191.95h-153.01v191.95h-145.9V218.46h145.9v180.89h153.01v-180.89h145.9v501.48ZM558.45,708.68h123.39V229.71h-123.39v180.89h-175.52v-180.89h-123.39v478.97h123.39v-191.95h175.52v191.95Z"/>
          <path class="cls-2" d="M692.64,719.49h-145.9v-191.95h-153.01v191.95h-145.9V218.01h145.9v180.9h153.01v-180.9h145.9v501.48ZM558,708.23h123.39V229.26h-123.39v180.9h-175.52v-180.9h-123.39v478.98h123.39v-191.95h175.52v191.94Z"/>
          <path class="cls-2" d="M692.2,719.04h-145.9v-191.95h-153.02v191.95h-145.9V217.55h145.9v180.91h153.02v-180.91h145.9v501.49ZM557.55,707.79h123.39V228.81h-123.39v180.91h-175.52v-180.91h-123.39v478.98h123.39v-191.95h175.52v191.95Z"/>
          <path class="cls-2" d="M691.75,718.59h-145.9v-191.95h-153.02v191.95h-145.9V217.11h145.9v180.9h153.02v-180.9h145.9v501.48ZM557.11,707.34h123.39V228.37h-123.39v180.9h-175.52v-180.9h-123.39v478.97h123.39v-191.95h175.52v191.95Z"/>
          <path class="cls-2" d="M691.31,718.14h-145.9v-191.95h-153.02v191.95h-145.9V216.67h145.9v180.9h153.02v-180.9h145.9v501.48h0ZM556.67,706.89h123.39V227.92h-123.39v180.9h-175.53v-180.9h-123.39v478.97h123.39v-191.95h175.53v191.95Z"/>
          <path class="cls-2" d="M690.86,717.7h-145.9v-191.95h-153.02v191.95h-145.9V216.21h145.9v180.9h153.02v-180.9h145.9v501.49ZM556.22,706.45h123.39V227.47h-123.39v180.9h-175.53v-180.9h-123.39v478.98h123.39v-191.95h175.53v191.95Z"/>
          <path class="cls-2" d="M690.41,717.25h-145.9v-191.95h-153.02v191.95h-145.9V215.77h145.9v180.9h153.02v-180.9h145.9v501.48ZM555.77,706h123.39V227.02h-123.39v180.9h-175.53v-180.9h-123.39v478.98h123.39v-191.95h175.53v191.95Z"/>
          <path class="cls-2" d="M689.97,716.8h-145.9v-191.95h-153.03v191.95h-145.9V215.32h145.9v180.9h153.03v-180.9h145.9v501.48ZM555.33,705.54h123.39V226.58h-123.39v180.9h-175.54v-180.9h-123.39v478.97h123.39v-191.95h175.54v191.94Z"/>
          <path class="cls-2" d="M689.52,716.35h-145.9v-191.95h-153.02v191.95h-145.9V214.88h145.9v180.9h153.02v-180.9h145.9v501.48ZM554.88,705.1h123.39V226.13h-123.39v180.9h-175.53v-180.9h-123.39v478.97h123.39v-191.95h175.53v191.94Z"/>
          <path class="cls-2" d="M689.07,715.91h-145.89v-191.95h-153.03v191.95h-145.9V214.43h145.9v180.9h153.03v-180.9h145.89v501.48ZM554.44,704.65h123.38V225.68h-123.38v180.9h-175.54v-180.9h-123.39v478.98h123.39v-191.95h175.54v191.95Z"/>
          <path class="cls-2" d="M688.63,715.46h-145.9v-191.95h-153.04v191.95h-145.9V213.98h145.9v180.9h153.04v-180.9h145.9v501.48ZM553.99,704.2h123.39V225.23h-123.39v180.9h-175.55v-180.9h-123.39v478.98h123.39v-191.95h175.55v191.95Z"/>
          <path class="cls-2" d="M688.18,715.01h-145.9v-191.95h-153.04v191.95h-145.9V213.53h145.9v180.9h153.04v-180.9h145.9v501.48ZM553.55,703.75h123.39V224.78h-123.39v180.9h-175.55v-180.9h-123.39v478.97h123.39v-191.95h175.55v191.95h0Z"/>
          <path class="cls-2" d="M687.74,714.56h-145.9v-191.95h-153.03v191.95h-145.9V213.08h145.9v180.9h153.04v-180.9h145.9v501.48h0ZM553.1,703.31h123.39V224.34h-123.39v180.9h-175.55v-180.9h-123.39v478.97h123.39v-191.95h175.55v191.95h0Z"/>
          <path class="cls-2" d="M687.29,714.12h-145.9v-191.95h-153.04v191.95h-145.89V212.64h145.9v180.9h153.04v-180.9h145.9v501.48h0ZM552.65,702.87h123.39V223.89h-123.39v180.9h-175.55v-180.9h-123.38v478.98h123.39v-191.95h175.55v191.95h0Z"/>
          <path class="cls-2" d="M686.85,713.67h-145.9v-191.95h-153.04v191.95h-145.9V212.19h145.9v180.9h153.04v-180.9h145.9v501.48ZM552.2,702.42h123.39V223.44h-123.39v180.9h-175.55v-180.9h-123.39v478.98h123.39v-191.95h175.55v191.95Z"/>
          <path class="cls-2" d="M686.41,713.22h-145.9v-191.95h-153.05v191.95h-145.9V211.74h145.9v180.9h153.05v-180.9h145.9v501.48h0ZM551.77,701.96h123.39V222.99h-123.39v180.9h-175.55v-180.9h-123.39v478.97h123.39v-191.95h175.55v191.94h0Z"/>
          <path class="cls-2" d="M685.96,712.77h-145.9v-191.95h-153.05v191.95h-145.9V211.29h145.9v180.9h153.05v-180.9h145.9v501.48ZM551.32,701.51h123.39V222.55h-123.39v180.9h-175.55v-180.9h-123.39v478.97h123.39v-191.95h175.55v191.95Z"/>
          <path class="cls-2" d="M685.51,712.33h-145.9v-191.95h-153.05v191.95h-145.9V210.84h145.9v180.9h153.05v-180.9h145.9v501.48ZM550.87,701.07h123.39V222.1h-123.39v180.9h-175.55v-180.9h-123.39v478.98h123.39v-191.95h175.55v191.95Z"/>
          <path class="cls-2" d="M685.06,711.88h-145.9v-191.95h-153.05v191.95h-145.9V210.39h145.9v180.91h153.05v-180.91h145.9v501.48ZM550.43,700.62h123.39V221.65h-123.39v180.91h-175.56v-180.91h-123.39v478.98h123.39v-191.95h175.56v191.95Z"/>
          <path class="cls-2" d="M684.62,711.43h-145.9v-191.95h-153.05v191.95h-145.9V209.95h145.9v180.9h153.05v-180.9h145.9v501.48ZM549.98,700.17h123.39V221.2h-123.39v180.9h-175.56v-180.9h-123.39v478.97h123.39v-191.95h175.56v191.95Z"/>
          <path class="cls-2" d="M684.17,710.98h-145.89v-191.95h-153.06v191.95h-145.9V209.5h145.9v180.9h153.06v-180.9h145.89v501.48ZM549.54,699.73h123.38V220.76h-123.38v180.9h-175.57v-180.9h-123.39v478.97h123.39v-191.95h175.57v191.95Z"/>
          <path class="cls-2" d="M683.73,710.54h-145.9v-191.95h-153.06v191.95h-145.9V209.05h145.9v180.9h153.06v-180.9h145.9v501.48ZM549.09,699.28h123.39V220.31h-123.39v180.9h-175.57v-180.9h-123.39v478.98h123.39v-191.95h175.57v191.95Z"/>
          <path class="cls-2" d="M683.29,710.08h-145.9v-191.95h-153.06v191.95h-145.9V208.6h145.9v180.91h153.06v-180.91h145.9v501.48ZM548.64,698.83h123.39V219.86h-123.39v180.91h-175.57v-180.91h-123.39v478.98h123.39v-191.95h175.57v191.94Z"/>
          <path class="cls-2" d="M682.84,709.63h-145.9v-191.95h-153.06v191.95h-145.9V208.16h145.9v180.9h153.06v-180.9h145.9v501.48ZM548.2,698.38h123.39V219.41h-123.39v180.9h-175.57v-180.9h-123.39v478.97h123.39v-191.95h175.57v191.94Z"/>
          <path class="cls-2" d="M682.39,709.19h-145.9v-191.95h-153.06v191.95h-145.9V207.71h145.9v180.9h153.06v-180.9h145.9v501.48ZM547.75,697.94h123.39V218.96h-123.39v180.9h-175.57v-180.9h-123.39v478.97h123.39v-191.95h175.57v191.95Z"/>
          <path class="cls-2" d="M681.94,708.74h-145.89v-191.95h-153.07v191.95h-145.9V207.26h145.9v180.9h153.07v-180.9h145.89v501.48ZM547.31,697.49h123.38V218.51h-123.38v180.9h-175.58v-180.9h-123.39v478.98h123.39v-191.95h175.58v191.95Z"/>
          <path class="cls-2" d="M681.5,708.29h-145.9v-191.95h-153.06v191.95h-145.9V206.81h145.9v180.91h153.07v-180.91h145.9v501.48h0ZM546.86,697.04h123.39V218.06h-123.39v180.91h-175.57v-180.91h-123.39v478.98h123.39v-191.95h175.58v191.95h0Z"/>
          <path class="cls-2" d="M681.06,707.85h-145.9v-191.95h-153.08v191.95h-145.9V206.37h145.9v180.9h153.08v-180.9h145.9v501.48ZM546.42,696.59h123.39V217.62h-123.39v180.9h-175.58v-180.9h-123.39v478.97h123.39v-191.95h175.58v191.95Z"/>
          <path class="cls-2" d="M680.61,707.4h-145.9v-191.95h-153.08v191.95h-145.9V205.92h145.9v180.9h153.08v-180.9h145.9v501.48ZM545.97,696.15h123.39V217.18h-123.39v180.9h-175.58v-180.9h-123.39v478.97h123.39v-191.95h175.58v191.95Z"/>
        </g>
        <path class="cls-2" d="M698.43,725.31h-145.9v-191.95h-153.08v191.95h-145.9V223.83h145.9v180.9h153.08v-180.9h145.9v501.48ZM563.79,714.06h123.39V235.08h-123.39v180.9h-175.58v-180.9h-123.39v478.97h123.39v-191.95h175.58v191.95Z"/>
      </g>
    </g>
  </g>
</svg>