<?xml version="1.0" encoding="UTF-8"?>
<svg id="Layer_2" data-name="Layer 2" xmlns="http://www.w3.org/2000/svg" viewBox="0 0 511.7 568.64">
  <defs>
    <style>
      .cls-1 {
        fill: #5197fc;
      }

      .cls-1, .cls-2, .cls-3 {
        stroke-width: 0px;
      }

      .cls-4 {
        opacity: .2;
      }

      .cls-3 {
        fill: #fff;
      }
    </style>
  </defs>
  <g id="_1" data-name="1">
    <g id="_16" data-name="16">
      <g>
        <g class="cls-4">
          <path class="cls-2" d="M511.7,568.64h-145.9v-191.95h-152.75v191.95H67.16V67.16h145.9v180.91h152.75V67.16h145.9v501.48ZM377.06,557.39h123.39V78.41h-123.39v180.91h-175.25V78.41h-123.39v478.98h123.39v-191.95h175.25v191.95Z"/>
          <path class="cls-2" d="M511.26,568.19h-145.9v-191.95h-152.75v191.95H66.71V66.71h145.9v180.9h152.75V66.71h145.9v501.48ZM376.61,556.94h123.39V77.97h-123.39v180.9h-175.25V77.97h-123.39v478.97h123.39v-191.95h175.25v191.95Z"/>
          <path class="cls-2" d="M510.81,567.75h-145.89v-191.95h-152.75v191.95H66.26V66.27h145.9v180.9h152.75V66.27h145.89v501.48ZM376.18,556.49h123.38V77.52h-123.38v180.9h-175.26V77.52h-123.39v478.97h123.39v-191.95h175.26v191.95Z"/>
          <path class="cls-2" d="M510.37,567.3h-145.9v-191.95h-152.75v191.95H65.83V65.82h145.9v180.9h152.75V65.82h145.9v501.48ZM375.73,556.05h123.39V77.07h-123.39v180.9h-175.26V77.07h-123.39v478.98h123.39v-191.95h175.26v191.95Z"/>
          <path class="cls-2" d="M509.92,566.85h-145.9v-191.95h-152.75v191.95H65.37V65.37h145.9v180.91h152.75V65.37h145.9v501.48ZM375.28,555.59h123.39V76.62h-123.39v180.91h-175.26V76.62h-123.39v478.98h123.39v-191.95h175.26v191.94Z"/>
          <path class="cls-2" d="M509.47,566.4h-145.9v-191.95h-152.76v191.95H64.92V64.93h145.9v180.9h152.76V64.93h145.9v501.48ZM374.84,555.15h123.39V76.18h-123.39v180.9h-175.27V76.18h-123.39v478.97h123.39v-191.95h175.27v191.95Z"/>
          <path class="cls-2" d="M509.03,565.96h-145.9v-191.95h-152.76v191.95H64.48V64.48h145.9v180.9h152.76V64.48h145.9v501.48ZM374.39,554.7h123.39V75.73h-123.39v180.9h-175.27V75.73h-123.39v478.97h123.39v-191.95h175.27v191.95Z"/>
          <path class="cls-2" d="M508.58,565.51h-145.9v-191.95h-152.75v191.95H64.03V64.03h145.9v180.9h152.75V64.03h145.9v501.48h0ZM373.94,554.25h123.39V75.28h-123.39v180.9h-175.26V75.28h-123.39v478.98h123.39v-191.95h175.26v191.95Z"/>
          <path class="cls-2" d="M508.14,565.06h-145.9v-191.95h-152.77v191.95H63.58V63.57h145.9v180.91h152.77V63.57h145.9v501.49ZM373.5,553.81h123.39V74.83h-123.39v180.91h-175.28V74.83h-123.39v478.98h123.39v-191.95h175.28v191.95Z"/>
          <path class="cls-2" d="M507.7,564.61h-145.9v-191.95h-152.76v191.95H63.13V63.13h145.9v180.9h152.77V63.13h145.9v501.48h0ZM373.05,553.36h123.39V74.39h-123.39v180.9h-175.27V74.39h-123.39v478.97h123.39v-191.95h175.28v191.95h0Z"/>
          <path class="cls-2" d="M507.25,564.17h-145.9v-191.95h-152.77v191.95H62.69V62.69h145.89v180.9h152.77V62.69h145.9v501.48h0ZM372.61,552.91h123.39V73.94h-123.39v180.9h-175.28V73.94h-123.38v478.97h123.38v-191.95h175.28v191.95Z"/>
          <path class="cls-2" d="M506.8,563.72h-145.9v-191.95h-152.77v191.95H62.24V62.23h145.9v180.9h152.77V62.23h145.9v501.49ZM372.16,552.47h123.39V73.49h-123.39v180.9h-175.28V73.49h-123.39v478.98h123.39v-191.95h175.28v191.95Z"/>
          <path class="cls-2" d="M506.35,563.27h-145.9v-191.95h-152.77v191.95H61.79V61.79h145.9v180.9h152.77V61.79h145.9v501.48h0ZM371.72,552.02h123.39V73.04h-123.39v180.9h-175.28V73.04h-123.39v478.98h123.39v-191.95h175.28v191.95h0Z"/>
          <path class="cls-2" d="M505.91,562.82h-145.89v-191.95h-152.78v191.95H61.34V61.34h145.9v180.9h152.78V61.34h145.89v501.48h0ZM371.28,551.56h123.38V72.59h-123.38v180.9h-175.29V72.59h-123.39v478.97h123.39v-191.95h175.29v191.95h0Z"/>
          <path class="cls-2" d="M505.47,562.37h-145.9v-191.95h-152.78v191.95H60.89V60.89h145.9v180.9h152.78V60.89h145.9v501.48ZM370.83,551.12h123.39V72.15h-123.39v180.9h-175.28V72.15h-123.39v478.97h123.39v-191.95h175.28v191.95Z"/>
          <path class="cls-2" d="M505.02,561.93h-145.9v-191.95h-152.78v191.95H60.45V60.44h145.9v180.9h152.78V60.44h145.9v501.49ZM370.38,550.68h123.39V71.7h-123.39v180.9h-175.28V71.7h-123.39v478.98h123.39v-191.95h175.28v191.95Z"/>
          <path class="cls-2" d="M504.57,561.48h-145.9v-191.95h-152.78v191.95H60V60h145.9v180.9h152.78V60h145.9v501.48h0ZM369.93,550.23h123.39V71.25h-123.39v180.9h-175.29V71.25h-123.39v478.98h123.39v-191.95h175.29v191.95h0Z"/>
          <path class="cls-2" d="M504.13,561.03h-145.9v-191.95h-152.78v191.95H59.55V59.55h145.9v180.9h152.78V59.55h145.9v501.48ZM369.49,549.78h123.39V70.8h-123.39v180.9h-175.29V70.8h-123.39v478.97h123.39v-191.95h175.29v191.95Z"/>
          <path class="cls-2" d="M503.68,560.58h-145.89v-191.95h-152.79v191.95H59.11V59.1h145.9v180.9h152.79V59.1h145.89v501.48ZM369.05,549.33h123.38V70.36h-123.38v180.9h-175.3V70.36h-123.39v478.97h123.39v-191.95h175.3v191.95Z"/>
          <path class="cls-2" d="M503.24,560.14h-145.9v-191.95h-152.79v191.95H58.66V58.65h145.9v180.9h152.79V58.65h145.9v501.49ZM368.6,548.88h123.39V69.9h-123.39v180.9h-175.3V69.9h-123.39v478.98h123.39v-191.95h175.3v191.95Z"/>
          <path class="cls-2" d="M502.79,559.69h-145.9v-191.95h-152.79v191.95H58.2V58.21h145.9v180.9h152.79V58.21h145.9v501.48ZM368.15,548.43h123.39V69.46h-123.39v180.9h-175.3V69.46h-123.39v478.98h123.39v-191.95h175.3v191.94Z"/>
          <path class="cls-2" d="M502.35,559.24h-145.9v-191.95h-152.79v191.95H57.76V57.76h145.9v180.9h152.79V57.76h145.9v501.48ZM367.7,547.98h123.39V69.01h-123.39v180.9h-175.3V69.01h-123.39v478.97h123.39v-191.95h175.3v191.95Z"/>
          <path class="cls-2" d="M501.9,558.79h-145.9v-191.95h-152.79v191.95H57.31V57.31h145.9v180.9h152.79V57.31h145.9v501.48ZM367.26,547.54h123.39V68.56h-123.39v180.9h-175.3V68.56h-123.39v478.97h123.39v-191.95h175.3v191.95Z"/>
          <path class="cls-2" d="M501.45,558.35h-145.9v-191.95h-152.79v191.95H56.87V56.86h145.9v180.9h152.79V56.86h145.9v501.48h0ZM366.81,547.09h123.39V68.12h-123.39v180.9h-175.3V68.12h-123.4v478.98h123.4v-191.95h175.3v191.95h0Z"/>
          <path class="cls-2" d="M501.01,557.9h-145.9v-191.95h-152.8v191.95H56.42V56.41h145.9v180.91h152.8V56.41h145.9v501.48ZM366.37,546.64h123.39V67.67h-123.39v180.91h-175.31V67.67h-123.39v478.98h123.39v-191.95h175.31v191.95Z"/>
          <path class="cls-2" d="M500.56,557.45h-145.9v-191.95h-152.8v191.95H55.97V55.97h145.9v180.9h152.8V55.97h145.9v501.48ZM365.93,546.19h123.39V67.22h-123.39v180.9h-175.31V67.22h-123.39v478.97h123.39v-191.95h175.31v191.95Z"/>
          <path class="cls-2" d="M500.12,557h-145.9v-191.95h-152.8v191.95H55.53V55.52h145.9v180.9h152.8V55.52h145.9v501.48h0ZM365.48,545.75h123.39V66.78h-123.39v180.9h-175.31V66.78h-123.38v478.97h123.39v-191.95h175.31v191.95Z"/>
          <path class="cls-2" d="M499.67,556.55h-145.9v-191.95h-152.8v191.95H55.08V55.07h145.9v180.9h152.8V55.07h145.9v501.48ZM365.03,545.3h123.39V66.33h-123.39v180.9h-175.31V66.33h-123.39v478.98h123.39v-191.95h175.31v191.95h0Z"/>
          <path class="cls-2" d="M499.23,556.1h-145.9v-191.95h-152.8v191.95H54.63V54.62h145.9v180.91h152.8V54.62h145.9v501.48ZM364.58,544.85h123.39V65.87h-123.39v180.91h-175.31V65.87h-123.39v478.98h123.39v-191.95h175.31v191.95Z"/>
          <path class="cls-2" d="M498.78,555.65h-145.89v-191.95h-152.81v191.95H54.18V54.17h145.9v180.9h152.81V54.17h145.89v501.48ZM364.14,544.4h123.38V65.43h-123.38v180.9h-175.32V65.43h-123.39v478.97h123.39v-191.95h175.32v191.95Z"/>
          <path class="cls-2" d="M498.34,555.21h-145.9v-191.95h-152.81v191.95H53.73V53.73h145.9v180.9h152.81V53.73h145.9v501.48ZM363.7,543.96h123.39V64.99h-123.39v180.9h-175.32V64.99h-123.39v478.97h123.39v-191.95h175.32v191.95Z"/>
          <path class="cls-2" d="M497.89,554.76h-145.9v-191.95h-152.81v191.95H53.29V53.28h145.9v180.9h152.81V53.28h145.9v501.48ZM363.25,543.51h123.39V64.54h-123.39v180.9h-175.32V64.54h-123.39v478.98h123.39v-191.95h175.32v191.95Z"/>
          <path class="cls-2" d="M497.44,554.31h-145.89v-191.95h-152.81v191.95H52.84V52.83h145.9v180.91h152.81V52.83h145.89v501.48ZM362.81,543.06h123.38V64.09h-123.38v180.91h-175.32V64.09h-123.39v478.98h123.39v-191.95h175.32v191.95Z"/>
          <path class="cls-2" d="M497,553.86h-145.9v-191.95h-152.82v191.95H52.39V52.38h145.9v180.9h152.82V52.38h145.9v501.48ZM362.36,542.61h123.39V63.64h-123.39v180.9h-175.33V63.64H63.65v478.97h123.39v-191.95h175.33v191.94Z"/>
          <path class="cls-2" d="M496.55,553.42h-145.9v-191.95h-152.82v191.95H51.94V51.94h145.9v180.9h152.82V51.94h145.9v501.48ZM361.91,542.16h123.39V63.2h-123.39v180.9h-175.33V63.2H63.2v478.97h123.39v-191.95h175.33v191.94Z"/>
          <path class="cls-2" d="M496.11,552.97h-145.9v-191.95h-152.82v191.95H51.5V51.49h145.9v180.9h152.82V51.49h145.9v501.48ZM361.47,541.72h123.39V62.74h-123.39v180.9h-175.33V62.74H62.75v478.98h123.39v-191.95h175.33v191.95Z"/>
          <path class="cls-2" d="M495.67,552.52h-145.9v-191.95h-152.82v191.95H51.05V51.04h145.9v180.91h152.82V51.04h145.9v501.48ZM361.02,541.27h123.39V62.29h-123.39v180.91h-175.33V62.29H62.3v478.98h123.39v-191.95h175.33v191.95Z"/>
          <path class="cls-2" d="M495.22,552.07h-145.9v-191.95h-152.82v191.95H50.6V50.59h145.9v180.9h152.82V50.59h145.9v501.48ZM360.58,540.82h123.39V61.85h-123.39v180.9h-175.33V61.85H61.85v478.97h123.39v-191.95h175.33v191.95Z"/>
          <path class="cls-2" d="M494.77,551.63h-145.9v-191.95h-152.82v191.95H50.15V50.15h145.9v180.9h152.82V50.15h145.9v501.48ZM360.13,540.37h123.39V61.4h-123.39v180.9h-175.33V61.4H61.4v478.97h123.39v-191.95h175.33v191.95Z"/>
          <path class="cls-2" d="M494.32,551.18h-145.9v-191.95h-152.82v191.95H49.71V49.7h145.9v180.9h152.82V49.7h145.9v501.48ZM359.68,539.93h123.39V60.95h-123.39v180.9h-175.33V60.95H60.96v478.98h123.39v-191.95h175.33v191.95Z"/>
          <path class="cls-2" d="M493.88,550.73h-145.89v-191.95h-152.83v191.95H49.25V49.25h145.9v180.91h152.83V49.25h145.89v501.48ZM359.25,539.48h123.38V60.5h-123.38v180.91h-175.34V60.5H60.51v478.98h123.39v-191.95h175.34v191.95Z"/>
          <path class="cls-2" d="M493.44,550.28h-145.9v-191.95h-152.84v191.95H48.81V48.81h145.9v180.9h152.84V48.81h145.9v501.48ZM358.8,539.03h123.39V60.06h-123.39v180.9h-175.35V60.06H60.06v478.97h123.39v-191.95h175.35v191.95Z"/>
          <path class="cls-2" d="M492.99,549.84h-145.9v-191.95h-152.84v191.95H48.36V48.36h145.9v180.9h152.84V48.36h145.9v501.48h0ZM358.35,538.58h123.39V59.61h-123.39v180.9h-175.35V59.61H59.61v478.97h123.39v-191.95h175.35v191.94Z"/>
          <path class="cls-2" d="M492.54,549.39h-145.9v-191.95h-152.83v191.95H47.91V47.91h145.9v180.9h152.83V47.91h145.9v501.48ZM357.9,538.13h123.39V59.16h-123.39v180.9h-175.34V59.16H59.17v478.98h123.39v-191.95h175.34v191.95Z"/>
          <path class="cls-2" d="M492.1,548.94h-145.9v-191.95h-152.84v191.95H47.47V47.46h145.9v180.91h152.84V47.46h145.9v501.49ZM357.46,537.69h123.39V58.71h-123.39v180.91h-175.35V58.71H58.72v478.98h123.39v-191.95h175.35v191.95Z"/>
          <path class="cls-2" d="M491.65,548.49h-145.89v-191.95h-152.85v191.95H47.01V47.01h145.9v180.9h152.85V47.01h145.89v501.48h0ZM357.02,537.24h123.38V58.27h-123.38v180.9h-175.36V58.27H58.27v478.97h123.39v-191.95h175.36v191.95Z"/>
          <path class="cls-2" d="M491.21,548.05h-145.9v-191.95h-152.85v191.95H46.57V46.57h145.9v180.9h152.85V46.57h145.9v501.48h0ZM356.57,536.79h123.39V57.82h-123.39v180.9h-175.36V57.82H57.83v478.97h123.39v-191.95h175.36v191.95h0Z"/>
          <path class="cls-2" d="M490.76,547.6h-145.9v-191.95h-152.85v191.95H46.12V46.12h145.9v180.9h152.85V46.12h145.9v501.49h0ZM356.12,536.35h123.39V57.37h-123.39v180.9h-175.36V57.37H57.38v478.98h123.39v-191.95h175.36v191.95h0Z"/>
          <path class="cls-2" d="M490.32,547.15h-145.9v-191.95h-152.85v191.95H45.67V45.67h145.9v180.9h152.85V45.67h145.9v501.48ZM355.67,535.9h123.39V56.92h-123.39v180.9h-175.36V56.92H56.92v478.97h123.39v-191.95h175.36v191.95Z"/>
          <path class="cls-2" d="M489.87,546.7h-145.9v-191.95h-152.85v191.95H45.22V45.22h145.9v180.9h152.85V45.22h145.9v501.48h0ZM355.23,535.45h123.39V56.48h-123.39v180.9h-175.36V56.48H56.48v478.97h123.39v-191.95h175.36v191.95Z"/>
          <path class="cls-2" d="M489.42,546.25h-145.9v-191.95h-152.85v191.95H44.78V44.77h145.9v180.9h152.85V44.77h145.9v501.48ZM354.78,535h123.39V56.03h-123.39v180.9h-175.36V56.03H56.03v478.97h123.39v-191.95h175.36v191.95Z"/>
          <path class="cls-2" d="M488.98,545.81h-145.9v-191.95h-152.85v191.95H44.33V44.32h145.9v180.9h152.85V44.32h145.9v501.48ZM354.34,534.55h123.39V55.58h-123.39v180.9h-175.36V55.58H55.58v478.98h123.39v-191.95h175.36v191.95Z"/>
          <path class="cls-2" d="M488.53,545.36h-145.9v-191.95h-152.86v191.95H43.88V43.87h145.9v180.91h152.86V43.87h145.9v501.49h0ZM353.9,534.11h123.39V55.13h-123.39v180.91h-175.37V55.13H55.14v478.98h123.39v-191.95h175.37v191.95Z"/>
          <path class="cls-2" d="M488.09,544.91h-145.9v-191.95h-152.86v191.95H43.43V43.43h145.9v180.9h152.86V43.43h145.9v501.48ZM353.45,533.66h123.39V54.68h-123.39v180.9h-175.37V54.68H54.68v478.97h123.39v-191.95h175.37v191.95Z"/>
          <path class="cls-2" d="M487.64,544.46h-145.9v-191.95h-152.86v191.95H42.99V42.98h145.9v180.9h152.86V42.98h145.9v501.48ZM353,533.21h123.39V54.24h-123.39v180.9h-175.37V54.24H54.24v478.97h123.39v-191.95h175.37v191.95Z"/>
          <path class="cls-2" d="M487.19,544.02h-145.9v-191.95h-152.86v191.95H42.54V42.53h145.9v180.9h152.86V42.53h145.9v501.49h0ZM352.55,532.76h123.39V53.78h-123.39v180.9h-175.37V53.78H53.8v478.98h123.39v-191.95h175.37v191.95h0Z"/>
          <path class="cls-2" d="M486.75,543.57h-145.89v-191.95h-152.87v191.95H42.09V42.09h145.9v180.9h152.87V42.09h145.89v501.48ZM352.11,532.31h123.38V53.34h-123.38v180.9h-175.38V53.34H53.34v478.98h123.39v-191.95h175.38v191.94Z"/>
          <path class="cls-2" d="M486.31,543.12h-145.9v-191.95h-152.88v191.95H41.64V41.64h145.9v180.9h152.88V41.64h145.9v501.48ZM351.67,531.86h123.39V52.89h-123.39v180.9h-175.39V52.89H52.89v478.97h123.39v-191.95h175.39v191.94h0Z"/>
          <path class="cls-2" d="M485.86,542.67h-145.9v-191.95h-152.87v191.95H41.19V41.19h145.9v180.9h152.87V41.19h145.9v501.48ZM351.22,531.42h123.39V52.44h-123.39v180.9h-175.38V52.44H52.45v478.97h123.39v-191.95h175.38v191.95Z"/>
          <path class="cls-2" d="M485.41,542.23h-145.9v-191.95h-152.87v191.95H40.75V40.74h145.9v180.9h152.87V40.74h145.9v501.48h0ZM350.77,530.97h123.39V52h-123.39v180.9h-175.38V52H52v478.98h123.39v-191.95h175.38v191.95Z"/>
          <path class="cls-2" d="M484.97,541.78h-145.9v-191.95h-152.88v191.95H40.3V40.29h145.9v180.91h152.88V40.29h145.9v501.48h0ZM350.33,530.52h123.39V51.55h-123.39v180.91h-175.39V51.55H51.56v478.98h123.39v-191.95h175.39v191.95h0Z"/>
          <path class="cls-2" d="M484.52,541.33h-145.89v-191.95h-152.88v191.95H39.85V39.85h145.9v180.9h152.88V39.85h145.89v501.48ZM349.89,530.07h123.38V51.1h-123.38v180.9h-175.39V51.1H51.11v478.97h123.39v-191.95h175.39v191.95Z"/>
          <path class="cls-2" d="M484.08,540.88h-145.9v-191.95h-152.88v191.95H39.4V39.4h145.9v180.9h152.88V39.4h145.9v501.48ZM349.44,529.63h123.39V50.66h-123.39v180.9h-175.39V50.66H50.66v478.97h123.39v-191.95h175.39v191.95Z"/>
          <path class="cls-2" d="M483.63,540.43h-145.9v-191.95h-152.88v191.95H38.96V38.95h145.9v180.9h152.88V38.95h145.9v501.48ZM348.99,529.18h123.39V50.21h-123.39v180.9h-175.39V50.21H50.21v478.97h123.39v-191.95h175.39v191.95Z"/>
          <path class="cls-2" d="M483.19,539.98h-145.9v-191.95h-152.88v191.95H38.51V38.5h145.9v180.91h152.88V38.5h145.9v501.48ZM348.55,528.73h123.39V49.76h-123.39v180.91h-175.39V49.76H49.77v478.97h123.39v-191.95h175.39v191.95Z"/>
          <path class="cls-2" d="M482.74,539.53h-145.89v-191.95h-152.88v191.95H38.06V38.05h145.9v180.9h152.88V38.05h145.9v501.48h0ZM348.1,528.28h123.39V49.31h-123.39v180.9h-175.39V49.31H49.31v478.97h123.39v-191.95h175.39v191.95Z"/>
          <path class="cls-2" d="M482.29,539.09h-145.9v-191.95h-152.88v191.95H37.61V37.61h145.9v180.9h152.88V37.61h145.9v501.48ZM347.65,527.84h123.39V48.87h-123.39v180.9h-175.39V48.87H48.87v478.97h123.39v-191.95h175.39v191.95Z"/>
          <path class="cls-2" d="M481.85,538.65h-145.9v-191.95h-152.89v191.95H37.16V37.16h145.9v180.9h152.89V37.16h145.9v501.48ZM347.21,527.39h123.39V48.42h-123.39v180.9h-175.4V48.42H48.42v478.98h123.39v-191.95h175.4v191.95Z"/>
          <path class="cls-2" d="M481.41,538.2h-145.9v-191.95h-152.89v191.95H36.72V36.71h145.9v180.91h152.89V36.71h145.9v501.48ZM346.76,526.94h123.39V47.97h-123.39v180.91h-175.4V47.97H47.97v478.98h123.39v-191.95h175.4v191.95Z"/>
          <path class="cls-2" d="M480.96,537.74h-145.9v-191.95h-152.9v191.95H36.27V36.26h145.9v180.9h152.9V36.26h145.9v501.48ZM346.32,526.49h123.39V47.52h-123.39v180.9h-175.41V47.52H47.52v478.97h123.39v-191.95h175.41v191.95Z"/>
          <path class="cls-2" d="M480.51,537.3h-145.9v-191.95h-152.9v191.95H35.82V35.82h145.9v180.9h152.9V35.82h145.9v501.48ZM345.87,526.04h123.39V47.08h-123.39v180.9h-175.41V47.08H47.08v478.97h123.39v-191.95h175.41v191.95Z"/>
          <path class="cls-2" d="M480.07,536.85h-145.9v-191.95h-152.89v191.95H35.38V35.37h145.9v180.9h152.89V35.37h145.9v501.48ZM345.43,525.6h123.39V46.63h-123.39v180.9h-175.4V46.63H46.63v478.98h123.39v-191.95h175.4v191.94Z"/>
          <path class="cls-2" d="M479.62,536.4h-145.88v-191.95h-152.91v191.95H34.93V34.92h145.9v180.91h152.91V34.92h145.89v501.48h0ZM344.99,525.15h123.38V46.17h-123.38v180.91h-175.42V46.17H46.18v478.98h123.39v-191.95h175.42v191.95Z"/>
          <path class="cls-2" d="M479.18,535.95h-145.9v-191.95h-152.91v191.95H34.47V34.47h145.9v180.9h152.91V34.47h145.9v501.48ZM344.54,524.7h123.39V45.73h-123.39v180.9h-175.42V45.73H45.73v478.97h123.39v-191.95h175.42v191.95Z"/>
          <path class="cls-2" d="M478.73,535.51h-145.9v-191.95h-152.91v191.95H34.03V34.03h145.9v180.9h152.91V34.03h145.9v501.48ZM344.09,524.25h123.39V45.28h-123.39v180.9h-175.42V45.28H45.28v478.97h123.39v-191.95h175.42v191.95Z"/>
          <path class="cls-2" d="M478.28,535.06h-145.9v-191.95h-152.91v191.95H33.59V33.58h145.9v180.9h152.91V33.58h145.9v501.48ZM343.64,523.81h123.39V44.83h-123.39v180.9h-175.42V44.83H44.84v478.98h123.39v-191.95h175.42v191.95Z"/>
          <path class="cls-2" d="M477.84,534.61h-145.9v-191.95h-152.91v191.95H33.13V33.13h145.9v180.91h152.91V33.13h145.9v501.48ZM343.2,523.36h123.39V44.38h-123.39v180.91h-175.42V44.38H44.39v478.98h123.39v-191.95h175.42v191.95Z"/>
          <path class="cls-2" d="M477.39,534.17h-145.89v-191.95h-152.92v191.95H32.69V32.69h145.9v180.9h152.92V32.69h145.89v501.48ZM342.76,522.91h123.38V43.94h-123.38v180.9h-175.43V43.94H43.94v478.97h123.39v-191.95h175.43v191.95Z"/>
          <path class="cls-2" d="M476.95,533.72h-145.9v-191.95h-152.92v191.95H32.24V32.24h145.9v180.9h152.92V32.24h145.9v501.48ZM342.31,522.46h123.39V43.49h-123.39v180.9h-175.43V43.49H43.49v478.97h123.39v-191.95h175.43v191.94Z"/>
          <path class="cls-2" d="M476.5,533.27h-145.9v-191.95h-152.91v191.95H31.79V31.79h145.9v180.9h152.91V31.79h145.9v501.48ZM341.87,522.02h123.39V43.04h-123.39v180.9h-175.42V43.04H43.05v478.97h123.39v-191.95h175.42v191.95Z"/>
          <path class="cls-2" d="M476.06,532.82h-145.9v-191.95h-152.92v191.95H31.34V31.34h145.9v180.91h152.92V31.34h145.9v501.49ZM341.42,521.57h123.39V42.59h-123.39v180.91h-175.43V42.59H42.6v478.98h123.39v-191.95h175.43v191.95Z"/>
          <path class="cls-2" d="M475.61,532.37h-145.9v-191.95h-152.92v191.95H30.89V30.89h145.9v180.9h152.92V30.89h145.9v501.48ZM340.97,521.12h123.39V42.15h-123.39v180.9h-175.43V42.15H42.14v478.97h123.39v-191.95h175.43v191.95Z"/>
          <path class="cls-2" d="M475.16,531.93h-145.9v-191.95h-152.92v191.95H30.45V30.45h145.9v180.9h152.92V30.45h145.9v501.48ZM340.52,520.67h123.39V41.7h-123.39v180.9h-175.43V41.7H41.7v478.97h123.39v-191.95h175.43v191.95Z"/>
          <path class="cls-2" d="M474.72,531.48h-145.89v-191.95h-152.93v191.95H30V30h145.9v180.9h152.93V30h145.89v501.48ZM340.08,520.23h123.38V41.25h-123.38v180.9h-175.44V41.25H41.26v478.98h123.39v-191.95h175.44v191.95Z"/>
          <path class="cls-2" d="M474.28,531.03h-145.9v-191.95h-152.93v191.95H29.55V29.55h145.9v180.91h152.93V29.55h145.9v501.49ZM339.64,519.78h123.39V40.8h-123.39v180.91h-175.44V40.8H40.8v478.98h123.39v-191.95h175.44v191.95Z"/>
          <path class="cls-2" d="M473.83,530.58h-145.9v-191.95h-152.94v191.95H29.1V29.1h145.9v180.9h152.94V29.1h145.9v501.48ZM339.19,519.33h123.39V40.36h-123.39v180.9h-175.45V40.36H40.36v478.97h123.39v-191.95h175.45v191.94Z"/>
          <path class="cls-2" d="M473.38,530.13h-145.9v-191.95h-152.93v191.95H28.66V28.66h145.9v180.9h152.93V28.66h145.9v501.48h0ZM338.74,518.88h123.39V39.91h-123.39v180.9h-175.44V39.91H39.91v478.97h123.39v-191.95h175.44v191.94Z"/>
          <path class="cls-2" d="M472.94,529.69h-145.9v-191.95h-152.93v191.95H28.21V28.2h145.9v180.9h152.93V28.2h145.9v501.48ZM338.3,518.43h123.39V39.46h-123.39v180.9h-175.44V39.46H39.46v478.98h123.39v-191.95h175.44v191.95Z"/>
          <path class="cls-2" d="M472.49,529.24h-145.89v-191.95h-152.94v191.95H27.76V27.75h145.9v180.91h152.94V27.75h145.89v501.49h0ZM337.86,517.99h123.38V39.01h-123.38v180.91h-175.45V39.01H39.01v478.98h123.39v-191.95h175.45v191.95h0Z"/>
          <path class="cls-2" d="M472.05,528.79h-145.9v-191.95h-152.94v191.95H27.31V27.31h145.9v180.9h152.94V27.31h145.9v501.48h0ZM337.41,517.54h123.39V38.56h-123.39v180.9h-175.45V38.56H38.56v478.97h123.39v-191.95h175.45v191.95Z"/>
          <path class="cls-2" d="M471.6,528.34h-145.9v-191.95h-152.95v191.95H26.87V26.86h145.9v180.9h152.94V26.86h145.9v501.48h0ZM336.96,517.09h123.39V38.12h-123.39v180.9h-175.45V38.12H38.12v478.97h123.39v-191.95h175.45v191.95h0Z"/>
          <path class="cls-2" d="M471.16,527.9h-145.9v-191.95h-152.94v191.95H26.42V26.41h145.9v180.9h152.94V26.41h145.9v501.49h0ZM336.52,516.65h123.39V37.67h-123.39v180.9h-175.45V37.67H37.68v478.98h123.39v-191.95h175.45v191.95h0Z"/>
          <path class="cls-2" d="M470.71,527.45h-145.9v-191.95h-152.94v191.95H25.96V25.97h145.9v180.9h152.94V25.97h145.9v501.48ZM336.07,516.19h123.39V37.22h-123.39v180.9h-175.45V37.22H37.22v478.98h123.39v-191.95h175.45v191.94Z"/>
          <path class="cls-2" d="M470.26,527h-145.9v-191.95h-152.95v191.95H25.52V25.52h145.9v180.9h152.95V25.52h145.9v501.48ZM335.62,515.74h123.39V36.77h-123.39v180.9h-175.46V36.77H36.78v478.97h123.39v-191.95h175.46v191.94Z"/>
          <path class="cls-2" d="M469.82,526.55h-145.9v-191.95h-152.95v191.95H25.07V25.07h145.9v180.9h152.95V25.07h145.9v501.48ZM335.18,515.3h123.39V36.32h-123.39v180.9h-175.46V36.32H36.33v478.97h123.39v-191.95h175.46v191.95Z"/>
          <path class="cls-2" d="M469.38,526.11h-145.9v-191.95h-152.95v191.95H24.63V24.62h145.9v180.9h152.95V24.62h145.9v501.48ZM334.73,514.85h123.39V35.88h-123.39v180.9h-175.46V35.88H35.88v478.98h123.39v-191.95h175.46v191.95Z"/>
          <path class="cls-2" d="M468.93,525.66h-145.9v-191.95h-152.96v191.95H24.18V24.17h145.9v180.91h152.96V24.17h145.9v501.48ZM334.29,514.4h123.39V35.43h-123.39v180.91h-175.46V35.43H35.44v478.98h123.39v-191.95h175.46v191.95Z"/>
          <path class="cls-2" d="M468.48,525.21h-145.9v-191.95h-152.96v191.95H23.73V23.73h145.9v180.9h152.96V23.73h145.9v501.48ZM333.84,513.95h123.39V34.98h-123.39v180.9h-175.46V34.98H34.99v478.97h123.39v-191.95h175.46v191.95Z"/>
          <path class="cls-2" d="M468.04,524.77h-145.9v-191.95h-152.96v191.95H23.29V23.28h145.9v180.9h152.96V23.28h145.9v501.48ZM333.39,513.51h123.39V34.54h-123.39v180.9h-175.46V34.54H34.54v478.97h123.39v-191.95h175.46v191.95Z"/>
          <path class="cls-2" d="M467.59,524.32h-145.89v-191.95h-152.96v191.95H22.84V22.83h145.9v180.9h152.96V22.83h145.89v501.48ZM332.96,513.06h123.38V34.09h-123.38v180.9h-175.47V34.09H34.1v478.98h123.39v-191.95h175.47v191.95Z"/>
          <path class="cls-2" d="M467.15,523.86h-145.9v-191.95h-152.96v191.95H22.38V22.38h145.9v180.9h152.96V22.38h145.9v501.48ZM332.51,512.61h123.39V33.64h-123.39v180.9h-175.47V33.64H33.64v478.98h123.39v-191.95h175.47v191.94Z"/>
          <path class="cls-2" d="M466.7,523.41h-145.9v-191.95h-152.96v191.95H21.94V21.94h145.9v180.9h152.96V21.94h145.9v501.48ZM332.06,512.16h123.39V33.19h-123.39v180.9h-175.47V33.19H33.19v478.97h123.39v-191.95h175.47v191.94Z"/>
          <path class="cls-2" d="M466.25,522.97h-145.9v-191.95h-152.96v191.95H21.49V21.49h145.9v180.9h152.96V21.49h145.9v501.48ZM331.61,511.71h123.39V32.75h-123.39v180.9h-175.47V32.75H32.75v478.97h123.39v-191.95h175.47v191.95Z"/>
          <path class="cls-2" d="M465.81,522.53h-145.9v-191.95h-152.96v191.95H21.05V21.04h145.9v180.9h152.96V21.04h145.9v501.48ZM331.17,511.27h123.39V32.3h-123.39v180.9h-175.47V32.3H32.3v478.98h123.39v-191.95h175.47v191.95Z"/>
          <path class="cls-2" d="M465.36,522.08h-145.89v-191.95h-152.97v191.95H20.6V20.59h145.9v180.91h152.97V20.59h145.89v501.48ZM330.73,510.82h123.38V31.85h-123.38v180.91h-175.48V31.85H31.85v478.98h123.39v-191.95h175.48v191.95Z"/>
          <path class="cls-2" d="M464.92,521.63h-145.89v-191.95h-152.98v191.95H20.15V20.14h145.9v180.9h152.98V20.14h145.9v501.48h0ZM330.28,510.37h123.39V31.4h-123.39v180.9h-175.49V31.4H31.41v478.97h123.39v-191.95h175.49v191.95Z"/>
          <path class="cls-2" d="M464.47,521.18h-145.9v-191.95h-152.98v191.95H19.7V19.7h145.9v180.9h152.98V19.7h145.9v501.48ZM329.83,509.93h123.39V30.96h-123.39v180.9h-175.49V30.96H30.96v478.97h123.39v-191.95h175.49v191.95Z"/>
          <path class="cls-2" d="M464.03,520.73h-145.9v-191.95h-152.98v191.95H19.26V19.25h145.9v180.9h152.98V19.25h145.9v501.48ZM329.39,509.48h123.39V30.51h-123.39v180.9h-175.49V30.51H30.51v478.98h123.39v-191.95h175.49v191.94Z"/>
          <path class="cls-2" d="M463.58,520.28h-145.9v-191.95h-152.98v191.95H18.81V18.8h145.9v180.91h152.98V18.8h145.9v501.48ZM328.94,509.03h123.39V30.06h-123.39v180.91h-175.49V30.06H30.06v478.98h123.39v-191.95h175.49v191.94Z"/>
          <path class="cls-2" d="M463.13,519.83h-145.9v-191.95h-152.98v191.95H18.36V18.35h145.9v180.9h152.98V18.35h145.9v501.48ZM328.49,508.58h123.39V29.61h-123.39v180.9h-175.49V29.61H29.61v478.97h123.39v-191.95h175.49v191.95Z"/>
          <path class="cls-2" d="M462.69,519.39h-145.9v-191.95h-152.99v191.95H17.91V17.91h145.9v180.9h152.99V17.91h145.9v501.48ZM328.05,508.14h123.39V29.16h-123.39v180.9h-175.49V29.16H29.16v478.97h123.39v-191.95h175.49v191.95Z"/>
          <path class="cls-2" d="M462.25,518.94h-145.9v-191.95h-152.99v191.95H17.47V17.46h145.9v180.9h152.99V17.46h145.9v501.48ZM327.61,507.69h123.39V28.71h-123.39v180.9h-175.49V28.71H28.72v478.98h123.39v-191.95h175.49v191.95Z"/>
          <path class="cls-2" d="M461.8,518.49h-145.9v-191.95h-152.99v191.95H17.01V17.01h145.9v180.91h152.99V17.01h145.9v501.48ZM327.16,507.24h123.39V28.26h-123.39v180.91h-175.49V28.26H28.27v478.98h123.39v-191.95h175.49v191.95Z"/>
          <path class="cls-2" d="M461.35,518.05h-145.9v-191.95h-152.99v191.95H16.57V16.57h145.9v180.9h152.99V16.57h145.9v501.48h0ZM326.71,506.79h123.39V27.82h-123.39v180.9h-175.5V27.82H27.82v478.97h123.39v-191.95h175.5v191.95h0Z"/>
          <path class="cls-2" d="M460.9,517.6h-145.89v-191.95h-152.99v191.95H16.12V16.12h145.9v180.9h152.99V16.12h145.9v501.48h0ZM326.27,506.35h123.39V27.37h-123.39v180.9h-175.5V27.37H27.38v478.97h123.39v-191.95h175.5v191.95h0Z"/>
          <path class="cls-2" d="M460.46,517.15h-145.89v-191.95h-152.99v191.95H15.67V15.67h145.9v180.9h152.99V15.67h145.89v501.48ZM325.82,505.9h123.38V26.92h-123.38v180.9h-175.5V26.92H26.93v478.98h123.39v-191.95h175.5v191.94Z"/>
          <path class="cls-2" d="M460.02,516.7h-145.9v-191.95h-153v191.95H15.23V15.22h145.9v180.91h153V15.22h145.9v501.48ZM325.38,505.45h123.39V26.47h-123.39v180.91h-175.51V26.47H26.48v478.98h123.39v-191.95h175.51v191.94Z"/>
          <path class="cls-2" d="M459.57,516.25h-145.9v-191.95h-153v191.95H14.77V14.77h145.9v180.9h153V14.77h145.9v501.48ZM324.93,505h123.39V26.03h-123.39v180.9h-175.51V26.03H26.03v478.97h123.39v-191.95h175.51v191.95Z"/>
          <path class="cls-2" d="M459.13,515.81h-145.9v-191.95h-153v191.95H14.33V14.33h145.9v180.9h153V14.33h145.9v501.48h0ZM324.49,504.55h123.39V25.58h-123.39v180.9h-175.51V25.58H25.58v478.97h123.39v-191.95h175.51v191.95h0Z"/>
          <path class="cls-2" d="M458.68,515.36h-145.9v-191.95h-153v191.95H13.89V13.88h145.9v180.9h153V13.88h145.9v501.48h0ZM324.04,504.11h123.39V25.13h-123.39v180.9h-175.51V25.13H25.14v478.98h123.39v-191.95h175.51v191.95Z"/>
          <path class="cls-2" d="M458.23,514.91h-145.89v-191.95h-153.01v191.95H13.43V13.43h145.9v180.91h153.01V13.43h145.89v501.48ZM323.6,503.66h123.38V24.68h-123.38v180.91h-175.52V24.68H24.69v478.98h123.39v-191.95h175.52v191.95Z"/>
          <path class="cls-2" d="M457.79,514.46h-145.9v-191.95h-153.02v191.95H12.99V12.98h145.9v180.9h153.02V12.98h145.9v501.48h0ZM323.15,503.21h123.39V24.24h-123.39v180.9h-175.52V24.24H24.24v478.97h123.39v-191.95h175.52v191.95h0Z"/>
          <path class="cls-2" d="M457.34,514.01h-145.9v-191.95h-153.01v191.95H12.54V12.54h145.9v180.89h153.01V12.54h145.9v501.48ZM322.7,502.76h123.39V23.79h-123.39v180.89h-175.52V23.79H23.79v478.97h123.39v-191.95h175.52v191.95Z"/>
          <path class="cls-2" d="M456.9,513.57h-145.9v-191.95h-153.01v191.95H12.09V12.09h145.9v180.9h153.01V12.09h145.9v501.48ZM322.26,502.31h123.39V23.34h-123.39v180.9h-175.52V23.34H23.34v478.98h123.39v-191.95h175.52v191.94Z"/>
          <path class="cls-2" d="M456.45,513.12h-145.9v-191.95h-153.02v191.95H11.64V11.63h145.9v180.91h153.02V11.63h145.9v501.49ZM321.81,501.87h123.39V22.89h-123.39v180.91h-175.52V22.89H22.9v478.98h123.39v-191.95h175.52v191.95Z"/>
          <path class="cls-2" d="M456.01,512.67h-145.9v-191.95h-153.02v191.95H11.19V11.19h145.9v180.9h153.02V11.19h145.9v501.48ZM321.36,501.42h123.39V22.44h-123.39v180.9h-175.52V22.44H22.44v478.97h123.39v-191.95h175.52v191.95Z"/>
          <path class="cls-2" d="M455.56,512.22h-145.9v-191.95h-153.02v191.95H10.75V10.74h145.9v180.9h153.02V10.74h145.9v501.48h0ZM320.92,500.97h123.39V22h-123.39v180.9h-175.53V22H22.01v478.97h123.39v-191.95h175.53v191.95Z"/>
          <path class="cls-2" d="M455.12,511.78h-145.9v-191.95h-153.02v191.95H10.3V10.29h145.9v180.9h153.02V10.29h145.9v501.49ZM320.48,500.53h123.39V21.55h-123.39v180.9h-175.53V21.55H21.56v478.98h123.39v-191.95h175.53v191.95Z"/>
          <path class="cls-2" d="M454.67,511.33h-145.9v-191.95h-153.02v191.95H9.85V9.85h145.9v180.9h153.02V9.85h145.9v501.48ZM320.03,500.08h123.39V21.1h-123.39v180.9h-175.53V21.1H21.1v478.98h123.39v-191.95h175.53v191.95Z"/>
          <path class="cls-2" d="M454.22,510.88h-145.9v-191.95h-153.03v191.95H9.4V9.4h145.9v180.9h153.03V9.4h145.9v501.48ZM319.58,499.62h123.39V20.66h-123.39v180.9h-175.54V20.66H20.65v478.97h123.39v-191.95h175.54v191.94Z"/>
          <path class="cls-2" d="M453.78,510.43h-145.9v-191.95h-153.02v191.95H8.95V8.95h145.9v180.9h153.02V8.95h145.9v501.48ZM319.14,499.18h123.39V20.21h-123.39v180.9h-175.53V20.21H20.21v478.97h123.39v-191.95h175.53v191.94Z"/>
          <path class="cls-2" d="M453.33,509.99h-145.89v-191.95h-153.03v191.95H8.51V8.5h145.9v180.9h153.03V8.5h145.89v501.48ZM318.7,498.73h123.38V19.76h-123.38v180.9h-175.54V19.76H19.76v478.98h123.39v-191.95h175.54v191.95Z"/>
          <path class="cls-2" d="M452.89,509.54h-145.9v-191.95h-153.04v191.95H8.06V8.05h145.9v180.9h153.04V8.05h145.9v501.48ZM318.25,498.28h123.39V19.31h-123.39v180.9h-175.55V19.31H19.32v478.98h123.39v-191.95h175.55v191.95Z"/>
          <path class="cls-2" d="M452.44,509.09h-145.9v-191.95h-153.04v191.95H7.61V7.61h145.9v180.9h153.04V7.61h145.9v501.48ZM317.8,497.83h123.39V18.86h-123.39v180.9h-175.55V18.86H18.87v478.97h123.39v-191.95h175.55v191.95h0Z"/>
          <path class="cls-2" d="M452,508.64h-145.9v-191.95h-153.03v191.95H7.17V7.16h145.9v180.9h153.04V7.16h145.9v501.48h0ZM317.36,497.39h123.39V18.42h-123.39v180.9h-175.55V18.42H18.42v478.97h123.39v-191.95h175.55v191.95h0Z"/>
          <path class="cls-2" d="M451.55,508.2h-145.9v-191.95h-153.04v191.95H6.72V6.71h145.9v180.9h153.04V6.71h145.9v501.48h0ZM316.91,496.94h123.39V17.97h-123.39v180.9h-175.55V17.97H17.98v478.98h123.39v-191.95h175.55v191.95h0Z"/>
          <path class="cls-2" d="M451.1,507.75h-145.9v-191.95h-153.04v191.95H6.26V6.26h145.9v180.9h153.04V6.26h145.9v501.48ZM316.46,496.49h123.39V17.52h-123.39v180.9h-175.55V17.52H17.52v478.98h123.39v-191.95h175.55v191.95Z"/>
          <path class="cls-2" d="M450.66,507.29h-145.9v-191.95h-153.05v191.95H5.82V5.82h145.9v180.9h153.05V5.82h145.9v501.48h0ZM316.02,496.04h123.39V17.07h-123.39v180.9h-175.55V17.07H17.08v478.97h123.39v-191.95h175.55v191.94h0Z"/>
          <path class="cls-2" d="M450.22,506.85h-145.9v-191.95h-153.05v191.95H5.37V5.37h145.9v180.9h153.05V5.37h145.9v501.48ZM315.58,495.59h123.39V16.63h-123.39v180.9h-175.55V16.63H16.63v478.97h123.39v-191.95h175.55v191.95Z"/>
          <path class="cls-2" d="M449.77,506.41h-145.9v-191.95h-153.05v191.95H4.92V4.92h145.9v180.9h153.05V4.92h145.9v501.48ZM315.13,495.15h123.39V16.18h-123.39v180.9h-175.55V16.18H16.18v478.98h123.39v-191.95h175.55v191.95Z"/>
          <path class="cls-2" d="M449.32,505.96h-145.9v-191.95h-153.05v191.95H4.48V4.47h145.9v180.91h153.05V4.47h145.9v501.48ZM314.68,494.7h123.39V15.73h-123.39v180.91h-175.56V15.73H15.73v478.98h123.39v-191.95h175.56v191.95Z"/>
          <path class="cls-2" d="M448.87,505.51h-145.9v-191.95h-153.05v191.95H4.03V4.03h145.9v180.9h153.05V4.03h145.9v501.48ZM314.24,494.25h123.39V15.28h-123.39v180.9h-175.56V15.28H15.29v478.97h123.39v-191.95h175.56v191.95Z"/>
          <path class="cls-2" d="M448.43,505.06h-145.89v-191.95h-153.06v191.95H3.58V3.58h145.9v180.9h153.06V3.58h145.89v501.48ZM313.79,493.81h123.38V14.84h-123.38v180.9h-175.57V14.84H14.84v478.97h123.39v-191.95h175.57v191.95Z"/>
          <path class="cls-2" d="M447.99,504.62h-145.9v-191.95h-153.06v191.95H3.14V3.13h145.9v180.9h153.06V3.13h145.9v501.48ZM313.35,493.36h123.39V14.39h-123.39v180.9h-175.57V14.39H14.39v478.98h123.39v-191.95h175.57v191.95Z"/>
          <path class="cls-2" d="M447.54,504.16h-145.9v-191.95h-153.06v191.95H2.69V2.68h145.9v180.91h153.06V2.68h145.9v501.48ZM312.9,492.91h123.39V13.94h-123.39v180.91h-175.57V13.94H13.94v478.98h123.39v-191.95h175.57v191.94Z"/>
          <path class="cls-2" d="M447.1,503.71h-145.9v-191.95h-153.06v191.95H2.24V2.24h145.9v180.9h153.06V2.24h145.9v501.48ZM312.45,492.46h123.39V13.49h-123.39v180.9h-175.57V13.49H13.49v478.97h123.39v-191.95h175.57v191.94Z"/>
          <path class="cls-2" d="M446.65,503.27h-145.9v-191.95h-153.06v191.95H1.79V1.79h145.9v180.9h153.06V1.79h145.9v501.48ZM312.01,492.02h123.39V13.04h-123.39v180.9h-175.57V13.04H13.04v478.97h123.39v-191.95h175.57v191.95Z"/>
          <path class="cls-2" d="M446.2,502.82h-145.89v-191.95h-153.07v191.95H1.35V1.34h145.9v180.9h153.07V1.34h145.89v501.48ZM311.57,491.57h123.38V12.59h-123.38v180.9h-175.58V12.59H12.6v478.98h123.39v-191.95h175.58v191.95Z"/>
          <path class="cls-2" d="M445.76,502.37h-145.9v-191.95h-153.06v191.95H.9V.89h145.9v180.91h153.07V.89h145.9v501.48h0ZM311.12,491.12h123.39V12.14h-123.39v180.91h-175.57V12.14H12.15v478.98h123.39v-191.95h175.58v191.95h0Z"/>
          <path class="cls-2" d="M445.31,501.93h-145.9v-191.95h-153.08v191.95H.45V.45h145.9v180.9h153.08V.45h145.9v501.48ZM310.67,490.67h123.39V11.7h-123.39v180.9h-175.58V11.7H11.7v478.97h123.39v-191.95h175.58v191.95Z"/>
          <path class="cls-2" d="M444.87,501.48h-145.9v-191.95h-153.08v191.95H0V0h145.9v180.9h153.08V0h145.9v501.48ZM310.23,490.23h123.39V11.25h-123.39v180.9h-175.58V11.25H11.25v478.97h123.39v-191.95h175.58v191.95Z"/>
        </g>
        <g>
          <path class="cls-2" d="M496.11,552.97h-145.9v-191.95h-152.9v191.95H51.42V51.49h145.9v180.9h152.9V51.49h145.9v501.48ZM361.47,541.72h123.39V62.75h-123.39v180.9h-175.41V62.75H62.67v478.97h123.39v-191.95h175.41v191.95Z"/>
          <path class="cls-2" d="M495.66,552.52h-145.9v-191.95h-152.89v191.95H50.97V51.04h145.9v180.9h152.89V51.04h145.9v501.48ZM361.02,541.27h123.39V62.3h-123.39v180.9h-175.4V62.3H62.22v478.98h123.39v-191.95h175.4v191.94Z"/>
          <path class="cls-2" d="M495.21,552.07h-145.88v-191.95h-152.91v191.95H50.52V50.59h145.9v180.91h152.91V50.59h145.89v501.48h0ZM360.58,540.82h123.38V61.84h-123.38v180.91h-175.42V61.84H61.78v478.98h123.39v-191.95h175.42v191.95Z"/>
          <path class="cls-2" d="M494.77,551.62h-145.9v-191.95h-152.91v191.95H50.07V50.14h145.9v180.9h152.91V50.14h145.9v501.48ZM360.13,540.37h123.39V61.4h-123.39v180.9h-175.42V61.4H61.32v478.97h123.39v-191.95h175.42v191.95Z"/>
          <path class="cls-2" d="M494.33,551.18h-145.9v-191.95h-152.91v191.95H49.62V49.7h145.9v180.9h152.91V49.7h145.9v501.48ZM359.68,539.93h123.39V60.95h-123.39v180.9h-175.42V60.95H60.87v478.97h123.39v-191.95h175.42v191.95Z"/>
          <path class="cls-2" d="M493.88,550.73h-145.9v-191.95h-152.91v191.95H49.18V49.25h145.9v180.9h152.91V49.25h145.9v501.48ZM359.24,539.48h123.39V60.5h-123.39v180.9h-175.42V60.5H60.43v478.98h123.39v-191.95h175.42v191.95Z"/>
          <path class="cls-2" d="M493.43,550.28h-145.9v-191.95h-152.91v191.95H48.73V48.8h145.9v180.91h152.91V48.8h145.9v501.48ZM358.79,539.03h123.39V60.05h-123.39v180.91h-175.42V60.05H59.98v478.98h123.39v-191.95h175.42v191.95Z"/>
          <path class="cls-2" d="M492.99,549.84h-145.89v-191.95h-152.92v191.95H48.28V48.36h145.9v180.9h152.92V48.36h145.89v501.48ZM358.35,538.58h123.38V59.61h-123.38v180.9h-175.43V59.61H59.53v478.97h123.39v-191.95h175.43v191.95Z"/>
          <path class="cls-2" d="M492.55,549.39h-145.9v-191.95h-152.92v191.95H47.83V47.91h145.9v180.9h152.92V47.91h145.9v501.48ZM357.91,538.13h123.39V59.17h-123.39v180.9h-175.43V59.17H59.09v478.97h123.39v-191.95h175.43v191.94Z"/>
          <path class="cls-2" d="M492.1,548.94h-145.9v-191.95h-152.91v191.95H47.38V47.46h145.9v180.9h152.91V47.46h145.9v501.48ZM357.46,537.69h123.39V58.72h-123.39v180.9h-175.42V58.72H58.64v478.97h123.39v-191.95h175.42v191.95Z"/>
          <path class="cls-2" d="M491.65,548.49h-145.9v-191.95h-152.92v191.95H46.94V47.01h145.9v180.91h152.92V47.01h145.9v501.49ZM357.01,537.24h123.39V58.26h-123.39v180.91h-175.43V58.26H58.2v478.98h123.39v-191.95h175.43v191.95Z"/>
          <path class="cls-2" d="M491.2,548.04h-145.9v-191.95h-152.92v191.95H46.48V46.56h145.9v180.9h152.92V46.56h145.9v501.48ZM356.56,536.79h123.39V57.82h-123.39v180.9h-175.43V57.82H57.74v478.97h123.39v-191.95h175.43v191.95Z"/>
          <path class="cls-2" d="M490.76,547.6h-145.9v-191.95h-152.92v191.95H46.04V46.12h145.9v180.9h152.92V46.12h145.9v501.48ZM356.12,536.34h123.39V57.37h-123.39v180.9h-175.43V57.37H57.3v478.97h123.39v-191.95h175.43v191.95Z"/>
          <path class="cls-2" d="M490.31,547.15h-145.89v-191.95h-152.93v191.95H45.6V45.67h145.9v180.9h152.93V45.67h145.89v501.48ZM355.68,535.9h123.38V56.92h-123.38v180.9h-175.44V56.92H56.85v478.98h123.39v-191.95h175.44v191.95Z"/>
          <path class="cls-2" d="M489.87,546.71h-145.9v-191.95h-152.93v191.95H45.14V45.22h145.9v180.91h152.93V45.22h145.9v501.49ZM355.23,535.45h123.39V56.47h-123.39v180.91h-175.44V56.47H56.4v478.98h123.39v-191.95h175.44v191.95Z"/>
          <path class="cls-2" d="M489.42,546.25h-145.9v-191.95h-152.94v191.95H44.69V44.77h145.9v180.9h152.94V44.77h145.9v501.48ZM354.79,535h123.39V56.03h-123.39v180.9h-175.45V56.03H55.95v478.97h123.39v-191.95h175.45v191.94Z"/>
          <path class="cls-2" d="M488.98,545.8h-145.9v-191.95h-152.93v191.95H44.25V44.33h145.9v180.9h152.93V44.33h145.9v501.48h0ZM354.34,534.55h123.39V55.58h-123.39v180.9h-175.44V55.58H55.51v478.97h123.39v-191.95h175.44v191.94Z"/>
          <path class="cls-2" d="M488.53,545.36h-145.9v-191.95h-152.93v191.95H43.8V43.87h145.9v180.9h152.93V43.87h145.9v501.48ZM353.89,534.1h123.39V55.13h-123.39v180.9h-175.44V55.13H55.06v478.98h123.39v-191.95h175.44v191.95Z"/>
          <path class="cls-2" d="M488.08,544.91h-145.89v-191.95h-152.94v191.95H43.35V43.42h145.9v180.91h152.94V43.42h145.89v501.49h0ZM353.45,533.66h123.38V54.68h-123.38v180.91h-175.45V54.68H54.61v478.98h123.39v-191.95h175.45v191.95h0Z"/>
          <path class="cls-2" d="M487.64,544.46h-145.9v-191.95h-152.94v191.95H42.9V42.98h145.9v180.9h152.94V42.98h145.9v501.48h0ZM353,533.21h123.39V54.24h-123.39v180.9h-175.45V54.24H54.15v478.97h123.39v-191.95h175.45v191.95Z"/>
          <path class="cls-2" d="M487.2,544.02h-145.9v-191.95h-152.95v191.95H42.46V42.54h145.9v180.9h152.94V42.54h145.9v501.48h0ZM352.56,532.76h123.39V53.79h-123.39v180.9h-175.45V53.79H53.72v478.97h123.39v-191.95h175.45v191.95h0Z"/>
          <path class="cls-2" d="M486.75,543.57h-145.9v-191.95h-152.94v191.95H42.02V42.09h145.9v180.9h152.94V42.09h145.9v501.49h0ZM352.11,532.32h123.39V53.34h-123.39v180.9h-175.45V53.34H53.27v478.98h123.39v-191.95h175.45v191.95h0Z"/>
          <path class="cls-2" d="M486.3,543.12h-145.9v-191.95h-152.94v191.95H41.56V41.64h145.9v180.9h152.94V41.64h145.9v501.48ZM351.66,531.86h123.39V52.89h-123.39v180.9h-175.45V52.89H52.82v478.98h123.39v-191.95h175.45v191.94Z"/>
          <path class="cls-2" d="M485.86,542.67h-145.9v-191.95h-152.95v191.95H41.12V41.19h145.9v180.9h152.95V41.19h145.9v501.48ZM351.22,531.41h123.39V52.45h-123.39v180.9h-175.46V52.45H52.37v478.97h123.39v-191.95h175.46v191.94Z"/>
          <path class="cls-2" d="M485.42,542.22h-145.9v-191.95h-152.95v191.95H40.67V40.74h145.9v180.9h152.95V40.74h145.9v501.48ZM350.77,530.97h123.39V52h-123.39v180.9h-175.46V52H51.92v478.97h123.39v-191.95h175.46v191.95Z"/>
          <path class="cls-2" d="M484.97,541.78h-145.9v-191.95h-152.95v191.95H40.22V40.3h145.9v180.9h152.95V40.3h145.9v501.48ZM350.33,530.53h123.39V51.55h-123.39v180.9h-175.46V51.55H51.48v478.98h123.39v-191.95h175.46v191.95Z"/>
          <path class="cls-2" d="M484.52,541.33h-145.9v-191.95h-152.96v191.95H39.78V39.85h145.9v180.91h152.96V39.85h145.9v501.48ZM349.88,530.08h123.39V51.1h-123.39v180.91h-175.46V51.1H51.03v478.98h123.39v-191.95h175.46v191.95Z"/>
          <path class="cls-2" d="M484.08,540.88h-145.9v-191.95h-152.96v191.95H39.33V39.4h145.9v180.9h152.96V39.4h145.9v501.48ZM349.44,529.63h123.39V50.65h-123.39v180.9h-175.46V50.65H50.58v478.97h123.39v-191.95h175.46v191.95Z"/>
          <path class="cls-2" d="M483.63,540.44h-145.9v-191.95h-152.96v191.95H38.88V38.96h145.9v180.9h152.96V38.96h145.9v501.48ZM348.99,529.18h123.39V50.21h-123.39v180.9h-175.46V50.21H50.14v478.97h123.39v-191.95h175.46v191.95Z"/>
          <path class="cls-2" d="M483.18,539.99h-145.89v-191.95h-152.96v191.95H38.43V38.51h145.9v180.9h152.96V38.51h145.89v501.48ZM348.55,528.74h123.38V49.76h-123.38v180.9h-175.47V49.76H49.69v478.98h123.39v-191.95h175.47v191.95Z"/>
          <path class="cls-2" d="M482.74,539.54h-145.9v-191.95h-152.96v191.95H37.98V38.06h145.9v180.9h152.96V38.06h145.9v501.48ZM348.1,528.28h123.39V49.31h-123.39v180.9h-175.47V49.31H49.24v478.98h123.39v-191.95h175.47v191.94Z"/>
          <path class="cls-2" d="M482.3,539.09h-145.9v-191.95h-152.96v191.95H37.53V37.61h145.9v180.9h152.96V37.61h145.9v501.48ZM347.65,527.83h123.39V48.86h-123.39v180.9h-175.47V48.86H48.79v478.97h123.39v-191.95h175.47v191.94Z"/>
          <path class="cls-2" d="M481.85,538.64h-145.9v-191.95h-152.96v191.95H37.09V37.16h145.9v180.9h152.96V37.16h145.9v501.48ZM347.21,527.39h123.39V48.42h-123.39v180.9h-175.47V48.42H48.34v478.97h123.39v-191.95h175.47v191.95Z"/>
          <path class="cls-2" d="M481.4,538.2h-145.9v-191.95h-152.96v191.95H36.64V36.71h145.9v180.9h152.96V36.71h145.9v501.48ZM346.76,526.94h123.39V47.97h-123.39v180.9h-175.47V47.97H47.89v478.98h123.39v-191.95h175.47v191.95Z"/>
          <path class="cls-2" d="M480.96,537.75h-145.89v-191.95h-152.97v191.95H36.19V36.26h145.9v180.91h152.97V36.26h145.89v501.48ZM346.32,526.49h123.38V47.52h-123.38v180.91h-175.48V47.52H47.45v478.98h123.39v-191.95h175.48v191.95Z"/>
          <path class="cls-2" d="M480.51,537.3h-145.89v-191.95h-152.98v191.95H35.75V35.82h145.9v180.9h152.98V35.82h145.9v501.48h0ZM345.88,526.04h123.39V47.07h-123.39v180.9h-175.49V47.07H47v478.97h123.39v-191.95h175.49v191.95Z"/>
          <path class="cls-2" d="M480.07,536.85h-145.9v-191.95h-152.98v191.95H35.3V35.37h145.9v180.9h152.98V35.37h145.9v501.48ZM345.43,525.6h123.39V46.63h-123.39v180.9h-175.49V46.63H46.55v478.97h123.39v-191.95h175.49v191.95Z"/>
          <path class="cls-2" d="M479.62,536.4h-145.9v-191.95h-152.98v191.95H34.85V34.92h145.9v180.9h152.98V34.92h145.9v501.48ZM344.98,525.15h123.39V46.18h-123.39v180.9h-175.49V46.18H46.11v478.98h123.39v-191.95h175.49v191.94Z"/>
          <path class="cls-2" d="M479.17,535.95h-145.9v-191.95h-152.98v191.95H34.4V34.47h145.9v180.91h152.98V34.47h145.9v501.48ZM344.53,524.7h123.39V45.73h-123.39v180.91h-175.49V45.73H45.66v478.98h123.39v-191.95h175.49v191.94Z"/>
          <path class="cls-2" d="M478.73,535.5h-145.9v-191.95h-152.98v191.95H33.95V34.02h145.9v180.9h152.98V34.02h145.9v501.48ZM344.09,524.25h123.39V45.28h-123.39v180.9h-175.49V45.28H45.2v478.97h123.39v-191.95h175.49v191.95Z"/>
          <path class="cls-2" d="M478.29,535.06h-145.9v-191.95h-152.99v191.95H33.5V33.58h145.9v180.9h152.99V33.58h145.9v501.48ZM343.65,523.81h123.39V44.83h-123.39v180.9h-175.49V44.83H44.76v478.97h123.39v-191.95h175.49v191.95Z"/>
          <path class="cls-2" d="M477.84,534.61h-145.9v-191.95h-152.99v191.95H33.06V33.13h145.9v180.9h152.99V33.13h145.9v501.48ZM343.2,523.36h123.39V44.38h-123.39v180.9h-175.49V44.38H44.32v478.98h123.39v-191.95h175.49v191.95Z"/>
          <path class="cls-2" d="M477.39,534.16h-145.9v-191.95h-152.99v191.95H32.61V32.68h145.9v180.91h152.99V32.68h145.9v501.48ZM342.75,522.91h123.39V43.93h-123.39v180.91h-175.49V43.93H43.86v478.98h123.39v-191.95h175.49v191.95Z"/>
          <path class="cls-2" d="M476.95,533.72h-145.9v-191.95h-152.99v191.95H32.16V32.24h145.9v180.9h152.99V32.24h145.9v501.48h0ZM342.31,522.46h123.39V43.49h-123.39v180.9h-175.5V43.49H43.42v478.97h123.39v-191.95h175.5v191.95h0Z"/>
          <path class="cls-2" d="M476.5,533.27h-145.89v-191.95h-152.99v191.95H31.72V31.79h145.9v180.9h152.99V31.79h145.9v501.48h0ZM341.86,522.02h123.39V43.05h-123.39v180.9h-175.5V43.05H42.97v478.97h123.39v-191.95h175.5v191.95h0Z"/>
          <path class="cls-2" d="M476.05,532.82h-145.89v-191.95h-152.99v191.95H31.27V31.34h145.9v180.9h152.99V31.34h145.89v501.48ZM341.42,521.57h123.38V42.6h-123.38v180.9h-175.5V42.6H42.52v478.98h123.39v-191.95h175.5v191.94Z"/>
          <path class="cls-2" d="M475.61,532.37h-145.9v-191.95h-153v191.95H30.82V30.89h145.9v180.91h153V30.89h145.9v501.48ZM340.97,521.12h123.39V42.15h-123.39v180.91h-175.51V42.15H42.08v478.98h123.39v-191.95h175.51v191.94Z"/>
          <path class="cls-2" d="M475.17,531.92h-145.9v-191.95h-153v191.95H30.37V30.44h145.9v180.9h153V30.44h145.9v501.48ZM340.53,520.67h123.39V41.7h-123.39v180.9h-175.51V41.7H41.62v478.97h123.39v-191.95h175.51v191.95Z"/>
          <path class="cls-2" d="M474.72,531.48h-145.9v-191.95h-153v191.95H29.92V30h145.9v180.9h153V30h145.9v501.48h0ZM340.08,520.22h123.39V41.25h-123.39v180.9h-175.51V41.25H41.18v478.97h123.39v-191.95h175.51v191.95h0Z"/>
          <path class="cls-2" d="M474.27,531.03h-145.9v-191.95h-153v191.95H29.48V29.55h145.9v180.9h153V29.55h145.9v501.48h0ZM339.63,519.78h123.39V40.8h-123.39v180.9h-175.51V40.8H40.74v478.98h123.39v-191.95h175.51v191.95Z"/>
          <path class="cls-2" d="M473.82,530.58h-145.89v-191.95h-153.01v191.95H29.02V29.1h145.9v180.91h153.01V29.1h145.89v501.48ZM339.19,519.33h123.38V40.35h-123.38v180.91h-175.52V40.35H40.28v478.98h123.39v-191.95h175.52v191.95Z"/>
          <path class="cls-2" d="M473.39,530.14h-145.9v-191.95h-153.02v191.95H28.58V28.66h145.9v180.9h153.02V28.66h145.9v501.48h0ZM338.74,518.88h123.39V39.91h-123.39v180.9h-175.52V39.91H39.84v478.97h123.39v-191.95h175.52v191.95h0Z"/>
          <path class="cls-2" d="M472.94,529.68h-145.9v-191.95h-153.01v191.95H28.13V28.21h145.9v180.89h153.01V28.21h145.9v501.48ZM338.3,518.43h123.39V39.46h-123.39v180.89h-175.52V39.46H39.39v478.97h123.39v-191.95h175.52v191.95Z"/>
          <path class="cls-2" d="M472.49,529.24h-145.9v-191.95h-153.01v191.95H27.69V27.76h145.9v180.9h153.01V27.76h145.9v501.48ZM337.85,517.98h123.39V39.01h-123.39v180.9h-175.52V39.01H38.94v478.98h123.39v-191.95h175.52v191.94Z"/>
          <path class="cls-2" d="M472.05,528.79h-145.9v-191.95h-153.02v191.95H27.24V27.3h145.9v180.91h153.02V27.3h145.9v501.49ZM337.4,517.54h123.39V38.56h-123.39v180.91h-175.52V38.56H38.49v478.98h123.39v-191.95h175.52v191.95Z"/>
          <path class="cls-2" d="M471.6,528.34h-145.9v-191.95h-153.02v191.95H26.78V26.86h145.9v180.9h153.02V26.86h145.9v501.48ZM336.96,517.09h123.39V38.12h-123.39v180.9h-175.52V38.12H38.04v478.97h123.39v-191.95h175.52v191.95Z"/>
          <path class="cls-2" d="M471.16,527.9h-145.9v-191.95h-153.02v191.95H26.34V26.42h145.9v180.9h153.02V26.42h145.9v501.48h0ZM336.52,516.64h123.39V37.67h-123.39v180.9h-175.53V37.67H37.6v478.97h123.39v-191.95h175.53v191.95Z"/>
          <path class="cls-2" d="M470.71,527.45h-145.9v-191.95h-153.02v191.95H25.9V25.97h145.9v180.9h153.02V25.97h145.9v501.49ZM336.07,516.2h123.39V37.22h-123.39v180.9h-175.53V37.22H37.15v478.98h123.39v-191.95h175.53v191.95Z"/>
          <path class="cls-2" d="M470.26,527h-145.9v-191.95h-153.02v191.95H25.44V25.52h145.9v180.9h153.02V25.52h145.9v501.48ZM335.62,515.75h123.39V36.77h-123.39v180.9h-175.53V36.77H36.7v478.98h123.39v-191.95h175.53v191.95Z"/>
          <path class="cls-2" d="M469.82,526.55h-145.9v-191.95h-153.03v191.95H25V25.07h145.9v180.9h153.03V25.07h145.9v501.48ZM335.18,515.29h123.39V36.33h-123.39v180.9h-175.54V36.33H36.25v478.97h123.39v-191.95h175.54v191.94Z"/>
          <path class="cls-2" d="M469.37,526.1h-145.9v-191.95h-153.02v191.95H24.55V24.63h145.9v180.9h153.02V24.63h145.9v501.48ZM334.73,514.85h123.39V35.88h-123.39v180.9h-175.53V35.88H35.8v478.97h123.39v-191.95h175.53v191.94Z"/>
          <path class="cls-2" d="M468.93,525.66h-145.89v-191.95h-153.03v191.95H24.1V24.18h145.9v180.9h153.03V24.18h145.89v501.48ZM334.29,514.41h123.38V35.43h-123.38v180.9h-175.54V35.43H35.36v478.98h123.39v-191.95h175.54v191.95Z"/>
          <path class="cls-2" d="M468.48,525.21h-145.9v-191.95h-153.04v191.95H23.65V23.73h145.9v180.9h153.04V23.73h145.9v501.48ZM333.84,513.96h123.39V34.98h-123.39v180.9h-175.55V34.98H34.91v478.98h123.39v-191.95h175.55v191.95Z"/>
          <path class="cls-2" d="M468.04,524.76h-145.9v-191.95h-153.04v191.95H23.21V23.28h145.9v180.9h153.04V23.28h145.9v501.48ZM333.4,513.51h123.39V34.53h-123.39v180.9h-175.55V34.53H34.46v478.97h123.39v-191.95h175.55v191.95h0Z"/>
          <path class="cls-2" d="M467.59,524.31h-145.9v-191.95h-153.03v191.95H22.76V22.83h145.9v180.9h153.04V22.83h145.9v501.48h0ZM332.95,513.06h123.39V34.09h-123.39v180.9h-175.55V34.09H34.02v478.97h123.39v-191.95h175.55v191.95h0Z"/>
          <path class="cls-2" d="M467.14,523.87h-145.9v-191.95h-153.04v191.95H22.32V22.39h145.9v180.9h153.04V22.39h145.9v501.48h0ZM332.5,512.62h123.39V33.64h-123.39v180.9h-175.55V33.64H33.57v478.98h123.39v-191.95h175.55v191.95h0Z"/>
          <path class="cls-2" d="M466.7,523.42h-145.9v-191.95h-153.04v191.95H21.86V21.94h145.9v180.9h153.04V21.94h145.9v501.48ZM332.06,512.17h123.39V33.19h-123.39v180.9h-175.55V33.19H33.11v478.98h123.39v-191.95h175.55v191.95Z"/>
          <path class="cls-2" d="M466.26,522.97h-145.9v-191.95h-153.05v191.95H21.42V21.49h145.9v180.9h153.05V21.49h145.9v501.48h0ZM331.62,511.71h123.39V32.74h-123.39v180.9h-175.55V32.74H32.67v478.97h123.39v-191.95h175.55v191.94h0Z"/>
          <path class="cls-2" d="M465.81,522.52h-145.9v-191.95h-153.05v191.95H20.97V21.04h145.9v180.9h153.05V21.04h145.9v501.48ZM331.17,511.27h123.39V32.3h-123.39v180.9h-175.55V32.3H32.22v478.97h123.39v-191.95h175.55v191.95Z"/>
          <path class="cls-2" d="M465.36,522.08h-145.9v-191.95h-153.05v191.95H20.52V20.59h145.9v180.9h153.05V20.59h145.9v501.48ZM330.72,510.82h123.39V31.85h-123.39v180.9h-175.55V31.85H31.77v478.98h123.39v-191.95h175.55v191.95Z"/>
          <path class="cls-2" d="M464.92,521.63h-145.9v-191.95h-153.05v191.95H20.07V20.14h145.9v180.91h153.05V20.14h145.9v501.48ZM330.28,510.37h123.39V31.4h-123.39v180.91h-175.56V31.4H31.33v478.98h123.39v-191.95h175.56v191.95Z"/>
          <path class="cls-2" d="M464.47,521.18h-145.9v-191.95h-153.05v191.95H19.62V19.7h145.9v180.9h153.05V19.7h145.9v501.48ZM329.83,509.92h123.39V30.95h-123.39v180.9h-175.56V30.95H30.88v478.97h123.39v-191.95h175.56v191.95Z"/>
          <path class="cls-2" d="M464.02,520.73h-145.89v-191.95h-153.06v191.95H19.18V19.25h145.9v180.9h153.06V19.25h145.89v501.48ZM329.39,509.48h123.38V30.51h-123.38v180.9h-175.57V30.51H30.43v478.97h123.39v-191.95h175.57v191.95Z"/>
          <path class="cls-2" d="M463.58,520.29h-145.9v-191.95h-153.06v191.95H18.73V18.8h145.9v180.9h153.06V18.8h145.9v501.48ZM328.94,509.03h123.39V30.06h-123.39v180.9h-175.57V30.06H29.98v478.98h123.39v-191.95h175.57v191.95Z"/>
          <path class="cls-2" d="M463.14,519.83h-145.9v-191.95h-153.06v191.95H18.28V18.35h145.9v180.91h153.06V18.35h145.9v501.48ZM328.5,508.58h123.39V29.61h-123.39v180.91h-175.57V29.61H29.54v478.98h123.39v-191.95h175.57v191.94Z"/>
          <path class="cls-2" d="M462.69,519.38h-145.9v-191.95h-153.06v191.95H17.83V17.91h145.9v180.9h153.06V17.91h145.9v501.48ZM328.05,508.13h123.39V29.16h-123.39v180.9h-175.57V29.16H29.08v478.97h123.39v-191.95h175.57v191.94Z"/>
          <path class="cls-2" d="M462.24,518.94h-145.9v-191.95h-153.06v191.95H17.38V17.46h145.9v180.9h153.06V17.46h145.9v501.48ZM327.6,507.69h123.39V28.72h-123.39v180.9h-175.57V28.72H28.64v478.97h123.39v-191.95h175.57v191.95Z"/>
          <path class="cls-2" d="M461.79,518.49h-145.89v-191.95h-153.07v191.95H16.94V17.01h145.9v180.9h153.07V17.01h145.89v501.48ZM327.16,507.24h123.38V28.27h-123.38v180.9h-175.58V28.27H28.2v478.98h123.39v-191.95h175.58v191.95Z"/>
          <path class="cls-2" d="M461.35,518.04h-145.9v-191.95h-153.06v191.95H16.49V16.56h145.9v180.91h153.07V16.56h145.9v501.48h0ZM326.71,506.79h123.39V27.81h-123.39v180.91h-175.57V27.81H27.75v478.98h123.39v-191.95h175.58v191.95h0Z"/>
          <path class="cls-2" d="M460.91,517.6h-145.9v-191.95h-153.08v191.95H16.04V16.12h145.9v180.9h153.08V16.12h145.9v501.48ZM326.27,506.34h123.39V27.37h-123.39v180.9h-175.58V27.37H27.3v478.97h123.39v-191.95h175.58v191.95Z"/>
          <path class="cls-2" d="M460.46,517.15h-145.9v-191.95h-153.08v191.95H15.59V15.67h145.9v180.9h153.08V15.67h145.9v501.48ZM325.82,505.9h123.39V26.93h-123.39v180.9h-175.58V26.93H26.85v478.97h123.39v-191.95h175.58v191.95Z"/>
        </g>
        <path class="cls-1" d="M472.66,39.21v490.23h-134.64v-191.95h-164.33v191.95H39.04V39.21h134.64v180.9h164.33V39.21h134.64Z"/>
        <path class="cls-3" d="M474.54,531.31h-138.39v-191.95h-160.58v191.95H37.17V37.33h138.4v180.9h160.58V37.33h138.39v493.98ZM339.9,527.56h130.89V41.08h-130.89v180.9h-168.08V41.08H40.92v486.47h130.9v-191.95h168.08v191.95Z"/>
        <g class="cls-4">
          <path class="cls-2" d="M496.11,552.97h-145.9v-191.95h-152.9v191.95H51.42V51.49h145.9v180.9h152.9V51.49h145.9v501.48ZM361.47,541.72h123.39V62.75h-123.39v180.9h-175.41V62.75H62.67v478.97h123.39v-191.95h175.41v191.95Z"/>
          <path class="cls-2" d="M495.66,552.52h-145.9v-191.95h-152.89v191.95H50.97V51.04h145.9v180.9h152.89V51.04h145.9v501.48ZM361.02,541.27h123.39V62.3h-123.39v180.9h-175.4V62.3H62.22v478.98h123.39v-191.95h175.4v191.94Z"/>
          <path class="cls-2" d="M495.21,552.07h-145.88v-191.95h-152.91v191.95H50.52V50.59h145.9v180.91h152.91V50.59h145.89v501.48h0ZM360.58,540.82h123.38V61.84h-123.38v180.91h-175.42V61.84H61.78v478.98h123.39v-191.95h175.42v191.95Z"/>
          <path class="cls-2" d="M494.77,551.62h-145.9v-191.95h-152.91v191.95H50.07V50.14h145.9v180.9h152.91V50.14h145.9v501.48ZM360.13,540.37h123.39V61.4h-123.39v180.9h-175.42V61.4H61.32v478.97h123.39v-191.95h175.42v191.95Z"/>
          <path class="cls-2" d="M494.33,551.18h-145.9v-191.95h-152.91v191.95H49.62V49.7h145.9v180.9h152.91V49.7h145.9v501.48ZM359.68,539.93h123.39V60.95h-123.39v180.9h-175.42V60.95H60.87v478.97h123.39v-191.95h175.42v191.95Z"/>
          <path class="cls-2" d="M493.88,550.73h-145.9v-191.95h-152.91v191.95H49.18V49.25h145.9v180.9h152.91V49.25h145.9v501.48ZM359.24,539.48h123.39V60.5h-123.39v180.9h-175.42V60.5H60.43v478.98h123.39v-191.95h175.42v191.95Z"/>
          <path class="cls-2" d="M493.43,550.28h-145.9v-191.95h-152.91v191.95H48.73V48.8h145.9v180.91h152.91V48.8h145.9v501.48ZM358.79,539.03h123.39V60.05h-123.39v180.91h-175.42V60.05H59.98v478.98h123.39v-191.95h175.42v191.95Z"/>
          <path class="cls-2" d="M492.99,549.84h-145.89v-191.95h-152.92v191.95H48.28V48.36h145.9v180.9h152.92V48.36h145.89v501.48ZM358.35,538.58h123.38V59.61h-123.38v180.9h-175.43V59.61H59.53v478.97h123.39v-191.95h175.43v191.95Z"/>
          <path class="cls-2" d="M492.55,549.39h-145.9v-191.95h-152.92v191.95H47.83V47.91h145.9v180.9h152.92V47.91h145.9v501.48ZM357.91,538.13h123.39V59.17h-123.39v180.9h-175.43V59.17H59.09v478.97h123.39v-191.95h175.43v191.94Z"/>
          <path class="cls-2" d="M492.1,548.94h-145.9v-191.95h-152.91v191.95H47.38V47.46h145.9v180.9h152.91V47.46h145.9v501.48ZM357.46,537.69h123.39V58.72h-123.39v180.9h-175.42V58.72H58.64v478.97h123.39v-191.95h175.42v191.95Z"/>
          <path class="cls-2" d="M491.65,548.49h-145.9v-191.95h-152.92v191.95H46.94V47.01h145.9v180.91h152.92V47.01h145.9v501.49ZM357.01,537.24h123.39V58.26h-123.39v180.91h-175.43V58.26H58.2v478.98h123.39v-191.95h175.43v191.95Z"/>
          <path class="cls-2" d="M491.2,548.04h-145.9v-191.95h-152.92v191.95H46.48V46.56h145.9v180.9h152.92V46.56h145.9v501.48ZM356.56,536.79h123.39V57.82h-123.39v180.9h-175.43V57.82H57.74v478.97h123.39v-191.95h175.43v191.95Z"/>
          <path class="cls-2" d="M490.76,547.6h-145.9v-191.95h-152.92v191.95H46.04V46.12h145.9v180.9h152.92V46.12h145.9v501.48ZM356.12,536.34h123.39V57.37h-123.39v180.9h-175.43V57.37H57.3v478.97h123.39v-191.95h175.43v191.95Z"/>
          <path class="cls-2" d="M490.31,547.15h-145.89v-191.95h-152.93v191.95H45.6V45.67h145.9v180.9h152.93V45.67h145.89v501.48ZM355.68,535.9h123.38V56.92h-123.38v180.9h-175.44V56.92H56.85v478.98h123.39v-191.95h175.44v191.95Z"/>
          <path class="cls-2" d="M489.87,546.71h-145.9v-191.95h-152.93v191.95H45.14V45.22h145.9v180.91h152.93V45.22h145.9v501.49ZM355.23,535.45h123.39V56.47h-123.39v180.91h-175.44V56.47H56.4v478.98h123.39v-191.95h175.44v191.95Z"/>
          <path class="cls-2" d="M489.42,546.25h-145.9v-191.95h-152.94v191.95H44.69V44.77h145.9v180.9h152.94V44.77h145.9v501.48ZM354.79,535h123.39V56.03h-123.39v180.9h-175.45V56.03H55.95v478.97h123.39v-191.95h175.45v191.94Z"/>
          <path class="cls-2" d="M488.98,545.8h-145.9v-191.95h-152.93v191.95H44.25V44.33h145.9v180.9h152.93V44.33h145.9v501.48h0ZM354.34,534.55h123.39V55.58h-123.39v180.9h-175.44V55.58H55.51v478.97h123.39v-191.95h175.44v191.94Z"/>
          <path class="cls-2" d="M488.53,545.36h-145.9v-191.95h-152.93v191.95H43.8V43.87h145.9v180.9h152.93V43.87h145.9v501.48ZM353.89,534.1h123.39V55.13h-123.39v180.9h-175.44V55.13H55.06v478.98h123.39v-191.95h175.44v191.95Z"/>
          <path class="cls-2" d="M488.08,544.91h-145.89v-191.95h-152.94v191.95H43.35V43.42h145.9v180.91h152.94V43.42h145.89v501.49h0ZM353.45,533.66h123.38V54.68h-123.38v180.91h-175.45V54.68H54.61v478.98h123.39v-191.95h175.45v191.95h0Z"/>
          <path class="cls-2" d="M487.64,544.46h-145.9v-191.95h-152.94v191.95H42.9V42.98h145.9v180.9h152.94V42.98h145.9v501.48h0ZM353,533.21h123.39V54.24h-123.39v180.9h-175.45V54.24H54.15v478.97h123.39v-191.95h175.45v191.95Z"/>
          <path class="cls-2" d="M487.2,544.02h-145.9v-191.95h-152.95v191.95H42.46V42.54h145.9v180.9h152.94V42.54h145.9v501.48h0ZM352.56,532.76h123.39V53.79h-123.39v180.9h-175.45V53.79H53.72v478.97h123.39v-191.95h175.45v191.95h0Z"/>
          <path class="cls-2" d="M486.75,543.57h-145.9v-191.95h-152.94v191.95H42.02V42.09h145.9v180.9h152.94V42.09h145.9v501.49h0ZM352.11,532.32h123.39V53.34h-123.39v180.9h-175.45V53.34H53.27v478.98h123.39v-191.95h175.45v191.95h0Z"/>
          <path class="cls-2" d="M486.3,543.12h-145.9v-191.95h-152.94v191.95H41.56V41.64h145.9v180.9h152.94V41.64h145.9v501.48ZM351.66,531.86h123.39V52.89h-123.39v180.9h-175.45V52.89H52.82v478.98h123.39v-191.95h175.45v191.94Z"/>
          <path class="cls-2" d="M485.86,542.67h-145.9v-191.95h-152.95v191.95H41.12V41.19h145.9v180.9h152.95V41.19h145.9v501.48ZM351.22,531.41h123.39V52.45h-123.39v180.9h-175.46V52.45H52.37v478.97h123.39v-191.95h175.46v191.94Z"/>
          <path class="cls-2" d="M485.42,542.22h-145.9v-191.95h-152.95v191.95H40.67V40.74h145.9v180.9h152.95V40.74h145.9v501.48ZM350.77,530.97h123.39V52h-123.39v180.9h-175.46V52H51.92v478.97h123.39v-191.95h175.46v191.95Z"/>
          <path class="cls-2" d="M484.97,541.78h-145.9v-191.95h-152.95v191.95H40.22V40.3h145.9v180.9h152.95V40.3h145.9v501.48ZM350.33,530.53h123.39V51.55h-123.39v180.9h-175.46V51.55H51.48v478.98h123.39v-191.95h175.46v191.95Z"/>
          <path class="cls-2" d="M484.52,541.33h-145.9v-191.95h-152.96v191.95H39.78V39.85h145.9v180.91h152.96V39.85h145.9v501.48ZM349.88,530.08h123.39V51.1h-123.39v180.91h-175.46V51.1H51.03v478.98h123.39v-191.95h175.46v191.95Z"/>
          <path class="cls-2" d="M484.08,540.88h-145.9v-191.95h-152.96v191.95H39.33V39.4h145.9v180.9h152.96V39.4h145.9v501.48ZM349.44,529.63h123.39V50.65h-123.39v180.9h-175.46V50.65H50.58v478.97h123.39v-191.95h175.46v191.95Z"/>
          <path class="cls-2" d="M483.63,540.44h-145.9v-191.95h-152.96v191.95H38.88V38.96h145.9v180.9h152.96V38.96h145.9v501.48ZM348.99,529.18h123.39V50.21h-123.39v180.9h-175.46V50.21H50.14v478.97h123.39v-191.95h175.46v191.95Z"/>
          <path class="cls-2" d="M483.18,539.99h-145.89v-191.95h-152.96v191.95H38.43V38.51h145.9v180.9h152.96V38.51h145.89v501.48ZM348.55,528.74h123.38V49.76h-123.38v180.9h-175.47V49.76H49.69v478.98h123.39v-191.95h175.47v191.95Z"/>
          <path class="cls-2" d="M482.74,539.54h-145.9v-191.95h-152.96v191.95H37.98V38.06h145.9v180.9h152.96V38.06h145.9v501.48ZM348.1,528.28h123.39V49.31h-123.39v180.9h-175.47V49.31H49.24v478.98h123.39v-191.95h175.47v191.94Z"/>
          <path class="cls-2" d="M482.3,539.09h-145.9v-191.95h-152.96v191.95H37.53V37.61h145.9v180.9h152.96V37.61h145.9v501.48ZM347.65,527.83h123.39V48.86h-123.39v180.9h-175.47V48.86H48.79v478.97h123.39v-191.95h175.47v191.94Z"/>
          <path class="cls-2" d="M481.85,538.64h-145.9v-191.95h-152.96v191.95H37.09V37.16h145.9v180.9h152.96V37.16h145.9v501.48ZM347.21,527.39h123.39V48.42h-123.39v180.9h-175.47V48.42H48.34v478.97h123.39v-191.95h175.47v191.95Z"/>
          <path class="cls-2" d="M481.4,538.2h-145.9v-191.95h-152.96v191.95H36.64V36.71h145.9v180.9h152.96V36.71h145.9v501.48ZM346.76,526.94h123.39V47.97h-123.39v180.9h-175.47V47.97H47.89v478.98h123.39v-191.95h175.47v191.95Z"/>
          <path class="cls-2" d="M480.96,537.75h-145.89v-191.95h-152.97v191.95H36.19V36.26h145.9v180.91h152.97V36.26h145.89v501.48ZM346.32,526.49h123.38V47.52h-123.38v180.91h-175.48V47.52H47.45v478.98h123.39v-191.95h175.48v191.95Z"/>
          <path class="cls-2" d="M480.51,537.3h-145.89v-191.95h-152.98v191.95H35.75V35.82h145.9v180.9h152.98V35.82h145.9v501.48h0ZM345.88,526.04h123.39V47.07h-123.39v180.9h-175.49V47.07H47v478.97h123.39v-191.95h175.49v191.95Z"/>
          <path class="cls-2" d="M480.07,536.85h-145.9v-191.95h-152.98v191.95H35.3V35.37h145.9v180.9h152.98V35.37h145.9v501.48ZM345.43,525.6h123.39V46.63h-123.39v180.9h-175.49V46.63H46.55v478.97h123.39v-191.95h175.49v191.95Z"/>
          <path class="cls-2" d="M479.62,536.4h-145.9v-191.95h-152.98v191.95H34.85V34.92h145.9v180.9h152.98V34.92h145.9v501.48ZM344.98,525.15h123.39V46.18h-123.39v180.9h-175.49V46.18H46.11v478.98h123.39v-191.95h175.49v191.94Z"/>
          <path class="cls-2" d="M479.17,535.95h-145.9v-191.95h-152.98v191.95H34.4V34.47h145.9v180.91h152.98V34.47h145.9v501.48ZM344.53,524.7h123.39V45.73h-123.39v180.91h-175.49V45.73H45.66v478.98h123.39v-191.95h175.49v191.94Z"/>
          <path class="cls-2" d="M478.73,535.5h-145.9v-191.95h-152.98v191.95H33.95V34.02h145.9v180.9h152.98V34.02h145.9v501.48ZM344.09,524.25h123.39V45.28h-123.39v180.9h-175.49V45.28H45.2v478.97h123.39v-191.95h175.49v191.95Z"/>
          <path class="cls-2" d="M478.29,535.06h-145.9v-191.95h-152.99v191.95H33.5V33.58h145.9v180.9h152.99V33.58h145.9v501.48ZM343.65,523.81h123.39V44.83h-123.39v180.9h-175.49V44.83H44.76v478.97h123.39v-191.95h175.49v191.95Z"/>
          <path class="cls-2" d="M477.84,534.61h-145.9v-191.95h-152.99v191.95H33.06V33.13h145.9v180.9h152.99V33.13h145.9v501.48ZM343.2,523.36h123.39V44.38h-123.39v180.9h-175.49V44.38H44.32v478.98h123.39v-191.95h175.49v191.95Z"/>
          <path class="cls-2" d="M477.39,534.16h-145.9v-191.95h-152.99v191.95H32.61V32.68h145.9v180.91h152.99V32.68h145.9v501.48ZM342.75,522.91h123.39V43.93h-123.39v180.91h-175.49V43.93H43.86v478.98h123.39v-191.95h175.49v191.95Z"/>
          <path class="cls-2" d="M476.95,533.72h-145.9v-191.95h-152.99v191.95H32.16V32.24h145.9v180.9h152.99V32.24h145.9v501.48h0ZM342.31,522.46h123.39V43.49h-123.39v180.9h-175.5V43.49H43.42v478.97h123.39v-191.95h175.5v191.95h0Z"/>
          <path class="cls-2" d="M476.5,533.27h-145.89v-191.95h-152.99v191.95H31.72V31.79h145.9v180.9h152.99V31.79h145.9v501.48h0ZM341.86,522.02h123.39V43.05h-123.39v180.9h-175.5V43.05H42.97v478.97h123.39v-191.95h175.5v191.95h0Z"/>
          <path class="cls-2" d="M476.05,532.82h-145.89v-191.95h-152.99v191.95H31.27V31.34h145.9v180.9h152.99V31.34h145.89v501.48ZM341.42,521.57h123.38V42.6h-123.38v180.9h-175.5V42.6H42.52v478.98h123.39v-191.95h175.5v191.94Z"/>
          <path class="cls-2" d="M475.61,532.37h-145.9v-191.95h-153v191.95H30.82V30.89h145.9v180.91h153V30.89h145.9v501.48ZM340.97,521.12h123.39V42.15h-123.39v180.91h-175.51V42.15H42.08v478.98h123.39v-191.95h175.51v191.94Z"/>
          <path class="cls-2" d="M475.17,531.92h-145.9v-191.95h-153v191.95H30.37V30.44h145.9v180.9h153V30.44h145.9v501.48ZM340.53,520.67h123.39V41.7h-123.39v180.9h-175.51V41.7H41.62v478.97h123.39v-191.95h175.51v191.95Z"/>
          <path class="cls-2" d="M474.72,531.48h-145.9v-191.95h-153v191.95H29.92V30h145.9v180.9h153V30h145.9v501.48h0ZM340.08,520.22h123.39V41.25h-123.39v180.9h-175.51V41.25H41.18v478.97h123.39v-191.95h175.51v191.95h0Z"/>
          <path class="cls-2" d="M474.27,531.03h-145.9v-191.95h-153v191.95H29.48V29.55h145.9v180.9h153V29.55h145.9v501.48h0ZM339.63,519.78h123.39V40.8h-123.39v180.9h-175.51V40.8H40.74v478.98h123.39v-191.95h175.51v191.95Z"/>
          <path class="cls-2" d="M473.82,530.58h-145.89v-191.95h-153.01v191.95H29.02V29.1h145.9v180.91h153.01V29.1h145.89v501.48ZM339.19,519.33h123.38V40.35h-123.38v180.91h-175.52V40.35H40.28v478.98h123.39v-191.95h175.52v191.95Z"/>
          <path class="cls-2" d="M473.39,530.14h-145.9v-191.95h-153.02v191.95H28.58V28.66h145.9v180.9h153.02V28.66h145.9v501.48h0ZM338.74,518.88h123.39V39.91h-123.39v180.9h-175.52V39.91H39.84v478.97h123.39v-191.95h175.52v191.95h0Z"/>
          <path class="cls-2" d="M472.94,529.68h-145.9v-191.95h-153.01v191.95H28.13V28.21h145.9v180.89h153.01V28.21h145.9v501.48ZM338.3,518.43h123.39V39.46h-123.39v180.89h-175.52V39.46H39.39v478.97h123.39v-191.95h175.52v191.95Z"/>
          <path class="cls-2" d="M472.49,529.24h-145.9v-191.95h-153.01v191.95H27.69V27.76h145.9v180.9h153.01V27.76h145.9v501.48ZM337.85,517.98h123.39V39.01h-123.39v180.9h-175.52V39.01H38.94v478.98h123.39v-191.95h175.52v191.94Z"/>
          <path class="cls-2" d="M472.05,528.79h-145.9v-191.95h-153.02v191.95H27.24V27.3h145.9v180.91h153.02V27.3h145.9v501.49ZM337.4,517.54h123.39V38.56h-123.39v180.91h-175.52V38.56H38.49v478.98h123.39v-191.95h175.52v191.95Z"/>
          <path class="cls-2" d="M471.6,528.34h-145.9v-191.95h-153.02v191.95H26.78V26.86h145.9v180.9h153.02V26.86h145.9v501.48ZM336.96,517.09h123.39V38.12h-123.39v180.9h-175.52V38.12H38.04v478.97h123.39v-191.95h175.52v191.95Z"/>
          <path class="cls-2" d="M471.16,527.9h-145.9v-191.95h-153.02v191.95H26.34V26.42h145.9v180.9h153.02V26.42h145.9v501.48h0ZM336.52,516.64h123.39V37.67h-123.39v180.9h-175.53V37.67H37.6v478.97h123.39v-191.95h175.53v191.95Z"/>
          <path class="cls-2" d="M470.71,527.45h-145.9v-191.95h-153.02v191.95H25.9V25.97h145.9v180.9h153.02V25.97h145.9v501.49ZM336.07,516.2h123.39V37.22h-123.39v180.9h-175.53V37.22H37.15v478.98h123.39v-191.95h175.53v191.95Z"/>
          <path class="cls-2" d="M470.26,527h-145.9v-191.95h-153.02v191.95H25.44V25.52h145.9v180.9h153.02V25.52h145.9v501.48ZM335.62,515.75h123.39V36.77h-123.39v180.9h-175.53V36.77H36.7v478.98h123.39v-191.95h175.53v191.95Z"/>
          <path class="cls-2" d="M469.82,526.55h-145.9v-191.95h-153.03v191.95H25V25.07h145.9v180.9h153.03V25.07h145.9v501.48ZM335.18,515.29h123.39V36.33h-123.39v180.9h-175.54V36.33H36.25v478.97h123.39v-191.95h175.54v191.94Z"/>
          <path class="cls-2" d="M469.37,526.1h-145.9v-191.95h-153.02v191.95H24.55V24.63h145.9v180.9h153.02V24.63h145.9v501.48ZM334.73,514.85h123.39V35.88h-123.39v180.9h-175.53V35.88H35.8v478.97h123.39v-191.95h175.53v191.94Z"/>
          <path class="cls-2" d="M468.93,525.66h-145.89v-191.95h-153.03v191.95H24.1V24.18h145.9v180.9h153.03V24.18h145.89v501.48ZM334.29,514.41h123.38V35.43h-123.38v180.9h-175.54V35.43H35.36v478.98h123.39v-191.95h175.54v191.95Z"/>
          <path class="cls-2" d="M468.48,525.21h-145.9v-191.95h-153.04v191.95H23.65V23.73h145.9v180.9h153.04V23.73h145.9v501.48ZM333.84,513.96h123.39V34.98h-123.39v180.9h-175.55V34.98H34.91v478.98h123.39v-191.95h175.55v191.95Z"/>
          <path class="cls-2" d="M468.04,524.76h-145.9v-191.95h-153.04v191.95H23.21V23.28h145.9v180.9h153.04V23.28h145.9v501.48ZM333.4,513.51h123.39V34.53h-123.39v180.9h-175.55V34.53H34.46v478.97h123.39v-191.95h175.55v191.95h0Z"/>
          <path class="cls-2" d="M467.59,524.31h-145.9v-191.95h-153.03v191.95H22.76V22.83h145.9v180.9h153.04V22.83h145.9v501.48h0ZM332.95,513.06h123.39V34.09h-123.39v180.9h-175.55V34.09H34.02v478.97h123.39v-191.95h175.55v191.95h0Z"/>
          <path class="cls-2" d="M467.14,523.87h-145.9v-191.95h-153.04v191.95H22.32V22.39h145.9v180.9h153.04V22.39h145.9v501.48h0ZM332.5,512.62h123.39V33.64h-123.39v180.9h-175.55V33.64H33.57v478.98h123.39v-191.95h175.55v191.95h0Z"/>
          <path class="cls-2" d="M466.7,523.42h-145.9v-191.95h-153.04v191.95H21.86V21.94h145.9v180.9h153.04V21.94h145.9v501.48ZM332.06,512.17h123.39V33.19h-123.39v180.9h-175.55V33.19H33.11v478.98h123.39v-191.95h175.55v191.95Z"/>
          <path class="cls-2" d="M466.26,522.97h-145.9v-191.95h-153.05v191.95H21.42V21.49h145.9v180.9h153.05V21.49h145.9v501.48h0ZM331.62,511.71h123.39V32.74h-123.39v180.9h-175.55V32.74H32.67v478.97h123.39v-191.95h175.55v191.94h0Z"/>
          <path class="cls-2" d="M465.81,522.52h-145.9v-191.95h-153.05v191.95H20.97V21.04h145.9v180.9h153.05V21.04h145.9v501.48ZM331.17,511.27h123.39V32.3h-123.39v180.9h-175.55V32.3H32.22v478.97h123.39v-191.95h175.55v191.95Z"/>
          <path class="cls-2" d="M465.36,522.08h-145.9v-191.95h-153.05v191.95H20.52V20.59h145.9v180.9h153.05V20.59h145.9v501.48ZM330.72,510.82h123.39V31.85h-123.39v180.9h-175.55V31.85H31.77v478.98h123.39v-191.95h175.55v191.95Z"/>
          <path class="cls-2" d="M464.92,521.63h-145.9v-191.95h-153.05v191.95H20.07V20.14h145.9v180.91h153.05V20.14h145.9v501.48ZM330.28,510.37h123.39V31.4h-123.39v180.91h-175.56V31.4H31.33v478.98h123.39v-191.95h175.56v191.95Z"/>
          <path class="cls-2" d="M464.47,521.18h-145.9v-191.95h-153.05v191.95H19.62V19.7h145.9v180.9h153.05V19.7h145.9v501.48ZM329.83,509.92h123.39V30.95h-123.39v180.9h-175.56V30.95H30.88v478.97h123.39v-191.95h175.56v191.95Z"/>
          <path class="cls-2" d="M464.02,520.73h-145.89v-191.95h-153.06v191.95H19.18V19.25h145.9v180.9h153.06V19.25h145.89v501.48ZM329.39,509.48h123.38V30.51h-123.38v180.9h-175.57V30.51H30.43v478.97h123.39v-191.95h175.57v191.95Z"/>
          <path class="cls-2" d="M463.58,520.29h-145.9v-191.95h-153.06v191.95H18.73V18.8h145.9v180.9h153.06V18.8h145.9v501.48ZM328.94,509.03h123.39V30.06h-123.39v180.9h-175.57V30.06H29.98v478.98h123.39v-191.95h175.57v191.95Z"/>
          <path class="cls-2" d="M463.14,519.83h-145.9v-191.95h-153.06v191.95H18.28V18.35h145.9v180.91h153.06V18.35h145.9v501.48ZM328.5,508.58h123.39V29.61h-123.39v180.91h-175.57V29.61H29.54v478.98h123.39v-191.95h175.57v191.94Z"/>
          <path class="cls-2" d="M462.69,519.38h-145.9v-191.95h-153.06v191.95H17.83V17.91h145.9v180.9h153.06V17.91h145.9v501.48ZM328.05,508.13h123.39V29.16h-123.39v180.9h-175.57V29.16H29.08v478.97h123.39v-191.95h175.57v191.94Z"/>
          <path class="cls-2" d="M462.24,518.94h-145.9v-191.95h-153.06v191.95H17.38V17.46h145.9v180.9h153.06V17.46h145.9v501.48ZM327.6,507.69h123.39V28.72h-123.39v180.9h-175.57V28.72H28.64v478.97h123.39v-191.95h175.57v191.95Z"/>
          <path class="cls-2" d="M461.79,518.49h-145.89v-191.95h-153.07v191.95H16.94V17.01h145.9v180.9h153.07V17.01h145.89v501.48ZM327.16,507.24h123.38V28.27h-123.38v180.9h-175.58V28.27H28.2v478.98h123.39v-191.95h175.58v191.95Z"/>
          <path class="cls-2" d="M461.35,518.04h-145.9v-191.95h-153.06v191.95H16.49V16.56h145.9v180.91h153.07V16.56h145.9v501.48h0ZM326.71,506.79h123.39V27.81h-123.39v180.91h-175.57V27.81H27.75v478.98h123.39v-191.95h175.58v191.95h0Z"/>
          <path class="cls-2" d="M460.91,517.6h-145.9v-191.95h-153.08v191.95H16.04V16.12h145.9v180.9h153.08V16.12h145.9v501.48ZM326.27,506.34h123.39V27.37h-123.39v180.9h-175.58V27.37H27.3v478.97h123.39v-191.95h175.58v191.95Z"/>
          <path class="cls-2" d="M460.46,517.15h-145.9v-191.95h-153.08v191.95H15.59V15.67h145.9v180.9h153.08V15.67h145.9v501.48ZM325.82,505.9h123.39V26.93h-123.39v180.9h-175.58V26.93H26.85v478.97h123.39v-191.95h175.58v191.95Z"/>
        </g>
        <path class="cls-2" d="M478.28,535.06h-145.9v-191.95h-153.08v191.95H33.42V33.58h145.9v180.9h153.08V33.58h145.9v501.48ZM343.64,523.81h123.39V44.83h-123.39v180.9h-175.58V44.83H44.67v478.97h123.39v-191.95h175.58v191.95Z"/>
      </g>
    </g>
  </g>
</svg>